<?xml version="1.0" encoding="UTF-8" standalone="no"?>
<svg
   xmlns="http://www.w3.org/2000/svg"
   xmlns:oryx="http://www.b3mn.org/oryx"
   width="40"
   height="40"
   version="1.0">
  <defs></defs>
  <oryx:magnets>

	<oryx:magnet oryx:cx="30" oryx:cy="25" oryx:default="yes" />
  </oryx:magnets>

  <oryx:docker oryx:cx="30" oryx:cy="25" />
  <g pointer-events="fill">
<g
   id="g3155"><g
     id="g22">
		<g
   id="g24">
			<defs
   id="defs26">
				<filter
   id="Adobe_OpacityMaskFilter"
   filterUnits="userSpaceOnUse"
   x="0"
   y="28.000999"
   width="60"
   height="27.378"
   color-interpolation-filters="sRGB">
					<feFlood
   result="back"
   id="feFlood29" />
					<feBlend
   in="SourceGraphic"
   in2="back"
   mode="normal"
   id="feBlend31" />
				</filter>
			</defs>
			<mask
   maskUnits="userSpaceOnUse"
   x="0"
   y="28.001"
   width="60"
   height="27.378"
   id="SVGID_1_">
				<g
   id="g34"
   style="filter:url(#Adobe_OpacityMaskFilter)">
					<defs
   id="defs36">
						<filter
   id="Adobe_OpacityMaskFilter_1_"
   filterUnits="userSpaceOnUse"
   x="0"
   y="28.000999"
   width="60"
   height="27.378"
   color-interpolation-filters="sRGB">
							<feFlood
   result="back"
   id="feFlood39" />
							<feBlend
   in="SourceGraphic"
   in2="back"
   mode="normal"
   id="feBlend41" />
						</filter>
					</defs>
					<mask
   maskUnits="userSpaceOnUse"
   x="0"
   y="28.001"
   width="60"
   height="27.378"
   id="mask43">
						<g
   id="g45"
   style="filter:url(#Adobe_OpacityMaskFilter_1_)">
						</g>
					</mask>
					<linearGradient
   id="SVGID_2_"
   gradientUnits="userSpaceOnUse"
   x1="30.0005"
   y1="55.378899"
   x2="30.0005"
   y2="28.001499">
						<stop
   offset="0"
   style="stop-color:#FFFFFF"
   id="stop48" />
						<stop
   offset="0.0731"
   style="stop-color:#F3F3F3"
   id="stop50" />
						<stop
   offset="0.2038"
   style="stop-color:#D5D5D5"
   id="stop52" />
						<stop
   offset="0.3771"
   style="stop-color:#A3A3A3"
   id="stop54" />
						<stop
   offset="0.5864"
   style="stop-color:#5D5D5D"
   id="stop56" />
						<stop
   offset="0.8241"
   style="stop-color:#060606"
   id="stop58" />
						<stop
   offset="0.8396"
   style="stop-color:#000000"
   id="stop60" />
					</linearGradient>
					<path
   mask="url(#SVGID_1_)"
   d="M 60,40.727 C 60,33.709 46.935,28.001 30.002,28.001 13.066,28.001 0,33.709 0,40.727 c 0,3.47 3.373,5.998 8.824,8.297 l 2.843,6.355 H 48.52 l 2.656,-6.355 C 56.628,46.725 60,44.196 60,40.727 z"
   id="path62"
   inkscape:connector-curvature="0"
   style="fill:url(#SVGID_2_)" />
				</g>
			</mask>
			<linearGradient
   id="SVGID_3_"
   gradientUnits="userSpaceOnUse"
   x1="30.0005"
   y1="55.378899"
   x2="30.0005"
   y2="28.001499">
				<stop
   offset="0"
   style="stop-color:#868686"
   id="stop65" />
				<stop
   offset="0.7607"
   style="stop-color:#868686;stop-opacity:0"
   id="stop67" />
			</linearGradient>
			<path
   d="M 60,40.727 C 60,33.709 46.935,28.001 30.002,28.001 13.066,28.001 0,33.709 0,40.727 c 0,3.47 3.373,5.998 8.824,8.297 l 2.843,6.355 H 48.52 l 2.656,-6.355 C 56.628,46.725 60,44.196 60,40.727 z"
   id="path69"
   style="fill:url(#SVGID_3_)"
   inkscape:connector-curvature="0" />
			<linearGradient
   id="SVGID_4_"
   gradientUnits="userSpaceOnUse"
   x1="30.001499"
   y1="56.089802"
   x2="30.001499"
   y2="-0.087399997">
				<stop
   offset="0"
   style="stop-color:#D9D7D0"
   id="stop72" />
				<stop
   offset="0.0428"
   style="stop-color:#E6E5E0"
   id="stop74" />
				<stop
   offset="0.1176"
   style="stop-color:#F8F8F7"
   id="stop76" />
				<stop
   offset="0.1651"
   style="stop-color:#FFFFFF"
   id="stop78" />
			</linearGradient>
			<path
   d="m 56.112,26.023 c 0,-14.398 -11.714,-26.111 -26.11,-26.111 -14.399,0 -26.112,11.713 -26.112,26.111 0,7.12 2.867,13.578 7.503,18.293 V 56.09 H 48.608 V 44.318 c 4.637,-4.716 7.504,-11.174 7.504,-18.295 z"
   id="path80"
   style="fill:url(#SVGID_4_)"
   inkscape:connector-curvature="0" />
		</g>
		<g
   id="g82">
			<linearGradient
   id="SVGID_5_"
   gradientUnits="userSpaceOnUse"
   x1="29.9995"
   y1="4.6933999"
   x2="29.9995"
   y2="46.938499">
				<stop
   offset="0"
   style="stop-color:#AFC700"
   id="stop85" />
				<stop
   offset="1"
   style="stop-color:#89BA17"
   id="stop87" />
			</linearGradient>
			<path
   d="M 29.999,5.675 C 18.955,5.675 10,14.63 10,25.675 10,36.721 18.955,45.676 29.999,45.676 41.045,45.676 50,36.721 50,25.675 c 0,-11.045 -8.955,-20 -20.001,-20 z m 0,36.801 c -9.277,0 -16.8,-7.522 -16.8,-16.801 0,-9.277 7.522,-16.8 16.8,-16.8 9.278,0 16.801,7.522 16.801,16.8 0,9.278 -7.523,16.801 -16.801,16.801 z m 0,-20.001 c 0.884,0 1.602,-0.716 1.602,-1.6 v -7.2 c 0,-0.883 -0.718,-1.6 -1.602,-1.6 -0.883,0 -1.6,0.717 -1.6,1.6 v 7.2 c 0,0.884 0.717,1.6 1.6,1.6 z m 7.468,-5.148 c -0.406,-0.363 -0.845,-0.701 -1.302,-1.003 -0.735,-0.488 -1.729,-0.284 -2.217,0.452 -0.487,0.737 -0.284,1.729 0.453,2.217 0.327,0.217 0.641,0.459 0.931,0.719 1.695,1.517 2.668,3.69 2.668,5.963 0,4.412 -3.589,8 -8.001,8 -4.41,0 -8,-3.588 -8,-8 0,-2.272 0.972,-4.445 2.668,-5.963 0.305,-0.273 0.634,-0.524 0.978,-0.749 0.74,-0.481 0.95,-1.474 0.468,-2.214 -0.481,-0.741 -1.472,-0.951 -2.213,-0.468 -0.48,0.312 -0.941,0.665 -1.366,1.047 -2.373,2.123 -3.733,5.165 -3.733,8.347 0,6.176 5.023,11.2 11.199,11.2 6.177,0 11.201,-5.024 11.201,-11.2 C 41.2,22.493 39.839,19.45 37.467,17.327 z"
   id="path89"
   style="fill:url(#SVGID_5_)"
   inkscape:connector-curvature="0" />
		</g>
	</g></g>
</g>
	</svg>