<?xml version="1.0" encoding="UTF-8" standalone="no"?>
<svg
   xmlns="http://www.w3.org/2000/svg"
   xmlns:oryx="http://www.b3mn.org/oryx"
   width="40"
   height="40"
   version="1.0">
  <defs></defs>
  <oryx:magnets>

	<oryx:magnet oryx:cx="30" oryx:cy="25" oryx:default="yes" />
  </oryx:magnets>

  <oryx:docker oryx:cx="30" oryx:cy="25" />
  <g pointer-events="fill">


<g
   id="g7">
	<g
   id="g9">
		<defs
   id="defs11">
			<filter
   id="Adobe_OpacityMaskFilter"
   filterUnits="userSpaceOnUse"
   x="0"
   y="28"
   width="60"
   height="27.379">
				<feFlood
   style="flood-color:white;flood-opacity:1"
   result="back"
   id="feFlood14" />
				<feBlend
   in="SourceGraphic"
   in2="back"
   mode="normal"
   id="feBlend16" />
			</filter>
		</defs>
		<mask
   maskUnits="userSpaceOnUse"
   x="0"
   y="28"
   width="60"
   height="27.379"
   id="SVGID_1_">
			<g
   filter="url(#Adobe_OpacityMaskFilter)"
   id="g19">
				<defs
   id="defs21">
					<filter
   id="Adobe_OpacityMaskFilter_1_"
   filterUnits="userSpaceOnUse"
   x="0"
   y="28"
   width="60"
   height="27.379">
						<feFlood
   style="flood-color:white;flood-opacity:1"
   result="back"
   id="feFlood24" />
						<feBlend
   in="SourceGraphic"
   in2="back"
   mode="normal"
   id="feBlend26" />
					</filter>
				</defs>
				<mask
   maskUnits="userSpaceOnUse"
   x="0"
   y="28"
   width="60"
   height="27.379"
   id="mask28">
					<g
   filter="url(#Adobe_OpacityMaskFilter_1_)"
   id="g30">
					</g>
				</mask>
				<linearGradient
   id="SVGID_2_"
   gradientUnits="userSpaceOnUse"
   x1="30"
   y1="55.3794"
   x2="30"
   y2="28.0005">
					<stop
   offset="0"
   style="stop-color:#FFFFFF"
   id="stop33" />
					<stop
   offset="0.0731"
   style="stop-color:#F3F3F3"
   id="stop35" />
					<stop
   offset="0.2038"
   style="stop-color:#D5D5D5"
   id="stop37" />
					<stop
   offset="0.3771"
   style="stop-color:#A3A3A3"
   id="stop39" />
					<stop
   offset="0.5864"
   style="stop-color:#5D5D5D"
   id="stop41" />
					<stop
   offset="0.8241"
   style="stop-color:#060606"
   id="stop43" />
					<stop
   offset="0.8396"
   style="stop-color:#000000"
   id="stop45" />
				</linearGradient>
				<path
   mask="url(#SVGID_1_)"
   fill="url(#SVGID_2_)"
   d="M60,40.725C60,33.708,46.935,28,30.002,28C13.066,28,0,33.708,0,40.725      c0,3.471,3.373,5.999,8.824,8.297l2.843,6.357H48.52l2.656-6.356C56.628,46.724,60,44.196,60,40.725z"
   id="path47" />
			</g>
		</mask>
		<linearGradient
   id="SVGID_3_"
   gradientUnits="userSpaceOnUse"
   x1="30"
   y1="55.3794"
   x2="30"
   y2="28.0005">
			<stop
   offset="0"
   style="stop-color:#888787"
   id="stop50" />
			<stop
   offset="0.7607"
   style="stop-color:#888787;stop-opacity:0"
   id="stop52" />
		</linearGradient>
		<path
   fill="url(#SVGID_3_)"
   d="M60,40.725C60,33.708,46.935,28,30.002,28C13.066,28,0,33.708,0,40.725    c0,3.471,3.373,5.999,8.824,8.297l2.843,6.357H48.52l2.656-6.356C56.628,46.724,60,44.196,60,40.725z"
   id="path54" />
		<linearGradient
   id="SVGID_4_"
   gradientUnits="userSpaceOnUse"
   x1="30.001"
   y1="56.0894"
   x2="30.001"
   y2="-0.0894">
			<stop
   offset="0"
   style="stop-color:#DAD8D1"
   id="stop57" />
			<stop
   offset="0.0386"
   style="stop-color:#E6E4DF"
   id="stop59" />
			<stop
   offset="0.116"
   style="stop-color:#F8F8F6"
   id="stop61" />
			<stop
   offset="0.1651"
   style="stop-color:#FFFFFF"
   id="stop63" />
		</linearGradient>
		<path
   fill="url(#SVGID_4_)"
   d="M56.112,26.023c0-14.398-11.714-26.112-26.11-26.112C15.603-0.089,3.89,11.625,3.89,26.023    c0,7.12,2.867,13.578,7.503,18.293v11.773h37.215V44.317C53.245,39.601,56.112,33.143,56.112,26.023z"
   id="path65" />
	</g>
	
		<linearGradient
   id="SVGID_5_"
   gradientUnits="userSpaceOnUse"
   x1="382.9531"
   y1="-325.5679"
   x2="382.9531"
   y2="-283.3196"
   gradientTransform="matrix(0.7971 -0.6038 0.6038 0.7971 -91.3436 499.6853)">
		<stop
   offset="0"
   style="stop-color:#E53780"
   id="stop68" />
		<stop
   offset="1"
   style="stop-color:#E30466"
   id="stop70" />
	</linearGradient>
	<path
   fill="url(#SVGID_5_)"
   d="M30,5.673c-11.045,0-20,8.954-20,20.001c0,11.045,8.955,20,20,20s20-8.955,20-20   C50,14.627,41.045,5.673,30,5.673z M30,42.474c-9.279,0-16.801-7.522-16.801-16.8c0-9.279,7.521-16.801,16.801-16.801   s16.802,7.521,16.802,16.801C46.802,34.952,39.279,42.474,30,42.474z M30.169,40.619c-0.512,0-1.043-0.049-1.577-0.148   c-2.051-0.381-3.201-1.202-3.847-2.741c-0.118-0.28-0.228-0.605-0.345-1.021c-0.088-0.334-0.169-0.676-0.252-1.027l-0.019-0.073   c-0.192-0.826-0.376-1.572-0.681-2.341c-0.512-1.293-1.268-2.538-2.312-3.806c-2.913-3.538-3.54-7.559-1.766-11.321   c1.967-4.166,6.561-7.189,10.922-7.189c4.575,0,7.712,3.239,8.608,8.888c0.16,1.009,0.174,1.704,0.174,1.711   c0,0.982-0.703,1.331-1.305,1.331c-0.686-0.024-1.42-0.437-1.42-1.285c-0.006-0.321-0.227-7.922-6.334-7.922   c-0.171,0-0.348,0.006-0.528,0.018c-3.312,0.228-6.179,2.247-7.483,5.272c-1.286,2.988-0.825,6.266,1.235,8.767   c2.212,2.688,2.978,4.749,3.689,7.841c0.335,1.462,0.437,1.902,2.16,2.22c0.335,0.062,0.671,0.094,1.001,0.094   c1.822,0,3.217-0.927,3.73-2.478c0.379-0.986,1.008-1.134,1.348-1.134c0.181,0,0.359,0.039,0.531,0.116   c0.621,0.279,1.062,1.039,0.722,1.828c0.004,0.011-0.127,0.396-0.368,0.863C34.871,39.362,32.781,40.618,30.169,40.619   L30.169,40.619z M34.204,31.938c-1.724,0-3.074-1.111-3.525-2.9c-0.44-1.743,0.097-4.07,1.97-5.171   c-0.109-0.797-0.689-4.154-2.715-4.46c-0.197-0.028-0.39-0.042-0.576-0.042c-2.372,0-3.905,2.267-3.969,2.363   c-0.344,0.325-0.726,0.49-1.115,0.49c-0.502,0-0.981-0.273-1.224-0.696c-0.22-0.388-0.213-0.834,0.019-1.228   c0.031-0.051,0.198-0.311,0.508-0.687c1.578-1.904,3.653-2.996,5.693-2.996c2.537,0,4.567,1.652,5.572,4.535   c0.541,1.559,0.694,3.115,0.772,4.432c0.006,0.107-0.064,0.204-0.169,0.228c-0.476,0.115-1.123,0.279-1.173,0.298   c-0.732,0.268-1.102,1.397-0.976,2.244c0.08,0.534,0.351,0.853,0.743,0.874l0.106,0.003c0.31,0,0.656-0.074,0.977-0.209   c0.166-0.058,0.324-0.085,0.477-0.085c0.681,0,1.121,0.522,1.256,1.042c0.162,0.63-0.077,1.228-0.61,1.523   c-0.127,0.057-0.383,0.159-0.733,0.256C35.061,31.875,34.62,31.938,34.204,31.938z"
   id="path72" />
	<linearGradient
   id="SVGID_6_"
   gradientUnits="userSpaceOnUse"
   x1="28.938"
   y1="23.957"
   x2="30.96"
   y2="26.6263">
		<stop
   offset="0"
   style="stop-color:#E53780"
   id="stop75" />
		<stop
   offset="1"
   style="stop-color:#E30466"
   id="stop77" />
	</linearGradient>
	<polygon
   fill="url(#SVGID_6_)"
   points="44.997,15.982 16.917,37.262 14.896,34.592 42.977,13.322  "
   id="polygon79" />
</g>
</g></svg>