<?xml version="1.0" encoding="UTF-8" standalone="no"?>
<svg
   xmlns="http://www.w3.org/2000/svg"
   xmlns:oryx="http://www.b3mn.org/oryx"
   width="40"
   height="40"
   version="1.0">
  <defs></defs>
  <oryx:magnets>

	<oryx:magnet oryx:cx="30" oryx:cy="25" oryx:default="yes" />
  </oryx:magnets>

  <oryx:docker oryx:cx="30" oryx:cy="25" />
  <g pointer-events="fill">
<g
   id="Capa_2_1_"
   display="none">
	<g
   display="inline"
   id="g4">
		<g
   id="g6">
			<g
   id="g8">
				
					<radialGradient
   id="XMLID_3_"
   cx="3871.4062"
   cy="-4526.8975"
   r="96.3858"
   gradientTransform="matrix(0.223 0 0 -0.2812 -832.6203 -1245.3533)"
   gradientUnits="userSpaceOnUse">
					<stop
   offset="0"
   style="stop-color:#CCE7F4"
   id="stop11" />
					<stop
   offset="0.9693"
   style="stop-color:#CCE7F4"
   id="stop13" />
				</radialGradient>
				<rect
   id="XMLID_1_"
   x="-1.981"
   y="-1.782"
   fill="url(#XMLID_3_)"
   width="65.37"
   height="58.784" />
			</g>
		</g>
	</g>
</g>

<g
   id="g3093"><g
     id="g73">
	<g
   id="g75">
		<g
   id="g77">
			<linearGradient
   y2="21.0351"
   x2="30.0005"
   y1="57.4678"
   x1="30.0005"
   gradientUnits="userSpaceOnUse"
   id="SVGID_1_">
				<stop
   id="stop80"
   style="stop-color:#868686"
   offset="0" />
				<stop
   id="stop82"
   style="stop-color:#868686;stop-opacity:0"
   offset="0.681" />
			</linearGradient>
			<path
   id="path84"
   d="M16.003,55.712c0,0-2.044-2.232-3.758-5.291C5.266,49.784,0,47.036,0,43.751V32.616     c0-3.754,6.877-6.81,15.33-6.81h29.338c8.454,0,15.332,3.056,15.332,6.81v11.135c0,3.406-5.662,6.236-13.025,6.732     c-1.466,2.779-3.366,5.229-3.366,5.229H16.003z"
   fill="url(#SVGID_1_)" />
		</g>
	</g>
	<g
   id="g86">
		<g
   id="g88">
			<linearGradient
   y2="-9.0101"
   x2="30.0005"
   y1="59.3516"
   x1="30.0005"
   gradientUnits="userSpaceOnUse"
   id="SVGID_2_">
				<stop
   id="stop91"
   style="stop-color:#D9D7D0"
   offset="0" />
				<stop
   id="stop93"
   style="stop-color:#E6E5E0"
   offset="0.0428" />
				<stop
   id="stop95"
   style="stop-color:#F8F8F7"
   offset="0.1176" />
				<stop
   id="stop97"
   style="stop-color:#FFFFFF"
   offset="0.1651" />
			</linearGradient>
			<path
   id="path99"
   d="M15.235,56.058c0,0-0.023-6.848-0.031-9.93C9.388,44.935,5,39.776,5,33.612V12.721     C5,5.676,10.73-0.056,17.775-0.056h24.448C49.269-0.056,55,5.676,55,12.721v20.892c0,6.393-4.719,11.703-10.854,12.633     c0.027,2.248,0.12,9.812,0.12,9.812H15.235z"
   fill="url(#SVGID_2_)" />
		</g>
	</g>
	<g
   id="g101">
		<g
   id="g103">
			<linearGradient
   y2="45.6089"
   x2="29.9995"
   y1="4.1567"
   x1="29.9995"
   gradientUnits="userSpaceOnUse"
   id="SVGID_3_">
				<stop
   id="stop106"
   style="stop-color:#E5337F"
   offset="0" />
				<stop
   id="stop108"
   style="stop-color:#E30066"
   offset="1" />
			</linearGradient>
			<path
   id="path110"
   d="M42.224,6.154H17.775c-3.626,0-6.565,2.939-6.565,6.566v20.892c0,3.627,2.939,6.566,6.565,6.566     h24.448c3.626,0,6.565-2.939,6.565-6.566V12.721C48.789,9.094,45.85,6.154,42.224,6.154z M45.975,32.675     c0,2.59-2.1,4.689-4.688,4.689H18.714c-2.59,0-4.689-2.1-4.689-4.689V13.658c0-2.59,2.1-4.689,4.689-4.689h22.572     c2.589,0,4.688,2.1,4.688,4.689V32.675z M23.111,12.146v3.674h-1.837v0.918h1.837v3.674h-1.837v0.918h1.837v3.674h-1.837v0.918     h1.837v0.919h-2.754v5.511h2.754v1.836h2.756v-1.836h2.755V26.84h-2.755v-0.919h1.836v-0.918h-1.836v-3.674h1.836v-0.918h-1.836     v-3.674h1.836v-0.918h-1.836v-3.674H23.111z M27.703,28.677v1.838h-6.429v-1.838H27.703z M34.132,12.146v3.674h-1.837v0.918     h1.837v0.919h-2.755v5.51h2.755v1.837h-1.837v0.918h1.837v3.676h-1.837v0.918h1.837v3.672h2.755v-3.672h1.838v-0.918h-1.838     v-3.676h1.838v-0.918h-1.838v-1.837h2.756v-5.51h-2.756v-0.919h1.838v-0.918h-1.838v-3.674H34.132z M38.725,19.492v1.837h-6.43     v-1.837H38.725z"
   fill="url(#SVGID_3_)" />
		</g>
	</g>
</g></g>
</g>
</svg>