<?xml version="1.0" encoding="UTF-8" standalone="no"?>
<svg
   xmlns="http://www.w3.org/2000/svg"
   xmlns:oryx="http://www.b3mn.org/oryx"
   width="40"
   height="40"
   version="1.0">
  <defs></defs>
  <oryx:magnets>

	<oryx:magnet oryx:cx="30" oryx:cy="25" oryx:default="yes" />
  </oryx:magnets>

  <oryx:docker oryx:cx="30" oryx:cy="25" />
  <g pointer-events="fill">
<g
   id="Capa_2_1_"
   display="none">
	<g
   display="inline"
   id="g4">
		<g
   id="g6">
			<g
   id="g8">
				
					<radialGradient
   id="XMLID_3_"
   cx="3871.4062"
   cy="-4526.8975"
   r="96.3858"
   gradientTransform="matrix(0.223 0 0 -0.2812 -832.6203 -1245.3533)"
   gradientUnits="userSpaceOnUse">
					<stop
   offset="0"
   style="stop-color:#CCE7F4"
   id="stop11" />
					<stop
   offset="0.9693"
   style="stop-color:#CCE7F4"
   id="stop13" />
				</radialGradient>
				<rect
   id="XMLID_1_"
   x="-1.981"
   y="-1.782"
   fill="url(#XMLID_3_)"
   width="65.37"
   height="58.784" />
			</g>
		</g>
	</g>
</g>


<g
   id="g3102"><g
     id="g54">
	<g
   id="g56">
		<defs
   id="defs58">
			<filter
   height="27.378"
   width="60"
   y="28.001"
   x="0"
   filterUnits="userSpaceOnUse"
   id="Adobe_OpacityMaskFilter">
				<feFlood
   id="feFlood61"
   result="back"
   style="flood-color:white;flood-opacity:1" />
				<feBlend
   id="feBlend63"
   mode="normal"
   in2="back"
   in="SourceGraphic" />
			</filter>
		</defs>
		<mask
   id="SVGID_1_"
   height="27.378"
   width="60"
   y="28.001"
   x="0"
   maskUnits="userSpaceOnUse">
			<g
   id="g66"
   filter="url(#Adobe_OpacityMaskFilter)">
				<defs
   id="defs68">
					<filter
   height="27.378"
   width="60"
   y="28.001"
   x="0"
   filterUnits="userSpaceOnUse"
   id="Adobe_OpacityMaskFilter_1_">
						<feFlood
   id="feFlood71"
   result="back"
   style="flood-color:white;flood-opacity:1" />
						<feBlend
   id="feBlend73"
   mode="normal"
   in2="back"
   in="SourceGraphic" />
					</filter>
				</defs>
				<mask
   id="mask75"
   height="27.378"
   width="60"
   y="28.001"
   x="0"
   maskUnits="userSpaceOnUse">
					<g
   id="g77"
   filter="url(#Adobe_OpacityMaskFilter_1_)">
					</g>
				</mask>
				<linearGradient
   y2="28.0015"
   x2="30.0005"
   y1="55.3789"
   x1="30.0005"
   gradientUnits="userSpaceOnUse"
   id="SVGID_2_">
					<stop
   id="stop80"
   style="stop-color:#FFFFFF"
   offset="0" />
					<stop
   id="stop82"
   style="stop-color:#F3F3F3"
   offset="0.0731" />
					<stop
   id="stop84"
   style="stop-color:#D5D5D5"
   offset="0.2038" />
					<stop
   id="stop86"
   style="stop-color:#A3A3A3"
   offset="0.3771" />
					<stop
   id="stop88"
   style="stop-color:#5D5D5D"
   offset="0.5864" />
					<stop
   id="stop90"
   style="stop-color:#060606"
   offset="0.8241" />
					<stop
   id="stop92"
   style="stop-color:#000000"
   offset="0.8396" />
				</linearGradient>
				<path
   id="path94"
   d="M60,40.727c0-7.018-13.065-12.726-29.998-12.726      C13.066,28.001,0,33.709,0,40.727c0,3.469,3.373,5.998,8.824,8.297l2.843,6.355H48.52l2.656-6.355      C56.628,46.725,60,44.195,60,40.727z"
   fill="url(#SVGID_2_)"
   mask="url(#SVGID_1_)" />
			</g>
		</mask>
		<linearGradient
   y2="28.0015"
   x2="30.0005"
   y1="55.3789"
   x1="30.0005"
   gradientUnits="userSpaceOnUse"
   id="SVGID_3_">
			<stop
   id="stop97"
   style="stop-color:#868686"
   offset="0" />
			<stop
   id="stop99"
   style="stop-color:#868686;stop-opacity:0"
   offset="0.7607" />
		</linearGradient>
		<path
   id="path101"
   d="M60,40.727c0-7.018-13.065-12.726-29.998-12.726C13.066,28.001,0,33.709,0,40.727    c0,3.469,3.373,5.998,8.824,8.297l2.843,6.355H48.52l2.656-6.355C56.628,46.725,60,44.195,60,40.727z"
   fill="url(#SVGID_3_)" />
		<linearGradient
   y2="-0.0874"
   x2="30.0015"
   y1="56.0898"
   x1="30.0015"
   gradientUnits="userSpaceOnUse"
   id="SVGID_4_">
			<stop
   id="stop104"
   style="stop-color:#D9D7D0"
   offset="0" />
			<stop
   id="stop106"
   style="stop-color:#E6E5E0"
   offset="0.0428" />
			<stop
   id="stop108"
   style="stop-color:#F8F8F7"
   offset="0.1176" />
			<stop
   id="stop110"
   style="stop-color:#FFFFFF"
   offset="0.1651" />
		</linearGradient>
		<path
   id="path112"
   d="M56.112,26.023c0-14.398-11.714-26.111-26.11-26.111C15.603-0.088,3.89,11.625,3.89,26.023    c0,7.119,2.867,13.578,7.503,18.293V56.09h37.215V44.318C53.245,39.602,56.112,33.143,56.112,26.023z"
   fill="url(#SVGID_4_)" />
	</g>
	<linearGradient
   y2="46.9386"
   x2="29.9995"
   y1="4.6924"
   x1="29.9995"
   gradientUnits="userSpaceOnUse"
   id="SVGID_5_">
		<stop
   id="stop115"
   style="stop-color:#AFC700"
   offset="0" />
		<stop
   id="stop117"
   style="stop-color:#89BA17"
   offset="1" />
	</linearGradient>
	<path
   id="path119"
   d="M30,5.674c-11.045,0-20,8.955-20,20c0,11.047,8.955,20.002,20,20.002s20-8.955,20-20.002   C50,14.629,41.045,5.674,30,5.674z M30,42.475c-9.279,0-16.801-7.521-16.801-16.801c0-9.277,7.521-16.8,16.801-16.8   s16.802,7.522,16.802,16.8C46.802,34.953,39.279,42.475,30,42.475z M43.601,24.344L33.063,14.16   c-0.626-0.625-2.263-0.687-2.263,0.914v6.949l-8.138-7.863c-0.626-0.625-2.263-0.687-2.263,0.914v21.277   c0,1.601,1.637,1.539,2.263,0.914l8.138-7.863v6.949c0,1.601,1.637,1.539,2.263,0.914l10.537-10.183   C44.821,26.241,44.721,25.141,43.601,24.344z"
   fill="url(#SVGID_5_)" />
</g></g>
</g>
</svg>