<?xml version="1.0" encoding="UTF-8" standalone="no"?>
<svg
   xmlns="http://www.w3.org/2000/svg"
   xmlns:oryx="http://www.b3mn.org/oryx"
   width="40"
   height="40"
   version="1.0">
  <defs></defs>
  <oryx:magnets>

	<oryx:magnet oryx:cx="30" oryx:cy="25" oryx:default="yes" />
  </oryx:magnets>

  <oryx:docker oryx:cx="30" oryx:cy="25" />
  <g pointer-events="fill">
<g
   id="Capa_2_1_"
   display="none">
	<g
   display="inline"
   id="g4">
		<g
   id="g6">
			<g
   id="g8">
				
					<radialGradient
   id="XMLID_3_"
   cx="3871.4062"
   cy="-4526.8975"
   r="96.3858"
   gradientTransform="matrix(0.223 0 0 -0.2812 -832.6203 -1245.3533)"
   gradientUnits="userSpaceOnUse">
					<stop
   offset="0"
   style="stop-color:#CCE7F4"
   id="stop11" />
					<stop
   offset="0.9693"
   style="stop-color:#CCE7F4"
   id="stop13" />
				</radialGradient>
				<rect
   id="XMLID_1_"
   x="-1.981"
   y="-1.782"
   fill="url(#XMLID_3_)"
   width="65.37"
   height="58.784" />
			</g>
		</g>
	</g>
</g>

<g
   id="g34">
	<g
   id="g36">
		<g
   id="g38">
			<g
   id="g40">
				<linearGradient
   id="SVGID_1_"
   gradientUnits="userSpaceOnUse"
   x1="30.1226"
   y1="55.4004"
   x2="30.1226"
   y2="26.313">
					<stop
   offset="0"
   style="stop-color:#868686"
   id="stop43" />
					<stop
   offset="0.454"
   style="stop-color:#868686;stop-opacity:0"
   id="stop45" />
				</linearGradient>
				<path
   fill="url(#SVGID_1_)"
   d="M60.122,30.578v16.105c0,2.352-4.409,4.266-9.821,4.266c-0.427,0-0.848-0.012-1.261-0.035      c-2.027,2.762-3.022,4.486-3.022,4.486H14.956c0,0-1.875-1.787-3.18-2.832c0-0.255-0.971-0.308-1.427-0.508      c-2.904-1.277-2.868-2.88-2.832-4.572l0.012-0.373c0.012-0.701,0-1.749-0.036-2.74c-4.396-1.079-7.371-3.123-7.371-5.463V38.46      c0-3.456,6.476-6.269,14.433-6.269h8.518c13.406-2.262,17.372-3.232,18.34-3.497c0.048-0.021,0.096-0.041,0.144-0.058      c1.636-1.38,4.946-2.324,8.745-2.324C55.713,26.312,60.122,28.227,60.122,30.578z"
   id="path47" />
			</g>
		</g>
		<g
   id="g49">
			<g
   id="g51">
				<linearGradient
   id="SVGID_2_"
   gradientUnits="userSpaceOnUse"
   x1="30.1226"
   y1="56.0293"
   x2="30.1226"
   y2="-0.0269">
					<stop
   offset="0"
   style="stop-color:#D9D7D0"
   id="stop54" />
					<stop
   offset="0.0428"
   style="stop-color:#E6E5E0"
   id="stop56" />
					<stop
   offset="0.1176"
   style="stop-color:#F8F8F7"
   id="stop58" />
					<stop
   offset="0.1651"
   style="stop-color:#FFFFFF"
   id="stop60" />
				</linearGradient>
				<path
   fill="url(#SVGID_2_)"
   d="M55.232,8.193v31.04c0,4.53-3.69,8.22-8.221,8.22c-0.357,0-0.709-0.023-1.055-0.068      c-0.001,5.229,0.061,8.645,0.061,8.645H14.956c0,0-0.189-2.275-0.189-5.455c0-0.492-0.812-0.595-1.194-0.98      c-2.431-2.461-2.4-5.551-2.37-8.811l0.01-0.72c0.01-1.351,0-3.37-0.03-5.28c-3.68-2.08-6.17-6.021-6.17-10.53v-0.87      c0-6.66,5.42-12.08,12.08-12.08h7.13c11.221-4.359,14.54-6.229,15.351-6.739c0.04-0.04,0.08-0.08,0.12-0.11      c1.369-2.66,4.14-4.48,7.319-4.48C51.542-0.027,55.232,3.663,55.232,8.193z"
   id="path62" />
			</g>
		</g>
		<g
   id="g64">
			<g
   id="g66">
				<linearGradient
   id="SVGID_3_"
   gradientUnits="userSpaceOnUse"
   x1="18.8037"
   y1="16.1602"
   x2="18.8037"
   y2="48.1117">
					<stop
   offset="0"
   style="stop-color:#E5337F"
   id="stop69" />
					<stop
   offset="1"
   style="stop-color:#E30066"
   id="stop71" />
				</linearGradient>
				<path
   fill="url(#SVGID_3_)"
   d="M24.91,18.054v-0.753h-7.817c-3.358,0-6.082,2.723-6.082,6.081v0.868      c0,3.359,2.724,6.082,6.082,6.082h0.026c0.042,2.45,0.114,7.248,0.093,9.779c-0.047,5.547-0.303,6.111,4.898,5.785      c4.335-0.271,4.106-1.103,4.083-1.607c-0.057-1.189-2.222-1.667-1.738-3.051c0.542-1.55-0.902-1.821-0.535-2.934      c0.436-1.314-0.318-1.723-0.453-2.581c-0.018-0.112-0.02-0.2-0.023-0.289l3.153-1.158c0,0-1.81-1.882-1.593-3.909      c0.029-0.282-0.094-0.787-0.094-0.787 M24.91,27.757v-7.809"
   id="path73" />
				<linearGradient
   id="SVGID_4_"
   gradientUnits="userSpaceOnUse"
   x1="47.0127"
   y1="4.5581"
   x2="47.0127"
   y2="44.102">
					<stop
   offset="0"
   style="stop-color:#E5337F"
   id="stop76" />
					<stop
   offset="1"
   style="stop-color:#E30066"
   id="stop78" />
				</linearGradient>
				<path
   fill="url(#SVGID_4_)"
   d="M49.235,39.229c0,1.228-0.995,2.223-2.223,2.223l0,0c-1.228,0-2.223-0.995-2.223-2.223V8.192      c0-1.228,0.995-2.223,2.223-2.223l0,0c1.228,0,2.223,0.995,2.223,2.223V39.229z"
   id="path80" />
			</g>
			<linearGradient
   id="SVGID_5_"
   gradientUnits="userSpaceOnUse"
   x1="34.8525"
   y1="7.6382"
   x2="34.8525"
   y2="41.0046">
				<stop
   offset="0"
   style="stop-color:#E5337F"
   id="stop83" />
				<stop
   offset="1"
   style="stop-color:#E30066"
   id="stop85" />
			</linearGradient>
			<path
   fill="url(#SVGID_5_)"
   d="M25.915,17.079v12.188c0,0,15.375,4.625,17.875,9.501c0-7.688,0-29.938,0-29.938     S43.353,10.329,25.915,17.079z"
   id="path87" />
		</g>
	</g>
</g>
</g>
</svg>