<?xml version="1.0" encoding="UTF-8" standalone="no"?>
<svg
   xmlns="http://www.w3.org/2000/svg"
   xmlns:oryx="http://www.b3mn.org/oryx"
   width="40"
   height="40"
   version="1.0">
  <defs></defs>
  <oryx:magnets>

	<oryx:magnet oryx:cx="30" oryx:cy="25" oryx:default="yes" />
  </oryx:magnets>

  <oryx:docker oryx:cx="30" oryx:cy="25" />
  <g pointer-events="fill">
<g
   id="Capa_2_1_"
   display="none">
	<g
   display="inline"
   id="g4">
		<g
   id="g6">
			<g
   id="g8">
				
					<radialGradient
   id="XMLID_3_"
   cx="3871.4062"
   cy="-4526.8975"
   r="96.3858"
   gradientTransform="matrix(0.223 0 0 -0.2812 -832.6203 -1245.3533)"
   gradientUnits="userSpaceOnUse">
					<stop
   offset="0"
   style="stop-color:#CCE7F4"
   id="stop11" />
					<stop
   offset="0.9693"
   style="stop-color:#CCE7F4"
   id="stop13" />
				</radialGradient>
				<rect
   id="XMLID_1_"
   x="-1.981"
   y="-1.782"
   fill="url(#XMLID_3_)"
   width="65.37"
   height="58.784" />
			</g>
		</g>
	</g>
</g>

<g
   id="g109">
	<g
   id="g111">
		<linearGradient
   id="SVGID_1_"
   gradientUnits="userSpaceOnUse"
   x1="30.0005"
   y1="59.0908"
   x2="30.0005"
   y2="20.802">
			<stop
   offset="0"
   style="stop-color:#868686"
   id="stop114" />
			<stop
   offset="0.454"
   style="stop-color:#868686;stop-opacity:0"
   id="stop116" />
		</linearGradient>
		<path
   fill="url(#SVGID_1_)"
   d="M11.42,55.878c0,0-2.225-2.008-4.89-3.893C2.672,51.021,0,49.425,0,46.776    c0-3.604,4.224-6.189,12.558-7.688c0.776-0.139,1.485-0.265,2.138-0.378c-1.452-1.381-2.235-2.846-2.235-4.117    c0-4.144,7.868-7.517,17.54-7.517c9.673,0,17.541,3.373,17.541,7.517c0,1.271-0.783,2.736-2.236,4.117    c0.652,0.113,1.361,0.239,2.137,0.378C55.775,40.587,60,43.173,60,46.776c0,2.27-2.262,4.059-6.463,5.186    c-3.104,2.328-4.902,3.916-4.902,3.916H11.42z"
   id="path118" />
	</g>
	<g
   id="g120">
		<linearGradient
   id="SVGID_2_"
   gradientUnits="userSpaceOnUse"
   x1="30.0005"
   y1="62.4775"
   x2="30.0005"
   y2="-12.4701">
			<stop
   offset="0"
   style="stop-color:#D9D7D0"
   id="stop123" />
			<stop
   offset="0.0428"
   style="stop-color:#E6E5E0"
   id="stop125" />
			<stop
   offset="0.1176"
   style="stop-color:#F8F8F7"
   id="stop127" />
			<stop
   offset="0.1651"
   style="stop-color:#FFFFFF"
   id="stop129" />
		</linearGradient>
		<path
   fill="url(#SVGID_2_)"
   d="M11.42,56.188c0,0,0-2.611-0.008-7.619c-3.056-1.887-5.172-5.014-5.172-10.195    c0-7.052,3.346-12.114,9.945-15.047c0.615-0.273,1.177-0.52,1.693-0.741c-1.15-2.705-1.771-5.572-1.771-8.059    C16.109,6.414,22.34-0.187,30-0.187c7.66,0,13.892,6.601,13.892,14.714c0,2.486-0.621,5.354-1.771,8.06    c0.516,0.222,1.078,0.467,1.691,0.74c6.602,2.932,9.947,7.995,9.947,15.047c0,4.441-1.791,7.943-5.119,10.15    c-0.006,4.707-0.006,7.664-0.006,7.664H11.42z"
   id="path131" />
	</g>
	<g
   id="g133">
		<linearGradient
   id="SVGID_3_"
   gradientUnits="userSpaceOnUse"
   x1="11.9097"
   y1="25.8413"
   x2="48.0898"
   y2="25.8413">
			<stop
   offset="0"
   style="stop-color:#AFC700"
   id="stop136" />
			<stop
   offset="1"
   style="stop-color:#89BA17"
   id="stop138" />
		</linearGradient>
		<path
   fill="url(#SVGID_3_)"
   d="M30,27.077c4.541,0,8.222-7.342,8.222-12.337S34.541,5.695,30,5.695    c-4.541,0-8.223,4.05-8.223,9.045S25.459,27.077,30,27.077z M41.512,28.721c-2.621-1.164-4.229-1.812-5.428-2.164L30,33.655    l-6.085-7.099c-1.198,0.353-2.807,1-5.427,2.164c-3.777,1.679-6.579,4.275-6.579,9.866c0,7.719,8.1,7.398,18.091,7.398    c9.99,0,18.089,0.32,18.089-7.398C48.09,32.996,45.289,30.399,41.512,28.721z M25.167,37.766L21.92,28.58l1.604-0.682l5.51,6.62    L25.167,37.766z M34.934,37.766l-3.865-3.247l5.51-6.62l1.604,0.682L34.934,37.766z"
   id="path140" />
	</g>
</g></g>
</svg>