<?xml version="1.0" encoding="UTF-8" standalone="no"?>
<svg
   xmlns="http://www.w3.org/2000/svg"
   xmlns:oryx="http://www.b3mn.org/oryx"
   width="40"
   height="40"
   version="1.0">
  <defs></defs>
  <oryx:magnets>

	<oryx:magnet oryx:cx="30" oryx:cy="25" oryx:default="yes" />
  </oryx:magnets>

  <oryx:docker oryx:cx="30" oryx:cy="25" />
  <g pointer-events="fill">
<g
   id="Capa_2_1_"
   display="none">
	<g
   display="inline"
   id="g4">
		<g
   id="g6">
			<g
   id="g8">
				
					<radialGradient
   id="XMLID_3_"
   cx="3871.4062"
   cy="-4526.8975"
   r="96.3858"
   gradientTransform="matrix(0.223 0 0 -0.2812 -832.6203 -1245.3533)"
   gradientUnits="userSpaceOnUse">
					<stop
   offset="0"
   style="stop-color:#CCE7F4"
   id="stop11" />
					<stop
   offset="0.9693"
   style="stop-color:#CCE7F4"
   id="stop13" />
				</radialGradient>
				<rect
   id="XMLID_1_"
   x="-1.981"
   y="-1.782"
   fill="url(#XMLID_3_)"
   width="65.37"
   height="58.784" />
			</g>
		</g>
	</g>
</g>

<g
   id="g34">
	<g
   id="g36">
		<defs
   id="defs38">
			<filter
   id="Adobe_OpacityMaskFilter"
   filterUnits="userSpaceOnUse"
   x="0.122"
   y="28.001"
   width="60"
   height="27.379">
				<feFlood
   style="flood-color:white;flood-opacity:1"
   result="back"
   id="feFlood41" />
				<feBlend
   in="SourceGraphic"
   in2="back"
   mode="normal"
   id="feBlend43" />
			</filter>
		</defs>
		<mask
   maskUnits="userSpaceOnUse"
   x="0.122"
   y="28.001"
   width="60"
   height="27.379"
   id="SVGID_1_">
			<g
   filter="url(#Adobe_OpacityMaskFilter)"
   id="g46">
				<defs
   id="defs48">
					<filter
   id="Adobe_OpacityMaskFilter_1_"
   filterUnits="userSpaceOnUse"
   x="0.122"
   y="28.001"
   width="60"
   height="27.379">
						<feFlood
   style="flood-color:white;flood-opacity:1"
   result="back"
   id="feFlood51" />
						<feBlend
   in="SourceGraphic"
   in2="back"
   mode="normal"
   id="feBlend53" />
					</filter>
				</defs>
				<mask
   maskUnits="userSpaceOnUse"
   x="0.122"
   y="28.001"
   width="60"
   height="27.379"
   id="mask55">
					<g
   filter="url(#Adobe_OpacityMaskFilter_1_)"
   id="g57">
					</g>
				</mask>
				<linearGradient
   id="SVGID_2_"
   gradientUnits="userSpaceOnUse"
   x1="30.1226"
   y1="55.3809"
   x2="30.1226"
   y2="28.002">
					<stop
   offset="0"
   style="stop-color:#FFFFFF"
   id="stop60" />
					<stop
   offset="0.0731"
   style="stop-color:#F3F3F3"
   id="stop62" />
					<stop
   offset="0.2038"
   style="stop-color:#D5D5D5"
   id="stop64" />
					<stop
   offset="0.3771"
   style="stop-color:#A3A3A3"
   id="stop66" />
					<stop
   offset="0.5864"
   style="stop-color:#5D5D5D"
   id="stop68" />
					<stop
   offset="0.8241"
   style="stop-color:#060606"
   id="stop70" />
					<stop
   offset="0.8396"
   style="stop-color:#000000"
   id="stop72" />
				</linearGradient>
				<path
   mask="url(#SVGID_1_)"
   fill="url(#SVGID_2_)"
   d="M60.122,40.727c0-7.018-13.065-12.725-29.998-12.725      c-16.936,0-30.002,5.708-30.002,12.725c0,3.471,3.373,5.998,8.824,8.297l2.843,6.357h36.853l2.656-6.357      C56.75,46.725,60.122,44.197,60.122,40.727z"
   id="path74" />
			</g>
		</mask>
		<linearGradient
   id="SVGID_3_"
   gradientUnits="userSpaceOnUse"
   x1="30.1226"
   y1="55.3809"
   x2="30.1226"
   y2="28.002">
			<stop
   offset="0"
   style="stop-color:#868686"
   id="stop77" />
			<stop
   offset="0.7607"
   style="stop-color:#868686;stop-opacity:0"
   id="stop79" />
		</linearGradient>
		<path
   fill="url(#SVGID_3_)"
   d="M60.122,40.727c0-7.018-13.065-12.725-29.998-12.725c-16.936,0-30.002,5.708-30.002,12.725    c0,3.471,3.373,5.998,8.824,8.297l2.843,6.357h36.853l2.656-6.357C56.75,46.725,60.122,44.197,60.122,40.727z"
   id="path81" />
		<linearGradient
   id="SVGID_4_"
   gradientUnits="userSpaceOnUse"
   x1="30.1235"
   y1="56.0898"
   x2="30.1235"
   y2="-0.0874">
			<stop
   offset="0"
   style="stop-color:#D9D7D0"
   id="stop84" />
			<stop
   offset="0.0428"
   style="stop-color:#E6E5E0"
   id="stop86" />
			<stop
   offset="0.1176"
   style="stop-color:#F8F8F7"
   id="stop88" />
			<stop
   offset="0.1651"
   style="stop-color:#FFFFFF"
   id="stop90" />
		</linearGradient>
		<path
   fill="url(#SVGID_4_)"
   d="M56.234,26.023c0-14.398-11.714-26.111-26.11-26.111c-14.399,0-26.112,11.713-26.112,26.111    c0,7.122,2.867,13.579,7.503,18.293V56.09h37.215V44.318C53.367,39.602,56.234,33.145,56.234,26.023z"
   id="path92" />
	</g>
	<g
   id="g94">
		<linearGradient
   id="SVGID_5_"
   gradientUnits="userSpaceOnUse"
   x1="30.1216"
   y1="4.6924"
   x2="30.1216"
   y2="46.9386">
			<stop
   offset="0"
   style="stop-color:#AFC700"
   id="stop97" />
			<stop
   offset="1"
   style="stop-color:#89BA17"
   id="stop99" />
		</linearGradient>
		<path
   fill="url(#SVGID_5_)"
   d="M30.122,5.674c-11.045,0-20,8.955-20,20.001c0,11.045,8.955,20,20,20s20-8.955,20-20    C50.122,14.629,41.167,5.674,30.122,5.674z M30.122,42.475c-9.279,0-16.801-7.521-16.801-16.799c0-9.279,7.521-16.8,16.801-16.8    s16.802,7.521,16.802,16.8C46.924,34.953,39.401,42.475,30.122,42.475z"
   id="path101" />
		<linearGradient
   id="SVGID_6_"
   gradientUnits="userSpaceOnUse"
   x1="18.0146"
   y1="25.6753"
   x2="42.2314"
   y2="25.6753">
			<stop
   offset="0"
   style="stop-color:#AFC700"
   id="stop104" />
			<stop
   offset="1"
   style="stop-color:#89BA17"
   id="stop106" />
		</linearGradient>
		<circle
   fill="url(#SVGID_6_)"
   cx="30.123"
   cy="25.675"
   r="12.108"
   id="circle108" />
		<circle
   fill="#FFFFFF"
   cx="36.76"
   cy="18.891"
   r="4.324"
   id="circle110" />
	</g>
</g>  </g>

</svg>