<?xml version="1.0" encoding="UTF-8" standalone="no"?>
<svg
   xmlns="http://www.w3.org/2000/svg"
   xmlns:oryx="http://www.b3mn.org/oryx"
   width="40"
   height="40"
   version="1.0">
  <defs></defs>
  <oryx:magnets>

	<oryx:magnet oryx:cx="30" oryx:cy="25" oryx:default="yes" />
  </oryx:magnets>

  <oryx:docker oryx:cx="30" oryx:cy="25" />
  <g pointer-events="fill">
<g
   id="Capa_2_1_"
   display="none">
	<g
   display="inline"
   id="g4">
		<g
   id="g6">
			<g
   id="g8">
				
					<radialGradient
   id="XMLID_3_"
   cx="3871.4062"
   cy="-4526.8975"
   r="96.3858"
   gradientTransform="matrix(0.223 0 0 -0.2812 -832.6203 -1245.3533)"
   gradientUnits="userSpaceOnUse">
					<stop
   offset="0"
   style="stop-color:#CCE7F4"
   id="stop11" />
					<stop
   offset="0.9693"
   style="stop-color:#CCE7F4"
   id="stop13" />
				</radialGradient>
				<rect
   id="XMLID_1_"
   x="-1.981"
   y="-1.782"
   fill="url(#XMLID_3_)"
   width="65.37"
   height="58.784" />
			</g>
		</g>
	</g>
</g>

<g
   id="g28">
	<g
   id="g30">
		<linearGradient
   id="SVGID_1_"
   gradientUnits="userSpaceOnUse"
   x1="30.1221"
   y1="59.1514"
   x2="30.1221"
   y2="20.8625">
			<stop
   offset="0"
   style="stop-color:#868686"
   id="stop33" />
			<stop
   offset="0.454"
   style="stop-color:#868686;stop-opacity:0"
   id="stop35" />
		</linearGradient>
		<path
   fill="url(#SVGID_1_)"
   d="M11.542,55.938c0,0-2.225-2.008-4.89-3.891c-3.858-0.965-6.53-2.562-6.53-5.211    c0-3.602,4.224-6.188,12.558-7.686c0.776-0.141,1.485-0.266,2.138-0.379c-1.452-1.381-2.235-2.846-2.235-4.117    c0-4.145,7.868-7.518,17.54-7.518c9.672,0,17.542,3.373,17.542,7.518c0,1.271-0.783,2.736-2.236,4.117    c0.65,0.113,1.359,0.238,2.135,0.379c8.336,1.498,12.559,4.084,12.559,7.686c0,2.27-2.26,4.059-6.463,5.186    c-3.102,2.328-4.9,3.916-4.9,3.916H11.542z"
   id="path37" />
	</g>
	<g
   id="g39">
		<g
   id="g41">
			<linearGradient
   id="SVGID_2_"
   gradientUnits="userSpaceOnUse"
   x1="30.1235"
   y1="56.249"
   x2="30.1235"
   y2="-0.2466">
				<stop
   offset="0"
   style="stop-color:#D9D7D0"
   id="stop44" />
				<stop
   offset="0.0428"
   style="stop-color:#E6E5E0"
   id="stop46" />
				<stop
   offset="0.1176"
   style="stop-color:#F8F8F7"
   id="stop48" />
				<stop
   offset="0.1651"
   style="stop-color:#FFFFFF"
   id="stop50" />
			</linearGradient>
			<path
   fill="url(#SVGID_2_)"
   d="M54.213,38.644c0,4.649-1.906,8.294-5.447,10.549c-0.006,1.629-0.008,7.057-0.008,7.057     l-37.215-0.311c0,0-0.004-4.497-0.01-6.713c-3.573-2.253-5.499-5.91-5.499-10.582c0-4.91,1.59-8.881,4.75-11.851     c-0.21-0.319-0.4-0.659-0.56-1.021c-1.07-2.469-1.62-5.049-1.65-7.699c-0.71-0.73-1.24-1.64-1.51-2.66     c-0.561-2.06,0.04-4.27,1.55-5.78l5.32-5.33c1.14-1.14,2.67-1.76,4.239-1.76c0.521,0,1.04,0.07,1.551,0.21     c0.449,0.12,0.88,0.29,1.279,0.51c2.471-2.19,5.65-3.51,9.12-3.51c3.291,0,6.32,1.19,8.73,3.18c0.67-0.26,1.381-0.39,2.121-0.39     c0.26,0,0.52,0.02,0.779,0.05c1.051,0.14,2.25,0.31,3.35,0.48c0.15,0.01,0.301,0.03,0.451,0.06c2.01,0.32,3.729,1.65,4.539,3.52     c1.08,2.47,1.631,5.06,1.65,7.7c0.719,0.73,1.25,1.64,1.52,2.66c0.551,2.07-0.039,4.28-1.551,5.791l-3.17,3.17     C52.314,29.033,54.213,33.272,54.213,38.644z"
   id="path52" />
		</g>
	</g>
	<g
   id="g54">
		<g
   id="g56">
			<linearGradient
   id="SVGID_3_"
   gradientUnits="userSpaceOnUse"
   x1="30.1221"
   y1="1.2612"
   x2="30.1221"
   y2="54.8304">
				<stop
   offset="0"
   style="stop-color:#AFC700"
   id="stop59" />
				<stop
   offset="1"
   style="stop-color:#89BA17"
   id="stop61" />
			</linearGradient>
			<path
   fill="url(#SVGID_3_)"
   d="M30.123,27.138c4.542,0,8.223-7.342,8.223-12.336c0-4.995-3.682-9.045-8.223-9.045     c-4.541,0-8.223,4.05-8.223,9.045C21.9,19.796,25.582,27.138,30.123,27.138z M41.633,28.782     c-2.619-1.164-4.229-1.812-5.426-2.164l-6.084,7.098l-6.085-7.098c-1.198,0.352-2.807,1-5.427,2.164     c-3.777,1.678-6.579,4.275-6.579,9.865c0,7.719,8.1,7.4,18.091,7.4c9.991,0,18.09,0.318,18.09-7.4     C48.213,33.058,45.412,30.46,41.633,28.782z M25.29,37.827l-3.247-9.186l1.604-0.682l5.51,6.619L25.29,37.827z M35.057,37.827     l-3.867-3.248l5.51-6.619l1.604,0.682L35.057,37.827z"
   id="path63" />
		</g>
		<g
   id="g65">
			<linearGradient
   id="SVGID_4_"
   gradientUnits="userSpaceOnUse"
   x1="12.8579"
   y1="16.2158"
   x2="20.1265"
   y2="16.2158">
				<stop
   offset="0"
   style="stop-color:#AFC700"
   id="stop68" />
				<stop
   offset="1"
   style="stop-color:#89BA17"
   id="stop70" />
			</linearGradient>
			<path
   fill="url(#SVGID_4_)"
   d="M19.345,23.886c-1.268-1.923-1.953-4.251-1.786-6.723c0.046-0.667,0.156-1.314,0.318-1.941     l2.249,0.605l-1.95-7.281l-5.318,5.323l2.164,0.585c-0.209,0.81-0.354,1.646-0.413,2.51c-0.152,2.277,0.269,4.455,1.121,6.416     c0.064,0.01,0.124,0.004,0.19,0.016C17.026,23.566,18.269,23.745,19.345,23.886z"
   id="path72" />
			<linearGradient
   id="SVGID_5_"
   gradientUnits="userSpaceOnUse"
   x1="40.1973"
   y1="16.2158"
   x2="47.4668"
   y2="16.2158">
				<stop
   offset="0"
   style="stop-color:#AFC700"
   id="stop75" />
				<stop
   offset="1"
   style="stop-color:#89BA17"
   id="stop77" />
			</linearGradient>
			<path
   fill="url(#SVGID_5_)"
   d="M40.979,8.546c1.268,1.923,1.953,4.251,1.787,6.723c-0.047,0.667-0.156,1.314-0.318,1.941     l-2.25-0.605l1.951,7.281l5.318-5.323l-2.164-0.585c0.209-0.81,0.354-1.646,0.412-2.51c0.152-2.277-0.268-4.456-1.121-6.416     c-0.064-0.01-0.123-0.004-0.189-0.016C43.299,8.865,42.055,8.687,40.979,8.546z"
   id="path79" />
		</g>
	</g>
</g>  </g>

</svg>