<?xml version="1.0" encoding="UTF-8" standalone="no"?>
<svg
   xmlns="http://www.w3.org/2000/svg"
   xmlns:oryx="http://www.b3mn.org/oryx"
   width="40"
   height="40"
   version="1.0">
  <defs></defs>
  <oryx:magnets>

	<oryx:magnet oryx:cx="30" oryx:cy="25" oryx:default="yes" />
  </oryx:magnets>

  <oryx:docker oryx:cx="30" oryx:cy="25" />
  <g pointer-events="fill">
<g
   id="Capa_2_1_"
   display="none">
	<g
   display="inline"
   id="g4">
		<g
   id="g6">
			<g
   id="g8">
				
					<radialGradient
   id="XMLID_3_"
   cx="3871.4062"
   cy="-4526.8975"
   r="96.3858"
   gradientTransform="matrix(0.223 0 0 -0.2812 -832.6203 -1245.3533)"
   gradientUnits="userSpaceOnUse">
					<stop
   offset="0"
   style="stop-color:#CCE7F4"
   id="stop11" />
					<stop
   offset="0.9693"
   style="stop-color:#CCE7F4"
   id="stop13" />
				</radialGradient>
				<rect
   id="XMLID_1_"
   x="-1.981"
   y="-1.782"
   fill="url(#XMLID_3_)"
   width="65.37"
   height="58.784" />
			</g>
		</g>
	</g>
</g>

<g
   id="g73">
	<g
   id="g75">
		<defs
   id="defs77">
			<filter
   id="Adobe_OpacityMaskFilter"
   filterUnits="userSpaceOnUse"
   x="0"
   y="28.001"
   width="60"
   height="27.378">
				<feFlood
   style="flood-color:white;flood-opacity:1"
   result="back"
   id="feFlood80" />
				<feBlend
   in="SourceGraphic"
   in2="back"
   mode="normal"
   id="feBlend82" />
			</filter>
		</defs>
		<mask
   maskUnits="userSpaceOnUse"
   x="0"
   y="28.001"
   width="60"
   height="27.378"
   id="SVGID_1_">
			<g
   filter="url(#Adobe_OpacityMaskFilter)"
   id="g85">
				<defs
   id="defs87">
					<filter
   id="Adobe_OpacityMaskFilter_1_"
   filterUnits="userSpaceOnUse"
   x="0"
   y="28.001"
   width="60"
   height="27.378">
						<feFlood
   style="flood-color:white;flood-opacity:1"
   result="back"
   id="feFlood90" />
						<feBlend
   in="SourceGraphic"
   in2="back"
   mode="normal"
   id="feBlend92" />
					</filter>
				</defs>
				<mask
   maskUnits="userSpaceOnUse"
   x="0"
   y="28.001"
   width="60"
   height="27.378"
   id="mask94">
					<g
   filter="url(#Adobe_OpacityMaskFilter_1_)"
   id="g96">
					</g>
				</mask>
				<linearGradient
   id="SVGID_2_"
   gradientUnits="userSpaceOnUse"
   x1="30.0005"
   y1="55.3799"
   x2="30.0005"
   y2="28.002">
					<stop
   offset="0"
   style="stop-color:#FFFFFF"
   id="stop99" />
					<stop
   offset="0.0731"
   style="stop-color:#F3F3F3"
   id="stop101" />
					<stop
   offset="0.2038"
   style="stop-color:#D5D5D5"
   id="stop103" />
					<stop
   offset="0.3771"
   style="stop-color:#A3A3A3"
   id="stop105" />
					<stop
   offset="0.5864"
   style="stop-color:#5D5D5D"
   id="stop107" />
					<stop
   offset="0.8241"
   style="stop-color:#060606"
   id="stop109" />
					<stop
   offset="0.8396"
   style="stop-color:#000000"
   id="stop111" />
				</linearGradient>
				<path
   mask="url(#SVGID_1_)"
   fill="url(#SVGID_2_)"
   d="M60,40.726c0-7.016-13.065-12.724-29.998-12.724      C13.066,28.001,0,33.71,0,40.726c0,3.471,3.373,6,8.824,8.297l2.843,6.357H48.52l2.656-6.355C56.628,46.726,60,44.196,60,40.726      z"
   id="path113" />
			</g>
		</mask>
		<linearGradient
   id="SVGID_3_"
   gradientUnits="userSpaceOnUse"
   x1="30.0005"
   y1="55.3799"
   x2="30.0005"
   y2="28.002">
			<stop
   offset="0"
   style="stop-color:#868686"
   id="stop116" />
			<stop
   offset="0.7607"
   style="stop-color:#868686;stop-opacity:0"
   id="stop118" />
		</linearGradient>
		<path
   fill="url(#SVGID_3_)"
   d="M60,40.726c0-7.016-13.065-12.724-29.998-12.724C13.066,28.001,0,33.71,0,40.726    c0,3.471,3.373,6,8.824,8.297l2.843,6.357H48.52l2.656-6.355C56.628,46.726,60,44.196,60,40.726z"
   id="path120" />
		<linearGradient
   id="SVGID_4_"
   gradientUnits="userSpaceOnUse"
   x1="30.0015"
   y1="56.0908"
   x2="30.0015"
   y2="-0.0879">
			<stop
   offset="0"
   style="stop-color:#D9D7D0"
   id="stop123" />
			<stop
   offset="0.0428"
   style="stop-color:#E6E5E0"
   id="stop125" />
			<stop
   offset="0.1176"
   style="stop-color:#F8F8F7"
   id="stop127" />
			<stop
   offset="0.1651"
   style="stop-color:#FFFFFF"
   id="stop129" />
		</linearGradient>
		<path
   fill="url(#SVGID_4_)"
   d="M56.112,26.024c0-14.398-11.714-26.112-26.11-26.112C15.603-0.088,3.89,11.625,3.89,26.024    c0,7.12,2.867,13.579,7.503,18.293v11.773h37.215V44.317C53.245,39.603,56.112,33.144,56.112,26.024z"
   id="path131" />
	</g>
	<g
   id="g133">
		<defs
   id="defs135">
			<circle
   id="XMLID_5_"
   cx="29.973"
   cy="25.677"
   r="20" />
		</defs>
		<linearGradient
   id="XMLID_6_"
   gradientUnits="userSpaceOnUse"
   x1="9.9727"
   y1="25.6768"
   x2="49.9727"
   y2="25.6768">
			<stop
   offset="0"
   style="stop-color:#E5337F"
   id="stop139" />
			<stop
   offset="1"
   style="stop-color:#E30066"
   id="stop141" />
		</linearGradient>
		<use
   xlink:href="#XMLID_5_"
   overflow="visible"
   fill="url(#XMLID_6_)"
   id="use143" />
		<clipPath
   id="XMLID_8_">
			<use
   xlink:href="#XMLID_5_"
   overflow="visible"
   id="use146" />
		</clipPath>
		<path
   clip-path="url(#XMLID_8_)"
   fill="none"
   stroke="#FFFFFF"
   stroke-width="2.4203"
   stroke-miterlimit="10"
   d="M48.897,16.372    c0,15.891-12.882,28.77-28.77,28.77"
   id="path148" />
		<path
   clip-path="url(#XMLID_8_)"
   fill="none"
   stroke="#FFFFFF"
   stroke-width="2.4203"
   stroke-miterlimit="10"
   d="M48.612,36.606    C33.085,42.813,15.468,35.255,9.262,19.73"
   id="path150" />
		<path
   clip-path="url(#XMLID_8_)"
   fill="none"
   stroke="#FFFFFF"
   stroke-width="2.4203"
   stroke-miterlimit="10"
   d="M45.744,29.253    c-7.968-4.355-10.896-14.348-6.539-22.316"
   id="path152" />
		<path
   clip-path="url(#XMLID_8_)"
   fill="none"
   stroke="#FFFFFF"
   stroke-width="2.4203"
   stroke-miterlimit="10"
   d="M15.191,29.89    c8.572-11.509,24.856-13.886,36.364-5.314"
   id="path154" />
		<path
   clip-path="url(#XMLID_8_)"
   fill="none"
   stroke="#FFFFFF"
   stroke-width="2.4203"
   stroke-miterlimit="10"
   d="M21.842,5.248    c9.441,11.642,7.65,28.738-3.99,38.173"
   id="path156" />
	</g>
</g></g>
</svg>