<?xml version="1.0" encoding="UTF-8" standalone="no"?>
<svg
   xmlns="http://www.w3.org/2000/svg"
   xmlns:oryx="http://www.b3mn.org/oryx"
   width="40"
   height="40"
   version="1.0">
  <defs></defs>
  <oryx:magnets>

	<oryx:magnet oryx:cx="30" oryx:cy="25" oryx:default="yes" />
  </oryx:magnets>

  <oryx:docker oryx:cx="30" oryx:cy="25" />
  <g pointer-events="fill">
<g
   id="Capa_2_1_"
   display="none">
	<g
   display="inline"
   id="g4">
		<g
   id="g6">
			<g
   id="g8">
				
					<radialGradient
   id="XMLID_3_"
   cx="3871.4062"
   cy="-4526.8975"
   r="96.3858"
   gradientTransform="matrix(0.223 0 0 -0.2812 -832.6203 -1245.3533)"
   gradientUnits="userSpaceOnUse">
					<stop
   offset="0"
   style="stop-color:#CCE7F4"
   id="stop11" />
					<stop
   offset="0.9693"
   style="stop-color:#CCE7F4"
   id="stop13" />
				</radialGradient>
				<rect
   id="XMLID_1_"
   x="-1.981"
   y="-1.782"
   fill="url(#XMLID_3_)"
   width="65.37"
   height="58.784" />
			</g>
		</g>
	</g>
</g>


<g
   id="g52">
	<g
   id="g54">
		<linearGradient
   id="SVGID_1_"
   gradientUnits="userSpaceOnUse"
   x1="30.1226"
   y1="54.3174"
   x2="30.1226"
   y2="18.0186">
			<stop
   offset="0"
   style="stop-color:#868686"
   id="stop57" />
			<stop
   offset="0.454"
   style="stop-color:#868686;stop-opacity:0"
   id="stop59" />
		</linearGradient>
		<path
   fill="url(#SVGID_1_)"
   d="M58.201,46.343c-1.76,1.02-3.945,1.865-6.383,2.49c-1.41,2.184-3.598,5.484-3.598,5.484    l-36.162-0.199c0,0-2.889-2.814-3.847-3.996c-2.711-0.082-5.124-1.018-6.145-2.424c-0.564-0.764-5.271-7.646,2.396-12.428    c2.43-1.516,5.506-2.422,8.734-2.576c0.752-0.873,1.362-1.516,1.409-1.561c0.457-0.482,1.08-0.895,1.819-1.215    c0.013-0.008,0.024-0.014,0.036-0.02c0.271-0.188,0.587-0.367,0.938-0.533l18.046-8.507c0.142-0.064,0.282-0.129,0.424-0.181    c0.105-0.063,0.211-0.122,0.328-0.173l2.688-1.267c1.68-0.79,3.815-1.221,6.024-1.221c2.7,0,5.259,0.636,7.021,1.755l3.851,2.447    c3.323,2.115,2.889,5.314-0.963,7.14l-2.512,1.176c4.66,1.65,7.737,4.516,7.737,7.768c0,1.15-0.388,2.256-1.092,3.271    C60.761,43.06,60.443,45.038,58.201,46.343z"
   id="path61" />
		<linearGradient
   id="SVGID_2_"
   gradientUnits="userSpaceOnUse"
   x1="30.1216"
   y1="55.6357"
   x2="30.1216"
   y2="0.3662">
			<stop
   offset="0"
   style="stop-color:#D9D7D0"
   id="stop64" />
			<stop
   offset="0.0428"
   style="stop-color:#E6E5E0"
   id="stop66" />
			<stop
   offset="0.1176"
   style="stop-color:#F8F8F7"
   id="stop68" />
			<stop
   offset="0.1651"
   style="stop-color:#FFFFFF"
   id="stop70" />
		</linearGradient>
		<path
   fill="url(#SVGID_2_)"
   d="M53.52,43.495c-1.465,1.551-3.286,2.84-5.317,3.791c0.06,2.951,0.106,8.35,0.106,8.35    l-36.411-0.303c0,0,0.021-4.412-0.035-6.086c-2.259-0.123-4.27-1.549-5.12-3.688c-0.47-1.166-4.394-11.645,1.996-18.923    c2.024-2.309,4.588-3.688,7.279-3.924c0.626-1.33,1.135-2.309,1.174-2.377c0.381-0.734,0.9-1.359,1.517-1.85    c0.011-0.01,0.02-0.02,0.029-0.029c0.226-0.283,0.489-0.558,0.782-0.812L34.559,4.691c0.117-0.099,0.234-0.196,0.353-0.274    c0.088-0.098,0.176-0.187,0.273-0.265l2.24-1.927c1.399-1.204,3.18-1.859,5.021-1.859c2.25,0,4.383,0.969,5.85,2.671l3.21,3.729    c2.769,3.219,2.407,8.092-0.803,10.869l-2.094,1.791c3.885,2.515,6.448,6.879,6.448,11.83c0,1.75-0.323,3.434-0.91,4.98    C55.653,38.495,55.389,41.509,53.52,43.495z"
   id="path72" />
		<g
   id="g74">
			<g
   id="g76">
				
					<linearGradient
   id="SVGID_3_"
   gradientUnits="userSpaceOnUse"
   x1="36.5078"
   y1="120.6523"
   x2="57.2881"
   y2="120.6523"
   gradientTransform="matrix(0.9972 0.0744 -0.0744 0.9972 -4.1525 -106.7269)">
					<stop
   offset="0"
   style="stop-color:#E5337F"
   id="stop79" />
					<stop
   offset="1"
   style="stop-color:#E30066"
   id="stop81" />
				</linearGradient>
				<path
   fill="url(#SVGID_3_)"
   d="M23.227,20.319c-0.103,0.089-0.192,0.185-0.271,0.289c0.473,0.263,1.721,1.06,3.461,2.958      c1.699,1.857,2.253,3.033,2.421,3.494c0.041-0.028,0.082-0.052,0.121-0.083l15.346-13.216l-5.732-6.658L23.227,20.319z"
   id="path83" />
				
					<linearGradient
   id="SVGID_4_"
   gradientUnits="userSpaceOnUse"
   x1="51.6758"
   y1="111.5068"
   x2="60.5654"
   y2="111.5068"
   gradientTransform="matrix(0.9972 0.0744 -0.0744 0.9972 -4.1525 -106.7269)">
					<stop
   offset="0"
   style="stop-color:#E5337F"
   id="stop86" />
					<stop
   offset="1"
   style="stop-color:#E30066"
   id="stop88" />
				</linearGradient>
				<path
   fill="url(#SVGID_4_)"
   d="M41.498,4.583l-2.283,1.965l5.733,6.657l2.283-1.964c0.781-0.676,0.87-1.868,0.195-2.652      l-3.278-3.807C43.475,4,42.281,3.912,41.498,4.583z"
   id="path90" />
			</g>
			<g
   id="g92">
				
					<linearGradient
   id="SVGID_5_"
   gradientUnits="userSpaceOnUse"
   x1="33.7842"
   y1="129.9248"
   x2="42.0381"
   y2="129.9248"
   gradientTransform="matrix(0.9972 0.0744 -0.0744 0.9972 -4.1525 -106.7269)">
					<stop
   offset="0"
   style="stop-color:#E5337F"
   id="stop95" />
					<stop
   offset="1"
   style="stop-color:#E30066"
   id="stop97" />
				</linearGradient>
				<path
   fill="url(#SVGID_5_)"
   d="M25.654,24.173c-2.091-2.277-3.426-2.859-3.426-2.859s-1.452,2.793-2.449,5.271      c0.682,0.464,1.833,1.449,2.647,3.162c2.552-0.812,5.551-2.107,5.551-2.107S27.743,26.453,25.654,24.173z"
   id="path99" />
			</g>
			
				<linearGradient
   id="SVGID_6_"
   gradientUnits="userSpaceOnUse"
   x1="25.2344"
   y1="139.4814"
   x2="36.5078"
   y2="139.4814"
   gradientTransform="matrix(0.9972 0.0744 -0.0744 0.9972 -4.1525 -106.7269)">
				<stop
   offset="0"
   style="stop-color:#E5337F"
   id="stop102" />
				<stop
   offset="1"
   style="stop-color:#E30066"
   id="stop104" />
			</linearGradient>
			<path
   fill="url(#SVGID_6_)"
   d="M20.316,28.722c2.688,2.852,2.104,7.576-1.158,8.854c-3.263,1.277-6.163,0.162-7.365,4.527     c0,0-3.31-8.273,0.981-13.164C15.392,25.956,18.345,26.632,20.316,28.722z"
   id="path106" />
			<g
   id="g108">
				<linearGradient
   id="SVGID_7_"
   gradientUnits="userSpaceOnUse"
   x1="41.2148"
   y1="20.9019"
   x2="41.2148"
   y2="38.6388">
					<stop
   offset="0"
   style="stop-color:#E5337F"
   id="stop111" />
					<stop
   offset="1"
   style="stop-color:#E30066"
   id="stop113" />
				</linearGradient>
				<path
   fill="url(#SVGID_7_)"
   d="M41.215,38.108c-4.63,0-8.396-3.768-8.396-8.398c0-4.629,3.766-8.396,8.396-8.396      s8.396,3.767,8.396,8.396C49.611,34.341,45.845,38.108,41.215,38.108z M41.215,23.768c-3.274,0-5.943,2.667-5.943,5.942      c0,3.277,2.666,5.943,5.943,5.943s5.943-2.666,5.943-5.943C47.158,26.434,44.492,23.768,41.215,23.768z"
   id="path115" />
				
					<linearGradient
   id="SVGID_8_"
   gradientUnits="userSpaceOnUse"
   x1="65.6875"
   y1="274.1104"
   x2="68.7373"
   y2="274.1104"
   gradientTransform="matrix(0.9845 0.1754 -0.1754 0.9845 23.033 -253.65)">
					<stop
   offset="0"
   style="stop-color:#E5337F"
   id="stop118" />
					<stop
   offset="1"
   style="stop-color:#E30066"
   id="stop120" />
				</linearGradient>
				<path
   fill="url(#SVGID_8_)"
   d="M40.882,31.464c-0.559-0.1-0.958-0.584-0.951-1.152l0.079-4.652      c0.003-0.31,0.127-0.598,0.349-0.813c0.221-0.216,0.515-0.331,0.822-0.327c0.032,0.001,0.153,0.013,0.186,0.018      c0.561,0.102,0.961,0.586,0.954,1.154l-0.079,4.652c-0.003,0.307-0.128,0.596-0.348,0.811c-0.222,0.217-0.513,0.332-0.823,0.328      C41.04,31.481,40.915,31.47,40.882,31.464z"
   id="path122" />
				<linearGradient
   id="SVGID_9_"
   gradientUnits="userSpaceOnUse"
   x1="39.9316"
   y1="30.0391"
   x2="45.7158"
   y2="30.0391">
					<stop
   offset="0"
   style="stop-color:#E5337F"
   id="stop125" />
					<stop
   offset="1"
   style="stop-color:#E30066"
   id="stop127" />
				</linearGradient>
				<path
   fill="url(#SVGID_9_)"
   d="M41.086,31.481c-0.569,0-1.05-0.408-1.139-0.971c-0.051-0.303,0.021-0.607,0.2-0.859      c0.179-0.25,0.446-0.416,0.751-0.467l3.474-0.57c0.031-0.006,0.155-0.018,0.188-0.018c0.567,0,1.047,0.408,1.14,0.969      c0.104,0.629-0.325,1.227-0.953,1.328l-3.472,0.572C41.243,31.472,41.119,31.481,41.086,31.481z"
   id="path129" />
			</g>
		</g>
		<linearGradient
   id="SVGID_10_"
   gradientUnits="userSpaceOnUse"
   x1="31.7373"
   y1="32.291"
   x2="31.8271"
   y2="32.291">
			<stop
   offset="0"
   style="stop-color:#E5337F"
   id="stop132" />
			<stop
   offset="1"
   style="stop-color:#E30066"
   id="stop134" />
		</linearGradient>
		<path
   fill="url(#SVGID_10_)"
   d="M31.827,32.267c-0.03,0.02-0.06,0.029-0.09,0.049c0.021-0.02,0.05-0.039,0.07-0.049    C31.817,32.267,31.817,32.267,31.827,32.267z"
   id="path136" />
		<linearGradient
   id="SVGID_11_"
   gradientUnits="userSpaceOnUse"
   x1="16.4766"
   y1="39.9131"
   x2="49.6777"
   y2="39.9131">
			<stop
   offset="0"
   style="stop-color:#E5337F"
   id="stop139" />
			<stop
   offset="1"
   style="stop-color:#E30066"
   id="stop141" />
		</linearGradient>
		<path
   fill="url(#SVGID_11_)"
   d="M16.477,42.044c1.97-2.211,4.873-3.576,7.893-4.062c1.516-0.268,3.077-0.27,4.609-0.09    c1.531,0.215,2.866,0.482,4.289,0.729c2.798,0.504,5.537,0.994,8.263,1.07c2.724,0.064,5.436-0.441,8.147-1.598    c-2.023,2.143-4.994,3.459-8.02,3.805c-3.035,0.391-6.038,0.021-8.895-0.488c-1.411-0.256-2.891-0.588-4.196-0.867    c-1.312-0.252-2.646-0.373-3.997-0.367C21.875,40.228,19.123,40.806,16.477,42.044z"
   id="path143" />
		<g
   id="g145">
			<g
   id="g147">
				<linearGradient
   id="SVGID_12_"
   gradientUnits="userSpaceOnUse"
   x1="31.7373"
   y1="32.291"
   x2="31.8271"
   y2="32.291">
					<stop
   offset="0"
   style="stop-color:#E5337F"
   id="stop150" />
					<stop
   offset="1"
   style="stop-color:#E30066"
   id="stop152" />
				</linearGradient>
				<path
   fill="url(#SVGID_12_)"
   d="M31.827,32.267c-0.03,0.02-0.06,0.029-0.09,0.049c0.021-0.02,0.05-0.039,0.07-0.049      C31.817,32.267,31.817,32.267,31.827,32.267z"
   id="path154" />
				
					<linearGradient
   id="SVGID_13_"
   gradientUnits="userSpaceOnUse"
   x1="36.5078"
   y1="120.6523"
   x2="57.2881"
   y2="120.6523"
   gradientTransform="matrix(0.9972 0.0744 -0.0744 0.9972 -4.1525 -106.7269)">
					<stop
   offset="0"
   style="stop-color:#E5337F"
   id="stop157" />
					<stop
   offset="1"
   style="stop-color:#E30066"
   id="stop159" />
				</linearGradient>
				<path
   fill="url(#SVGID_13_)"
   d="M23.227,20.319c-0.103,0.089-0.192,0.185-0.271,0.289c0.473,0.263,1.721,1.06,3.461,2.958      c1.699,1.857,2.253,3.033,2.421,3.494c0.041-0.028,0.082-0.052,0.121-0.083l15.346-13.216l-5.732-6.658L23.227,20.319z"
   id="path161" />
				
					<linearGradient
   id="SVGID_14_"
   gradientUnits="userSpaceOnUse"
   x1="51.6758"
   y1="111.5068"
   x2="60.5654"
   y2="111.5068"
   gradientTransform="matrix(0.9972 0.0744 -0.0744 0.9972 -4.1525 -106.7269)">
					<stop
   offset="0"
   style="stop-color:#E5337F"
   id="stop164" />
					<stop
   offset="1"
   style="stop-color:#E30066"
   id="stop166" />
				</linearGradient>
				<path
   fill="url(#SVGID_14_)"
   d="M41.498,4.583l-2.283,1.965l5.733,6.657l2.283-1.964c0.781-0.676,0.87-1.868,0.195-2.652      l-3.278-3.807C43.475,4,42.281,3.912,41.498,4.583z"
   id="path168" />
			</g>
			<g
   id="g170">
				
					<linearGradient
   id="SVGID_15_"
   gradientUnits="userSpaceOnUse"
   x1="33.7842"
   y1="129.9248"
   x2="42.0381"
   y2="129.9248"
   gradientTransform="matrix(0.9972 0.0744 -0.0744 0.9972 -4.1525 -106.7269)">
					<stop
   offset="0"
   style="stop-color:#E5337F"
   id="stop173" />
					<stop
   offset="1"
   style="stop-color:#E30066"
   id="stop175" />
				</linearGradient>
				<path
   fill="url(#SVGID_15_)"
   d="M25.654,24.173c-2.091-2.277-3.426-2.859-3.426-2.859s-1.452,2.793-2.449,5.271      c0.682,0.464,1.833,1.449,2.647,3.162c2.552-0.812,5.551-2.107,5.551-2.107S27.743,26.453,25.654,24.173z"
   id="path177" />
			</g>
		</g>
	</g>
</g>

</g>
</svg>