<?xml version="1.0" encoding="UTF-8" standalone="no"?>
<svg
   xmlns="http://www.w3.org/2000/svg"
   xmlns:oryx="http://www.b3mn.org/oryx"
   width="40"
   height="40"
   version="1.0">
  <defs></defs>
  <oryx:magnets>

	<oryx:magnet oryx:cx="30" oryx:cy="25" oryx:default="yes" />
  </oryx:magnets>

  <oryx:docker oryx:cx="30" oryx:cy="25" />
  <g pointer-events="fill">
<g
   id="Capa_2_1_"
   display="none">
	<g
   display="inline"
   id="g4">
		<g
   id="g6">
			<g
   id="g8">
				
					<radialGradient
   id="XMLID_3_"
   cx="3871.4062"
   cy="-4526.8975"
   r="96.3858"
   gradientTransform="matrix(0.223 0 0 -0.2812 -832.6203 -1245.3533)"
   gradientUnits="userSpaceOnUse">
					<stop
   offset="0"
   style="stop-color:#CCE7F4"
   id="stop11" />
					<stop
   offset="0.9693"
   style="stop-color:#CCE7F4"
   id="stop13" />
				</radialGradient>
				<rect
   id="XMLID_1_"
   x="-1.981"
   y="-1.782"
   fill="url(#XMLID_3_)"
   width="65.37"
   height="58.784" />
			</g>
		</g>
	</g>
</g>
<g
   id="g16">
	<g
   id="g18">
		<g
   id="g20">
			<linearGradient
   id="SVGID_1_"
   gradientUnits="userSpaceOnUse"
   x1="30.1226"
   y1="57.4678"
   x2="30.1226"
   y2="21.0345">
				<stop
   offset="0"
   style="stop-color:#868686"
   id="stop23" />
				<stop
   offset="0.681"
   style="stop-color:#868686;stop-opacity:0"
   id="stop25" />
			</linearGradient>
			<path
   fill="url(#SVGID_1_)"
   d="M19.125,55.712c0,0-2.044-2.232-3.758-5.293c-6.979-0.635-12.245-3.385-12.245-6.668V32.616     c0-3.756,6.877-6.81,15.33-6.81H41.79c8.454,0,15.332,3.054,15.332,6.81v11.135c0,3.406-5.662,6.236-13.025,6.73     c-1.466,2.779-3.366,5.23-3.366,5.23H19.125z"
   id="path27" />
		</g>
	</g>
	<g
   id="g29">
		<g
   id="g31">
			<linearGradient
   id="SVGID_2_"
   gradientUnits="userSpaceOnUse"
   x1="30.1226"
   y1="59.3516"
   x2="30.1226"
   y2="-9.0095">
				<stop
   offset="0"
   style="stop-color:#D9D7D0"
   id="stop34" />
				<stop
   offset="0.0428"
   style="stop-color:#E6E5E0"
   id="stop36" />
				<stop
   offset="0.1176"
   style="stop-color:#F8F8F7"
   id="stop38" />
				<stop
   offset="0.1651"
   style="stop-color:#FFFFFF"
   id="stop40" />
			</linearGradient>
			<path
   fill="url(#SVGID_2_)"
   d="M18.357,56.058c0,0-0.023-6.848-0.031-9.93C12.51,44.935,8.122,39.776,8.122,33.612V12.72     c0-7.045,5.73-12.775,12.775-12.775h18.448c7.045,0,12.776,5.73,12.776,12.775v20.892c0,6.391-4.719,11.701-10.854,12.631     c0.027,2.25,0.12,9.814,0.12,9.814H18.357z"
   id="path42" />
		</g>
	</g>
	<g
   id="g44">
		<linearGradient
   id="SVGID_3_"
   gradientUnits="userSpaceOnUse"
   x1="30.1216"
   y1="4.7676"
   x2="30.1216"
   y2="47.5477">
			<stop
   offset="0"
   style="stop-color:#E5337F"
   id="stop47" />
			<stop
   offset="1"
   style="stop-color:#E30066"
   id="stop49" />
		</linearGradient>
		<path
   fill="url(#SVGID_3_)"
   d="M41.687,6.007v1.195c0,0.092-0.073,0.165-0.164,0.165h-1.711c-0.092,0-0.165-0.073-0.165-0.165    V6.007H20.598v1.195c0,0.092-0.074,0.165-0.165,0.165h-1.711c-0.091,0-0.165-0.073-0.165-0.165V6.007h-1.361v34.015h1.361v-0.516    c0-0.092,0.074-0.166,0.165-0.166h1.711c0.091,0,0.165,0.074,0.165,0.166v0.516h19.049v-0.516c0-0.092,0.073-0.166,0.165-0.166    h1.711c0.091,0,0.164,0.074,0.164,0.166v0.516h1.361V6.007H41.687z M20.598,37.815c0,0.092-0.074,0.166-0.165,0.166h-1.711    c-0.091,0-0.165-0.074-0.165-0.166v-1.711c0-0.09,0.074-0.164,0.165-0.164h1.711c0.091,0,0.165,0.074,0.165,0.164V37.815z     M20.598,34.415c0,0.092-0.074,0.164-0.165,0.164h-1.711c-0.091,0-0.165-0.072-0.165-0.164v-1.711    c0-0.092,0.074-0.164,0.165-0.164h1.711c0.091,0,0.165,0.072,0.165,0.164V34.415z M20.598,31.013c0,0.092-0.074,0.166-0.165,0.166    h-1.711c-0.091,0-0.165-0.074-0.165-0.166v-1.711c0-0.09,0.074-0.164,0.165-0.164h1.711c0.091,0,0.165,0.074,0.165,0.164V31.013z     M20.598,27.612c0,0.091-0.074,0.165-0.165,0.165h-1.711c-0.091,0-0.165-0.074-0.165-0.165v-1.711    c0-0.092,0.074-0.165,0.165-0.165h1.711c0.091,0,0.165,0.073,0.165,0.165V27.612z M20.598,24.21c0,0.091-0.074,0.165-0.165,0.165    h-1.711c-0.091,0-0.165-0.074-0.165-0.165V22.5c0-0.092,0.074-0.165,0.165-0.165h1.711c0.091,0,0.165,0.073,0.165,0.165V24.21z     M20.598,20.809c0,0.09-0.074,0.164-0.165,0.164h-1.711c-0.091,0-0.165-0.074-0.165-0.164v-1.712c0-0.091,0.074-0.165,0.165-0.165    h1.711c0.091,0,0.165,0.074,0.165,0.165V20.809z M20.598,17.408c0,0.091-0.074,0.165-0.165,0.165h-1.711    c-0.091,0-0.165-0.074-0.165-0.165v-1.712c0-0.091,0.074-0.164,0.165-0.164h1.711c0.091,0,0.165,0.073,0.165,0.164V17.408z     M20.598,14.006c0,0.091-0.074,0.164-0.165,0.164h-1.711c-0.091,0-0.165-0.073-0.165-0.164v-1.712    c0-0.091,0.074-0.165,0.165-0.165h1.711c0.091,0,0.165,0.074,0.165,0.165V14.006z M20.598,10.605c0,0.091-0.074,0.164-0.165,0.164    h-1.711c-0.091,0-0.165-0.073-0.165-0.164V8.893c0-0.091,0.074-0.165,0.165-0.165h1.711c0.091,0,0.165,0.074,0.165,0.165V10.605z     M37.604,36.62c0,0.752-0.608,1.361-1.36,1.361H23.999c-0.752,0-1.36-0.609-1.36-1.361V25.736c0-0.751,0.608-1.36,1.36-1.36    h12.245c0.752,0,1.36,0.609,1.36,1.36V36.62z M37.604,20.293c0,0.751-0.608,1.36-1.36,1.36H23.999c-0.752,0-1.36-0.609-1.36-1.36    V9.409c0-0.751,0.608-1.36,1.36-1.36h12.245c0.752,0,1.36,0.609,1.36,1.36V20.293z M41.687,37.815    c0,0.092-0.073,0.166-0.164,0.166h-1.711c-0.092,0-0.165-0.074-0.165-0.166v-1.711c0-0.09,0.073-0.164,0.165-0.164h1.711    c0.091,0,0.164,0.074,0.164,0.164V37.815z M41.687,34.415c0,0.092-0.073,0.164-0.164,0.164h-1.711    c-0.092,0-0.165-0.072-0.165-0.164v-1.711c0-0.092,0.073-0.164,0.165-0.164h1.711c0.091,0,0.164,0.072,0.164,0.164V34.415z     M41.687,31.013c0,0.092-0.073,0.166-0.164,0.166h-1.711c-0.092,0-0.165-0.074-0.165-0.166v-1.711c0-0.09,0.073-0.164,0.165-0.164    h1.711c0.091,0,0.164,0.074,0.164,0.164V31.013z M41.687,27.612c0,0.091-0.073,0.165-0.164,0.165h-1.711    c-0.092,0-0.165-0.074-0.165-0.165v-1.711c0-0.092,0.073-0.165,0.165-0.165h1.711c0.091,0,0.164,0.073,0.164,0.165V27.612z     M41.687,24.21c0,0.091-0.073,0.165-0.164,0.165h-1.711c-0.092,0-0.165-0.074-0.165-0.165V22.5c0-0.092,0.073-0.165,0.165-0.165    h1.711c0.091,0,0.164,0.073,0.164,0.165V24.21z M41.687,20.809c0,0.09-0.073,0.164-0.164,0.164h-1.711    c-0.092,0-0.165-0.074-0.165-0.164v-1.712c0-0.091,0.073-0.165,0.165-0.165h1.711c0.091,0,0.164,0.074,0.164,0.165V20.809z     M41.687,17.408c0,0.091-0.073,0.165-0.164,0.165h-1.711c-0.092,0-0.165-0.074-0.165-0.165v-1.712    c0-0.091,0.073-0.164,0.165-0.164h1.711c0.091,0,0.164,0.073,0.164,0.164V17.408z M41.687,14.006c0,0.091-0.073,0.164-0.164,0.164    h-1.711c-0.092,0-0.165-0.073-0.165-0.164v-1.712c0-0.091,0.073-0.165,0.165-0.165h1.711c0.091,0,0.164,0.074,0.164,0.165V14.006z     M41.687,10.605c0,0.091-0.073,0.164-0.164,0.164h-1.711c-0.092,0-0.165-0.073-0.165-0.164V8.893c0-0.091,0.073-0.165,0.165-0.165    h1.711c0.091,0,0.164,0.074,0.164,0.165V10.605z"
   id="path51" />
	</g>
</g>





</g>
</svg>