<?xml version="1.0" encoding="UTF-8" standalone="no"?>
<svg
   xmlns="http://www.w3.org/2000/svg"
   xmlns:oryx="http://www.b3mn.org/oryx"
   width="40"
   height="40"
   version="1.0">
  <defs></defs>
  <oryx:magnets>

	<oryx:magnet oryx:cx="30" oryx:cy="25" oryx:default="yes" />
  </oryx:magnets>

  <oryx:docker oryx:cx="30" oryx:cy="25" />
  <g pointer-events="fill">
<g
   id="Capa_2_1_"
   display="none">
	<g
   display="inline"
   id="g4">
		<g
   id="g6">
			<g
   id="g8">
				
					<radialGradient
   id="XMLID_3_"
   cx="3871.4062"
   cy="-4526.8975"
   r="96.3858"
   gradientTransform="matrix(0.223 0 0 -0.2812 -832.6203 -1245.3533)"
   gradientUnits="userSpaceOnUse">
					<stop
   offset="0"
   style="stop-color:#CCE7F4"
   id="stop11" />
					<stop
   offset="0.9693"
   style="stop-color:#CCE7F4"
   id="stop13" />
				</radialGradient>
				<rect
   id="XMLID_1_"
   x="-1.981"
   y="-1.782"
   fill="url(#XMLID_3_)"
   width="65.37"
   height="58.784" />
			</g>
		</g>
	</g>
</g>

<g
   id="g50">
	<g
   id="g52">
		<defs
   id="defs54">
			<filter
   id="Adobe_OpacityMaskFilter"
   filterUnits="userSpaceOnUse"
   x="0.122"
   y="28.002"
   width="60"
   height="27.378">
				<feFlood
   style="flood-color:white;flood-opacity:1"
   result="back"
   id="feFlood57" />
				<feBlend
   in="SourceGraphic"
   in2="back"
   mode="normal"
   id="feBlend59" />
			</filter>
		</defs>
		<mask
   maskUnits="userSpaceOnUse"
   x="0.122"
   y="28.002"
   width="60"
   height="27.378"
   id="SVGID_1_">
			<g
   filter="url(#Adobe_OpacityMaskFilter)"
   id="g62">
				<defs
   id="defs64">
					<filter
   id="Adobe_OpacityMaskFilter_1_"
   filterUnits="userSpaceOnUse"
   x="0.122"
   y="28.002"
   width="60"
   height="27.378">
						<feFlood
   style="flood-color:white;flood-opacity:1"
   result="back"
   id="feFlood67" />
						<feBlend
   in="SourceGraphic"
   in2="back"
   mode="normal"
   id="feBlend69" />
					</filter>
				</defs>
				<mask
   maskUnits="userSpaceOnUse"
   x="0.122"
   y="28.002"
   width="60"
   height="27.378"
   id="mask71">
					<g
   filter="url(#Adobe_OpacityMaskFilter_1_)"
   id="g73">
					</g>
				</mask>
				<linearGradient
   id="SVGID_2_"
   gradientUnits="userSpaceOnUse"
   x1="30.1226"
   y1="55.3799"
   x2="30.1226"
   y2="28.0024">
					<stop
   offset="0"
   style="stop-color:#FFFFFF"
   id="stop76" />
					<stop
   offset="0.0731"
   style="stop-color:#F3F3F3"
   id="stop78" />
					<stop
   offset="0.2038"
   style="stop-color:#D5D5D5"
   id="stop80" />
					<stop
   offset="0.3771"
   style="stop-color:#A3A3A3"
   id="stop82" />
					<stop
   offset="0.5864"
   style="stop-color:#5D5D5D"
   id="stop84" />
					<stop
   offset="0.8241"
   style="stop-color:#060606"
   id="stop86" />
					<stop
   offset="0.8396"
   style="stop-color:#000000"
   id="stop88" />
				</linearGradient>
				<path
   mask="url(#SVGID_1_)"
   fill="url(#SVGID_2_)"
   d="M60.122,40.727c0-7.018-13.065-12.725-29.998-12.725      c-16.936,0-30.002,5.707-30.002,12.725c0,3.47,3.373,5.998,8.824,8.297l2.843,6.356h36.853l2.656-6.356      C56.75,46.725,60.122,44.196,60.122,40.727z"
   id="path90" />
			</g>
		</mask>
		<linearGradient
   id="SVGID_3_"
   gradientUnits="userSpaceOnUse"
   x1="30.1226"
   y1="55.3799"
   x2="30.1226"
   y2="28.0024">
			<stop
   offset="0"
   style="stop-color:#868686"
   id="stop93" />
			<stop
   offset="0.7607"
   style="stop-color:#868686;stop-opacity:0"
   id="stop95" />
		</linearGradient>
		<path
   fill="url(#SVGID_3_)"
   d="M60.122,40.727c0-7.018-13.065-12.725-29.998-12.725c-16.936,0-30.002,5.707-30.002,12.725    c0,3.47,3.373,5.998,8.824,8.297l2.843,6.356h36.853l2.656-6.356C56.75,46.725,60.122,44.196,60.122,40.727z"
   id="path97" />
		<linearGradient
   id="SVGID_4_"
   gradientUnits="userSpaceOnUse"
   x1="30.1235"
   y1="56.0898"
   x2="30.1235"
   y2="-0.0874">
			<stop
   offset="0"
   style="stop-color:#D9D7D0"
   id="stop100" />
			<stop
   offset="0.0428"
   style="stop-color:#E6E5E0"
   id="stop102" />
			<stop
   offset="0.1176"
   style="stop-color:#F8F8F7"
   id="stop104" />
			<stop
   offset="0.1651"
   style="stop-color:#FFFFFF"
   id="stop106" />
		</linearGradient>
		<path
   fill="url(#SVGID_4_)"
   d="M56.234,26.023c0-14.398-11.714-26.111-26.11-26.111c-14.399,0-26.112,11.713-26.112,26.111    c0,7.12,2.867,13.578,7.503,18.293V56.09h37.215V44.318C53.367,39.602,56.234,33.144,56.234,26.023z"
   id="path108" />
	</g>
	<g
   id="g110">
		<linearGradient
   id="SVGID_5_"
   gradientUnits="userSpaceOnUse"
   x1="30.1216"
   y1="4.6924"
   x2="30.1216"
   y2="46.9386">
			<stop
   offset="0"
   style="stop-color:#AFC700"
   id="stop113" />
			<stop
   offset="1"
   style="stop-color:#89BA17"
   id="stop115" />
		</linearGradient>
		<path
   fill="url(#SVGID_5_)"
   d="M30.122,5.674c-11.045,0-20,8.955-20,20.001s8.955,20.001,20,20.001s20-8.955,20-20.001    S41.167,5.674,30.122,5.674z M30.122,42.475c-9.279,0-16.801-7.521-16.801-16.8s7.521-16.8,16.801-16.8s16.802,7.521,16.802,16.8    S39.401,42.475,30.122,42.475z"
   id="path117" />
		<g
   id="g119">
			<linearGradient
   id="SVGID_6_"
   gradientUnits="userSpaceOnUse"
   x1="33.4297"
   y1="20.0679"
   x2="38.3955"
   y2="20.0679">
				<stop
   offset="0"
   style="stop-color:#AFC700"
   id="stop122" />
				<stop
   offset="1"
   style="stop-color:#89BA17"
   id="stop124" />
			</linearGradient>
			<path
   fill="url(#SVGID_6_)"
   d="M35.92,17.593c0.688,0,1.272,0.24,1.754,0.722c0.48,0.482,0.722,1.066,0.722,1.754     c0,0.688-0.241,1.272-0.722,1.753c-0.481,0.481-1.066,0.722-1.754,0.722s-1.273-0.24-1.761-0.722     c-0.486-0.48-0.729-1.064-0.729-1.753c0-0.688,0.243-1.271,0.729-1.754C34.646,17.833,35.232,17.593,35.92,17.593z"
   id="path126" />
			<linearGradient
   id="SVGID_7_"
   gradientUnits="userSpaceOnUse"
   x1="22.9111"
   y1="32.0049"
   x2="37.335"
   y2="32.0049">
				<stop
   offset="0"
   style="stop-color:#AFC700"
   id="stop129" />
				<stop
   offset="1"
   style="stop-color:#89BA17"
   id="stop131" />
			</linearGradient>
			<path
   fill="url(#SVGID_7_)"
   d="M30.145,24.815c1.997,0,3.695,0.698,5.095,2.098c1.396,1.4,2.096,3.097,2.096,5.094     c0,2-0.7,3.696-2.096,5.091c-1.399,1.399-3.098,2.098-5.095,2.098c-1.998,0-3.699-0.698-5.115-2.098     c-1.413-1.395-2.118-3.091-2.118-5.091c0-1.997,0.705-3.693,2.118-5.094C26.445,25.514,28.146,24.815,30.145,24.815z"
   id="path133" />
			<linearGradient
   id="SVGID_8_"
   gradientUnits="userSpaceOnUse"
   x1="21.6533"
   y1="20.0679"
   x2="26.6191"
   y2="20.0679">
				<stop
   offset="0"
   style="stop-color:#AFC700"
   id="stop136" />
				<stop
   offset="1"
   style="stop-color:#89BA17"
   id="stop138" />
			</linearGradient>
			<path
   fill="url(#SVGID_8_)"
   d="M24.144,17.593c0.688,0,1.272,0.24,1.754,0.722c0.48,0.482,0.722,1.066,0.722,1.754     c0,0.688-0.241,1.272-0.722,1.753c-0.481,0.481-1.066,0.722-1.754,0.722s-1.273-0.24-1.761-0.722     c-0.486-0.48-0.729-1.064-0.729-1.753c0-0.688,0.243-1.271,0.729-1.754C22.87,17.833,23.456,17.593,24.144,17.593z"
   id="path140" />
		</g>
	</g>
</g>
</g>
</svg>