<?xml version="1.0" encoding="UTF-8" standalone="no"?>
<svg
   xmlns="http://www.w3.org/2000/svg"
   xmlns:oryx="http://www.b3mn.org/oryx"
   width="40"
   height="40"
   version="1.0">
  <defs></defs>
  <oryx:magnets>

	<oryx:magnet oryx:cx="30" oryx:cy="25" oryx:default="yes" />
  </oryx:magnets>

  <oryx:docker oryx:cx="30" oryx:cy="25" />
  <g pointer-events="fill">
<g
   id="Capa_2_1_"
   display="none">
	<g
   display="inline"
   id="g4">
		<g
   id="g6">
			<g
   id="g8">
				
					<radialGradient
   id="XMLID_3_"
   cx="3871.4062"
   cy="-4526.8975"
   r="96.3858"
   gradientTransform="matrix(0.223 0 0 -0.2812 -832.6203 -1245.3533)"
   gradientUnits="userSpaceOnUse">
					<stop
   offset="0"
   style="stop-color:#CCE7F4"
   id="stop11" />
					<stop
   offset="0.9693"
   style="stop-color:#CCE7F4"
   id="stop13" />
				</radialGradient>
				<rect
   id="XMLID_1_"
   x="-1.981"
   y="-1.782"
   fill="url(#XMLID_3_)"
   width="65.37"
   height="58.784" />
			</g>
		</g>
	</g>
</g>

<g
   id="g48">
	<g
   id="g50">
		<defs
   id="defs52">
			<filter
   id="Adobe_OpacityMaskFilter"
   filterUnits="userSpaceOnUse"
   x="0.122"
   y="28.002"
   width="60"
   height="27.378">
				<feFlood
   style="flood-color:white;flood-opacity:1"
   result="back"
   id="feFlood55" />
				<feBlend
   in="SourceGraphic"
   in2="back"
   mode="normal"
   id="feBlend57" />
			</filter>
		</defs>
		<mask
   maskUnits="userSpaceOnUse"
   x="0.122"
   y="28.002"
   width="60"
   height="27.378"
   id="SVGID_1_">
			<g
   filter="url(#Adobe_OpacityMaskFilter)"
   id="g60">
				<defs
   id="defs62">
					<filter
   id="Adobe_OpacityMaskFilter_1_"
   filterUnits="userSpaceOnUse"
   x="0.122"
   y="28.002"
   width="60"
   height="27.378">
						<feFlood
   style="flood-color:white;flood-opacity:1"
   result="back"
   id="feFlood65" />
						<feBlend
   in="SourceGraphic"
   in2="back"
   mode="normal"
   id="feBlend67" />
					</filter>
				</defs>
				<mask
   maskUnits="userSpaceOnUse"
   x="0.122"
   y="28.002"
   width="60"
   height="27.378"
   id="mask69">
					<g
   filter="url(#Adobe_OpacityMaskFilter_1_)"
   id="g71">
					</g>
				</mask>
				<linearGradient
   id="SVGID_2_"
   gradientUnits="userSpaceOnUse"
   x1="30.1226"
   y1="55.3799"
   x2="30.1226"
   y2="28.0024">
					<stop
   offset="0"
   style="stop-color:#FFFFFF"
   id="stop74" />
					<stop
   offset="0.0731"
   style="stop-color:#F3F3F3"
   id="stop76" />
					<stop
   offset="0.2038"
   style="stop-color:#D5D5D5"
   id="stop78" />
					<stop
   offset="0.3771"
   style="stop-color:#A3A3A3"
   id="stop80" />
					<stop
   offset="0.5864"
   style="stop-color:#5D5D5D"
   id="stop82" />
					<stop
   offset="0.8241"
   style="stop-color:#060606"
   id="stop84" />
					<stop
   offset="0.8396"
   style="stop-color:#000000"
   id="stop86" />
				</linearGradient>
				<path
   mask="url(#SVGID_1_)"
   fill="url(#SVGID_2_)"
   d="M60.122,40.727c0-7.018-13.065-12.725-29.998-12.725      c-16.936,0-30.002,5.707-30.002,12.725c0,3.47,3.373,5.998,8.824,8.297l2.843,6.356h36.853l2.656-6.356      C56.75,46.725,60.122,44.196,60.122,40.727z"
   id="path88" />
			</g>
		</mask>
		<linearGradient
   id="SVGID_3_"
   gradientUnits="userSpaceOnUse"
   x1="30.1226"
   y1="55.3799"
   x2="30.1226"
   y2="28.0024">
			<stop
   offset="0"
   style="stop-color:#868686"
   id="stop91" />
			<stop
   offset="0.7607"
   style="stop-color:#868686;stop-opacity:0"
   id="stop93" />
		</linearGradient>
		<path
   fill="url(#SVGID_3_)"
   d="M60.122,40.727c0-7.018-13.065-12.725-29.998-12.725c-16.936,0-30.002,5.707-30.002,12.725    c0,3.47,3.373,5.998,8.824,8.297l2.843,6.356h36.853l2.656-6.356C56.75,46.725,60.122,44.196,60.122,40.727z"
   id="path95" />
		<linearGradient
   id="SVGID_4_"
   gradientUnits="userSpaceOnUse"
   x1="30.1235"
   y1="56.0898"
   x2="30.1235"
   y2="-0.0874">
			<stop
   offset="0"
   style="stop-color:#D9D7D0"
   id="stop98" />
			<stop
   offset="0.0428"
   style="stop-color:#E6E5E0"
   id="stop100" />
			<stop
   offset="0.1176"
   style="stop-color:#F8F8F7"
   id="stop102" />
			<stop
   offset="0.1651"
   style="stop-color:#FFFFFF"
   id="stop104" />
		</linearGradient>
		<path
   fill="url(#SVGID_4_)"
   d="M56.234,26.023c0-14.398-11.714-26.111-26.11-26.111c-14.399,0-26.112,11.713-26.112,26.111    c0,7.12,2.867,13.578,7.503,18.293V56.09h37.215V44.318C53.367,39.602,56.234,33.144,56.234,26.023z"
   id="path106" />
	</g>
	<linearGradient
   id="SVGID_5_"
   gradientUnits="userSpaceOnUse"
   x1="30.1216"
   y1="4.6924"
   x2="30.1216"
   y2="46.9386">
		<stop
   offset="0"
   style="stop-color:#E5337F"
   id="stop109" />
		<stop
   offset="1"
   style="stop-color:#E30066"
   id="stop111" />
	</linearGradient>
	<path
   fill="url(#SVGID_5_)"
   d="M30.122,5.674c-11.045,0-20,8.955-20,20.001s8.955,20.001,20,20.001s20-8.955,20-20.001   S41.167,5.674,30.122,5.674z M30.122,42.475c-9.279,0-16.801-7.521-16.801-16.8s7.521-16.8,16.801-16.8s16.802,7.521,16.802,16.8   S39.401,42.475,30.122,42.475z"
   id="path113" />
	<g
   id="g115">
		<linearGradient
   id="SVGID_6_"
   gradientUnits="userSpaceOnUse"
   x1="33.4297"
   y1="20.0679"
   x2="38.3955"
   y2="20.0679">
			<stop
   offset="0"
   style="stop-color:#E5337F"
   id="stop118" />
			<stop
   offset="1"
   style="stop-color:#E30066"
   id="stop120" />
		</linearGradient>
		<path
   fill="url(#SVGID_6_)"
   d="M35.92,17.593c0.688,0,1.272,0.24,1.754,0.722c0.48,0.482,0.722,1.066,0.722,1.754    c0,0.688-0.241,1.272-0.722,1.753c-0.481,0.481-1.066,0.722-1.754,0.722s-1.273-0.24-1.761-0.722    c-0.486-0.48-0.729-1.064-0.729-1.753c0-0.688,0.243-1.271,0.729-1.754C34.646,17.833,35.232,17.593,35.92,17.593z"
   id="path122" />
		<linearGradient
   id="SVGID_7_"
   gradientUnits="userSpaceOnUse"
   x1="21.6533"
   y1="20.0679"
   x2="26.6191"
   y2="20.0679">
			<stop
   offset="0"
   style="stop-color:#E5337F"
   id="stop125" />
			<stop
   offset="1"
   style="stop-color:#E30066"
   id="stop127" />
		</linearGradient>
		<path
   fill="url(#SVGID_7_)"
   d="M24.144,17.593c0.688,0,1.272,0.24,1.754,0.722c0.48,0.482,0.722,1.066,0.722,1.754    c0,0.688-0.241,1.272-0.722,1.753c-0.481,0.481-1.066,0.722-1.754,0.722s-1.273-0.24-1.761-0.722    c-0.486-0.48-0.729-1.064-0.729-1.753c0-0.688,0.243-1.271,0.729-1.754C22.87,17.833,23.456,17.593,24.144,17.593z"
   id="path129" />
	</g>
	<g
   id="g131">
		
			<linearGradient
   id="SVGID_8_"
   gradientUnits="userSpaceOnUse"
   x1="630.5342"
   y1="-895.0254"
   x2="643.9863"
   y2="-895.0254"
   gradientTransform="matrix(0.7071 -0.7071 0.7071 0.7071 212.387 1115.4849)">
			<stop
   offset="0"
   style="stop-color:#E5337F"
   id="stop134" />
			<stop
   offset="1"
   style="stop-color:#E30066"
   id="stop136" />
		</linearGradient>
		<path
   fill="url(#SVGID_8_)"
   d="M34.879,27.25c0.746,0.746,0.746,1.956,0,2.702l-6.81,6.81c-0.746,0.746-1.956,0.746-2.703,0l0,0    c-0.746-0.747-0.747-1.957,0-2.703l6.81-6.81C32.922,26.502,34.132,26.503,34.879,27.25L34.879,27.25z"
   id="path138" />
		
			<linearGradient
   id="SVGID_9_"
   gradientUnits="userSpaceOnUse"
   x1="2642.4668"
   y1="-514.2729"
   x2="2655.9189"
   y2="-514.2729"
   gradientTransform="matrix(-0.7071 -0.7071 0.7071 -0.7071 2267.0083 1541.6062)">
			<stop
   offset="0"
   style="stop-color:#E5337F"
   id="stop141" />
			<stop
   offset="1"
   style="stop-color:#E30066"
   id="stop143" />
		</linearGradient>
		<path
   fill="url(#SVGID_9_)"
   d="M25.366,27.249c0.747-0.747,1.957-0.746,2.703,0l6.81,6.81c0.746,0.746,0.746,1.956,0,2.702l0,0    c-0.747,0.747-1.957,0.747-2.703,0.001l-6.81-6.81C24.62,29.206,24.62,27.996,25.366,27.249L25.366,27.249z"
   id="path145" />
	</g>
</g>
</g>
</svg>