<?xml version="1.0" encoding="UTF-8" standalone="no"?>
<!-- Generator: Adobe Illustrator 15.1.0, SVG Export Plug-In . SVG Version: 6.00 Build 0)  -->
<?xml version="1.0" encoding="UTF-8" standalone="no"?>
<svg
   xmlns="http://www.w3.org/2000/svg"
   xmlns:oryx="http://www.b3mn.org/oryx"
   width="40"
   height="40"
   version="1.0">
  <defs></defs>
  <oryx:magnets>

	<oryx:magnet oryx:cx="30" oryx:cy="25" oryx:default="yes" />
  </oryx:magnets>

  <oryx:docker oryx:cx="30" oryx:cy="25" />
  <g pointer-events="fill">
<g
   id="Capa_2_1_"
   display="none">
	<g
   display="inline"
   id="g4">
		<g
   id="g6">
			<g
   id="g8">
				
					<radialGradient
   id="XMLID_3_"
   cx="3871.4062"
   cy="-4526.8975"
   r="96.3858"
   gradientTransform="matrix(0.223 0 0 -0.2812 -832.6203 -1245.3533)"
   gradientUnits="userSpaceOnUse">
					<stop
   offset="0"
   style="stop-color:#CCE7F4"
   id="stop11" />
					<stop
   offset="0.9693"
   style="stop-color:#CCE7F4"
   id="stop13" />
				</radialGradient>
				<rect
   id="XMLID_1_"
   x="-1.981"
   y="-1.782"
   fill="url(#XMLID_3_)"
   width="65.37"
   height="58.784" />
			</g>
		</g>
	</g>
</g>
<g
   display="inline"
   id="g18"
   style="display:none">
			<g
   id="g20">
				<g
   id="g22">
					
						<radialGradient
   id="XMLID_4_"
   cx="4442.8105"
   cy="5691.1533"
   r="96.407799"
   gradientTransform="matrix(0.223,0,0,0.2812,-960.0432,-1572.7424)"
   gradientUnits="userSpaceOnUse">
						<stop
   offset="0"
   style="stop-color:#CDE8F5"
   id="stop25" />
						<stop
   offset="0.9693"
   style="stop-color:#CDE8F5"
   id="stop27" />
					</radialGradient>
					<rect
   id="XMLID_7_"
   x="-1.9809999"
   y="-1.7819999"
   width="65.370003"
   height="58.784"
   style="fill:url(#radialGradient3164)" />
				</g>
			</g>
		</g><g
   id="g3173"><g
     id="g53">
			<linearGradient
   y2="27.9932"
   x2="30.0005"
   y1="55.194302"
   x1="30.0005"
   gradientUnits="userSpaceOnUse"
   id="SVGID_1_">
				<stop
   id="stop56"
   style="stop-color:#868686"
   offset="0" />
				<stop
   id="stop58"
   style="stop-color:#868686;stop-opacity:0"
   offset="0.7607" />
			</linearGradient>
			<path
   inkscape:connector-curvature="0"
   style="fill:url(#linearGradient3123)"
   id="path60"
   d="m 47.948,55.194 c -2.889,0 -30.905,0 -33.324,0 C 13.57,53.343 13.57,53.343 11.698,50.173 4.428,47.864 0,44.266 0,40.374 0,33.547 13.456,27.993 29.996,27.993 c 16.541,0 29.999,5.554 29.999,12.381 0,2.045 -1.23,4.046 -3.536,5.826 l 0.547,0.226 c 2.797,1.119 3.737,2.689 2.383,4.068 -1.334,1.357 -4.556,2.201 -8.411,2.201 l -3.03,2.499 z" />
			<linearGradient
   y2="0.00048828119"
   x2="30.0005"
   y1="56.001999"
   x1="30.0005"
   gradientUnits="userSpaceOnUse"
   id="SVGID_2_">
				<stop
   id="stop63"
   style="stop-color:#D9D7D0"
   offset="0" />
				<stop
   id="stop65"
   style="stop-color:#E6E5E0"
   offset="0.0428" />
				<stop
   id="stop67"
   style="stop-color:#F8F8F7"
   offset="0.1176" />
				<stop
   id="stop69"
   style="stop-color:#FFFFFF"
   offset="0.1651" />
			</linearGradient>
			<path
   inkscape:connector-curvature="0"
   style="fill:url(#linearGradient3125)"
   id="path71"
   d="m 47.801,56.002 c -2.455,0 -31.361,0 -33.416,0 0,-3.754 0.063,-5.146 0.063,-10.336 C 8.269,40.911 4.508,33.503 4.508,25.49 4.508,11.435 15.942,0 29.997,0 c 14.056,0 25.491,11.435 25.491,25.49 0,4.212 -1.046,8.328 -3.005,11.995 l 0.465,0.463 c 2.377,2.305 3.176,5.537 2.024,8.378 -1.133,2.795 -3.871,4.53 -7.147,4.53 l -0.024,5.146 z" />
			<linearGradient
   y2="25.428699"
   x2="49.998001"
   y1="25.428699"
   x1="9.9980001"
   gradientUnits="userSpaceOnUse"
   id="SVGID_3_">
				<stop
   id="stop74"
   style="stop-color:#AFC700"
   offset="0" />
				<stop
   id="stop76"
   style="stop-color:#89BA17"
   offset="1" />
			</linearGradient>
			<path
   inkscape:connector-curvature="0"
   style="fill:url(#linearGradient3127)"
   id="path78"
   d="m 45.12,38.568 c 3.035,-3.506 4.878,-8.074 4.878,-13.077 0,-11.045 -8.955,-20 -20.001,-20 -11.044,0 -19.999,8.955 -19.999,20 0,8.208 4.956,15.241 12.03,18.322 0.411,0.192 0.864,0.309 1.347,0.309 1.761,0 3.188,-1.428 3.188,-3.189 0,-1.312 -0.793,-2.438 -1.926,-2.926 l 0.002,-0.004 c -4.863,-2.08 -8.277,-6.887 -8.277,-12.511 0,-7.531 6.104,-13.636 13.635,-13.636 7.533,0 13.637,6.104 13.637,13.636 0,3.248 -1.154,6.214 -3.053,8.554 l -4.192,-4.179 c -1.202,-1.243 -2.641,-0.866 -2.641,0.741 v 12.938 c 0,0.909 0,1.819 1.817,1.819 h 12.726 c 1.819,0 2.28,-1.399 0.91,-2.729 L 45.12,38.568 z" />
		</g></g>

		</g></svg>