<?xml version="1.0" encoding="UTF-8" standalone="no"?>
<svg
   xmlns="http://www.w3.org/2000/svg"
   xmlns:oryx="http://www.b3mn.org/oryx"
   width="40"
   height="40"
   version="1.0">
  <defs></defs>
  <oryx:magnets>

	<oryx:magnet oryx:cx="30" oryx:cy="25" oryx:default="yes" />
  </oryx:magnets>

  <oryx:docker oryx:cx="30" oryx:cy="25" />
  <g pointer-events="fill">
<g
   id="Capa_2_1_"
   display="none">
	<g
   display="inline"
   id="g4">
		<g
   id="g6">
			<g
   id="g8">
				
					<radialGradient
   id="XMLID_3_"
   cx="2810.4727"
   cy="3369.4639"
   r="96.3855"
   gradientTransform="matrix(0.223 0 0 0.2812 -596.0319 -919.8831)"
   gradientUnits="userSpaceOnUse">
					<stop
   offset="0"
   style="stop-color:#CCE7F4"
   id="stop11" />
					<stop
   offset="0.9693"
   style="stop-color:#CCE7F4"
   id="stop13" />
				</radialGradient>
				<rect
   id="XMLID_1_"
   x="-1.981"
   y="-1.782"
   width="65.37"
   height="58.784" />
			</g>
		</g>
	</g>
</g>
<g
   style="display:none"
   display="none"
   id="Capa_2">
		<g
   style="display:inline"
   id="g18"
   display="inline">
			<g
   id="g20">
				<g
   id="g22">
					
						<radialGradient
   gradientUnits="userSpaceOnUse"
   gradientTransform="matrix(0.223,0,0,-0.2812,-723.4548,-1112.0144)"
   r="96.408302"
   cy="-4052.7178"
   cx="3381.875"
   id="XMLID_4_">
						<stop
   id="stop25"
   style="stop-color:#CDE8F5"
   offset="0" />
						<stop
   id="stop27"
   style="stop-color:#CDE8F5"
   offset="0.9693" />
					</radialGradient>
					<rect
   style="fill:url(#radialGradient3237)"
   height="58.784"
   width="65.370003"
   y="-1.7819999"
   x="-1.9809999"
   id="XMLID_7_" />
				</g>
			</g>
		</g>
	</g><g
   id="g3354"><g
     id="g49">
			<g
   id="g51">
				<defs
   id="defs53">
					<filter
   color-interpolation-filters="sRGB"
   height="27.378"
   width="60"
   y="28.000999"
   x="0"
   filterUnits="userSpaceOnUse"
   id="Adobe_OpacityMaskFilter">
						<feFlood
   id="feFlood56"
   result="back" />
						<feBlend
   id="feBlend58"
   mode="normal"
   in2="back"
   in="SourceGraphic" />
					</filter>
				</defs>
				<mask
   id="SVGID_1_"
   height="27.378"
   width="60"
   y="28.001"
   x="0"
   maskUnits="userSpaceOnUse">
					<g
   style="filter:url(#Adobe_OpacityMaskFilter)"
   id="g61">
						<defs
   id="defs63">
							<filter
   color-interpolation-filters="sRGB"
   height="27.378"
   width="60"
   y="28.000999"
   x="0"
   filterUnits="userSpaceOnUse"
   id="Adobe_OpacityMaskFilter_1_">
								<feFlood
   id="feFlood66"
   result="back" />
								<feBlend
   id="feBlend68"
   mode="normal"
   in2="back"
   in="SourceGraphic" />
							</filter>
						</defs>
						<mask
   id="mask70"
   height="27.378"
   width="60"
   y="28.001"
   x="0"
   maskUnits="userSpaceOnUse">
							<g
   style="filter:url(#Adobe_OpacityMaskFilter_1_)"
   id="g72">
							</g>
						</mask>
						<linearGradient
   y2="28.001499"
   x2="30.0005"
   y1="55.378899"
   x1="30.0005"
   gradientUnits="userSpaceOnUse"
   id="SVGID_2_">
							<stop
   id="stop75"
   style="stop-color:#FFFFFF"
   offset="0" />
							<stop
   id="stop77"
   style="stop-color:#F3F3F3"
   offset="0.0731" />
							<stop
   id="stop79"
   style="stop-color:#D5D5D5"
   offset="0.2038" />
							<stop
   id="stop81"
   style="stop-color:#A3A3A3"
   offset="0.3771" />
							<stop
   id="stop83"
   style="stop-color:#5D5D5D"
   offset="0.5864" />
							<stop
   id="stop85"
   style="stop-color:#060606"
   offset="0.8241" />
							<stop
   id="stop87"
   style="stop-color:#000000"
   offset="0.8396" />
						</linearGradient>
						<path
   style="fill:url(#SVGID_2_)"
   inkscape:connector-curvature="0"
   id="path89"
   d="M 60,40.727 C 60,33.709 46.935,28.001 30.002,28.001 13.066,28.001 0,33.709 0,40.727 c 0,3.47 3.373,5.998 8.824,8.297 l 2.843,6.355 H 48.52 l 2.656,-6.355 C 56.628,46.725 60,44.196 60,40.727 z"
   mask="url(#SVGID_1_)" />
					</g>
				</mask>
				<linearGradient
   y2="28.001499"
   x2="30.0005"
   y1="55.378899"
   x1="30.0005"
   gradientUnits="userSpaceOnUse"
   id="SVGID_3_">
					<stop
   id="stop92"
   style="stop-color:#868686"
   offset="0" />
					<stop
   id="stop94"
   style="stop-color:#868686;stop-opacity:0"
   offset="0.7607" />
				</linearGradient>
				<path
   inkscape:connector-curvature="0"
   style="fill:url(#linearGradient3301)"
   id="path96"
   d="M 60,40.727 C 60,33.709 46.935,28.001 30.002,28.001 13.066,28.001 0,33.709 0,40.727 c 0,3.47 3.373,5.998 8.824,8.297 l 2.843,6.355 H 48.52 l 2.656,-6.355 C 56.628,46.725 60,44.196 60,40.727 z" />
				<linearGradient
   y2="-0.087399997"
   x2="30.001499"
   y1="56.089802"
   x1="30.001499"
   gradientUnits="userSpaceOnUse"
   id="SVGID_4_">
					<stop
   id="stop99"
   style="stop-color:#D9D7D0"
   offset="0" />
					<stop
   id="stop101"
   style="stop-color:#E6E5E0"
   offset="0.0428" />
					<stop
   id="stop103"
   style="stop-color:#F8F8F7"
   offset="0.1176" />
					<stop
   id="stop105"
   style="stop-color:#FFFFFF"
   offset="0.1651" />
				</linearGradient>
				<path
   inkscape:connector-curvature="0"
   style="fill:url(#linearGradient3303)"
   id="path107"
   d="m 56.112,26.023 c 0,-14.398 -11.714,-26.111 -26.11,-26.111 -14.399,0 -26.112,11.713 -26.112,26.111 0,7.12 2.867,13.578 7.503,18.293 V 56.09 H 48.608 V 44.318 c 4.637,-4.716 7.504,-11.174 7.504,-18.295 z" />
			</g>
			<g
   id="g109">
				<linearGradient
   y2="46.938499"
   x2="29.9995"
   y1="4.6933999"
   x1="29.9995"
   gradientUnits="userSpaceOnUse"
   id="SVGID_5_">
					<stop
   id="stop112"
   style="stop-color:#E5337F"
   offset="0" />
					<stop
   id="stop114"
   style="stop-color:#E30066"
   offset="1" />
				</linearGradient>
				<path
   inkscape:connector-curvature="0"
   style="fill:url(#linearGradient3305)"
   id="path116"
   d="M 29.999,5.675 C 18.955,5.675 10,14.63 10,25.675 10,36.721 18.955,45.676 29.999,45.676 41.045,45.676 50,36.721 50,25.675 c 0,-11.045 -8.955,-20 -20.001,-20 z m 0,36.801 c -9.277,0 -16.8,-7.522 -16.8,-16.801 0,-9.277 7.522,-16.8 16.8,-16.8 9.278,0 16.801,7.522 16.801,16.8 0,9.278 -7.523,16.801 -16.801,16.801 z m 0,-20.001 c 0.884,0 1.602,-0.716 1.602,-1.6 v -7.2 c 0,-0.883 -0.718,-1.6 -1.602,-1.6 -0.883,0 -1.6,0.717 -1.6,1.6 v 7.2 c 0,0.884 0.717,1.6 1.6,1.6 z m 7.468,-5.148 c -0.406,-0.363 -0.845,-0.701 -1.302,-1.003 -0.735,-0.488 -1.729,-0.284 -2.217,0.452 -0.487,0.737 -0.284,1.729 0.453,2.217 0.327,0.217 0.641,0.459 0.931,0.719 1.695,1.517 2.668,3.69 2.668,5.963 0,4.412 -3.589,8 -8.001,8 -4.41,0 -8,-3.588 -8,-8 0,-2.272 0.972,-4.445 2.668,-5.963 0.305,-0.273 0.634,-0.524 0.978,-0.749 0.74,-0.481 0.95,-1.474 0.468,-2.214 -0.481,-0.741 -1.472,-0.951 -2.213,-0.468 -0.48,0.312 -0.941,0.665 -1.366,1.047 -2.373,2.123 -3.733,5.165 -3.733,8.347 0,6.176 5.023,11.2 11.199,11.2 6.177,0 11.201,-5.024 11.201,-11.2 C 41.2,22.493 39.839,19.45 37.467,17.327 z" />
			</g>
		</g></g>
</g>
</svg>