<?xml version="1.0" encoding="UTF-8" standalone="no"?>
<svg
   xmlns="http://www.w3.org/2000/svg"
   xmlns:oryx="http://www.b3mn.org/oryx"
   width="40"
   height="40"
   version="1.0">
  <defs></defs>
  <oryx:magnets>

	<oryx:magnet oryx:cx="30" oryx:cy="25" oryx:default="yes" />
  </oryx:magnets>

  <oryx:docker oryx:cx="30" oryx:cy="25" />
  <g pointer-events="fill">

<g
   id="g3112"><g
     id="g13">
	<linearGradient
   y2="23.7871"
   x2="25"
   y1="56.0137"
   x1="25"
   gradientUnits="userSpaceOnUse"
   id="SVGID_1_">
		<stop
   id="stop16"
   style="stop-color:#888787"
   offset="0" />
		<stop
   id="stop18"
   style="stop-color:#888787;stop-opacity:0"
   offset="0.7607" />
	</linearGradient>
	<path
   id="path20"
   d="M11.515,49.219c-0.327-0.354-0.618-0.732-0.895-1.185c-0.19-0.32-0.34-0.617-0.505-0.927   L10.09,47.05c-0.276-0.543-0.517-0.983-0.856-1.372c-0.606-0.692-1.539-1.379-2.851-2.099c-6.784-3.741-8.233-8.227-3.997-12.305   c4.59-4.41,14.993-7.487,25.308-7.487c8.952,0,19.419,2.546,21.915,9.689c0.341,0.973,0.378,1.665,0.378,1.791   C50,35.284,50,35.307,50,35.325c0,1.801-2.308,3.306-5.675,3.951c-0.038,0.012-0.076,0.017-0.114,0.029   c-0.037,0.005-0.087,0.012-0.138,0.017c-0.038,0.012-0.076,0.017-0.113,0.024c0.024,0.011,0.062,0.027,0.075,0.045   c0.038,0.012,0.062,0.028,0.089,0.045c0.036,0.013,0.062,0.028,0.087,0.046c0.796,0.464,1.388,1.008,1.728,1.608   c0.645,1.132,0.265,2.293-0.945,3.248c-0.024,0.018-0.037,0.04-0.088,0.058c-0.014,0.022-0.038,0.039-0.076,0.062   c-0.012,0.017-0.038,0.041-0.075,0.058c0.024,0.023,0.037,0.045,0.063,0.068c0.024,0.018,0.038,0.04,0.062,0.063   c0.025,0.022,0.051,0.045,0.062,0.074c0.871,0.978,0.959,2.092,0.064,3.157c-0.178,0.234-0.505,0.617-1.022,1.075   c-1.861,3.056-4.439,7.059-4.439,7.059s-22.008,0-24.663,0L11.515,49.219"
   fill="url(#SVGID_1_)" />
	<g
   id="g22">
		<linearGradient
   y2="25.9536"
   x2="39.1201"
   y1="25.9536"
   x1="10.874"
   gradientUnits="userSpaceOnUse"
   id="SVGID_2_">
			<stop
   id="stop25"
   style="stop-color:#E43689"
   offset="0" />
			<stop
   id="stop27"
   style="stop-color:#E30266"
   offset="1" />
		</linearGradient>
		<path
   id="path29"
   d="M26.964,46.203c-0.699,0-1.424-0.067-2.153-0.202c-2.799-0.521-4.369-1.641-5.251-3.743    c-0.161-0.382-0.311-0.825-0.471-1.394c-0.12-0.455-0.23-0.922-0.345-1.401l-0.024-0.101c-0.262-1.129-0.513-2.147-0.929-3.195    c-0.699-1.766-1.731-3.465-3.157-5.195c-3.977-4.829-4.832-10.317-2.409-15.454c2.685-5.687,8.954-9.813,14.908-9.813    c6.244,0,10.527,4.422,11.751,12.132c0.219,1.377,0.236,2.326,0.236,2.335c0,1.341-0.959,1.816-1.78,1.816    c-0.936-0.032-1.938-0.595-1.938-1.753C35.394,19.795,35.092,9.42,26.756,9.42c-0.234,0-0.475,0.009-0.721,0.025    c-4.521,0.31-8.436,3.066-10.215,7.196c-1.757,4.079-1.128,8.553,1.685,11.967c3.02,3.668,4.065,6.482,5.037,10.703    c0.457,1.995,0.595,2.597,2.948,3.029c0.457,0.085,0.917,0.129,1.366,0.129c2.488,0,4.392-1.265,5.093-3.382    c0.518-1.348,1.375-1.548,1.84-1.548c0.247,0,0.491,0.053,0.725,0.159c0.848,0.381,1.448,1.418,0.985,2.494    c0.005,0.016-0.173,0.541-0.503,1.18C33.382,44.487,30.529,46.202,26.964,46.203L26.964,46.203z"
   fill="url(#SVGID_2_)" />
		<linearGradient
   y2="25.9536"
   x2="39.0205"
   y1="25.9536"
   x1="10.9741"
   gradientUnits="userSpaceOnUse"
   id="SVGID_3_">
			<stop
   id="stop32"
   style="stop-color:#E43689"
   offset="0" />
			<stop
   id="stop34"
   style="stop-color:#E30266"
   offset="1" />
		</linearGradient>
		<path
   id="path36"
   d="M26.964,46.104c-0.692,0-1.41-0.067-2.135-0.201c-2.763-0.514-4.311-1.615-5.178-3.684    c-0.161-0.383-0.309-0.822-0.466-1.382c-0.12-0.452-0.23-0.918-0.344-1.397l-0.024-0.101c-0.264-1.134-0.517-2.158-0.934-3.209    c-0.703-1.775-1.741-3.483-3.173-5.222C10.76,26.11,9.909,20.66,12.315,15.561c2.668-5.653,8.899-9.757,14.817-9.757    c6.189,0,10.437,4.391,11.652,12.048c0.218,1.369,0.235,2.311,0.235,2.319c0,1.268-0.905,1.717-1.681,1.717    c-0.888-0.031-1.838-0.562-1.838-1.653C35.493,19.791,35.19,9.32,26.756,9.32c-0.236,0-0.479,0.009-0.728,0.025    c-4.559,0.312-8.505,3.091-10.3,7.256c-1.772,4.114-1.138,8.626,1.699,12.07c3.008,3.653,4.049,6.457,5.017,10.662    c0.456,1.989,0.609,2.66,3.027,3.105c0.462,0.086,0.928,0.13,1.385,0.13c2.534,0,4.473-1.29,5.188-3.45    c0.495-1.288,1.306-1.479,1.745-1.479c0.231,0,0.461,0.05,0.684,0.15c0.804,0.361,1.373,1.345,0.935,2.364    c-0.001,0.016-0.158,0.512-0.5,1.173C33.312,44.406,30.49,46.103,26.964,46.104L26.964,46.104z"
   fill="url(#SVGID_3_)" />
		<linearGradient
   y2="25.9536"
   x2="38.9209"
   y1="25.9536"
   x1="11.0752"
   gradientUnits="userSpaceOnUse"
   id="SVGID_4_">
			<stop
   id="stop39"
   style="stop-color:#E43689"
   offset="0" />
			<stop
   id="stop41"
   style="stop-color:#E30266"
   offset="1" />
		</linearGradient>
		<path
   id="path43"
   d="M26.964,46.004c-0.687,0-1.398-0.067-2.116-0.2c-2.725-0.506-4.252-1.59-5.104-3.624    c-0.162-0.386-0.308-0.821-0.461-1.37c-0.12-0.449-0.23-0.914-0.343-1.393l-0.024-0.102c-0.266-1.139-0.52-2.166-0.938-3.223    c-0.707-1.785-1.75-3.502-3.188-5.248c-3.925-4.766-4.771-10.179-2.382-15.241c2.652-5.621,8.846-9.7,14.727-9.7    c6.136,0,10.347,4.36,11.554,11.964c0.217,1.361,0.234,2.295,0.234,2.304c0,1.194-0.852,1.617-1.581,1.617    c-0.902-0.032-1.738-0.576-1.738-1.554c-0.009-0.448-0.315-11.014-8.846-11.014c-0.238,0-0.482,0.009-0.734,0.025    c-4.597,0.313-8.575,3.116-10.385,7.315c-1.788,4.149-1.147,8.7,1.714,12.174c2.995,3.639,4.032,6.432,4.996,10.621    c0.454,1.981,0.624,2.724,3.106,3.182c0.469,0.087,0.941,0.131,1.403,0.131c2.579,0,4.554-1.315,5.282-3.519    c0.473-1.229,1.237-1.411,1.65-1.411c0.218,0,0.434,0.048,0.643,0.142c0.76,0.342,1.298,1.271,0.884,2.234    c-0.002,0.01-0.146,0.486-0.497,1.166C33.24,44.326,30.45,46.003,26.964,46.004z"
   fill="url(#SVGID_4_)" />
		<linearGradient
   y2="25.9531"
   x2="38.8213"
   y1="25.9531"
   x1="11.1777"
   gradientUnits="userSpaceOnUse"
   id="SVGID_5_">
			<stop
   id="stop46"
   style="stop-color:#E43689"
   offset="0" />
			<stop
   id="stop48"
   style="stop-color:#E30266"
   offset="1" />
		</linearGradient>
		<path
   id="path50"
   d="M26.015,9.146c-9.894,0.675-14.962,12.1-8.741,19.652c2.902,3.525,3.981,6.256,4.976,10.58    c0.471,2.053,0.671,2.793,3.186,3.258c2.906,0.538,5.839-0.551,6.799-3.455c0.516-1.338,1.456-1.524,2.157-1.21    c0.728,0.328,1.218,1.209,0.833,2.104c0,0-0.143,0.48-0.494,1.159c-1.927,3.717-5.64,5.251-9.863,4.47    c-3.079-0.571-4.323-1.876-5.031-3.564c-0.18-0.43-0.324-0.884-0.456-1.357c-0.129-0.479-0.245-0.978-0.366-1.491    c-0.242-1.036-0.505-2.13-0.943-3.236c-0.595-1.501-1.54-3.254-3.204-5.274C0.007,12.739,34.583-7.345,38.588,17.883    c0.218,1.37,0.233,2.29,0.233,2.29c0,1.084-0.767,1.544-1.554,1.514c-0.805-0.03-1.566-0.568-1.566-1.452    C35.69,19.688,35.263,8.516,26.015,9.146z"
   fill="url(#SVGID_5_)" />
		<linearGradient
   y2="23.8931"
   x2="36.1582"
   y1="23.8931"
   x1="17.0269"
   gradientUnits="userSpaceOnUse"
   id="SVGID_6_">
			<stop
   id="stop53"
   style="stop-color:#E43689"
   offset="0" />
			<stop
   id="stop55"
   style="stop-color:#E30266"
   offset="1" />
		</linearGradient>
		<path
   id="path57"
   d="M32.472,34.354c-2.353,0-4.196-1.517-4.812-3.958c-0.602-2.381,0.133-5.558,2.688-7.059    c-0.149-1.089-0.94-5.672-3.706-6.088c-0.27-0.04-0.531-0.059-0.785-0.059c-3.239,0-5.331,3.095-5.419,3.227    c-0.468,0.443-0.989,0.669-1.522,0.669c-0.684,0-1.339-0.373-1.67-0.95c-0.3-0.528-0.291-1.139,0.025-1.676    c0.043-0.068,0.271-0.425,0.693-0.937c2.154-2.601,4.987-4.091,7.772-4.091c3.463,0,6.234,2.256,7.605,6.19    c0.739,2.128,0.948,4.253,1.055,6.051c0.009,0.146-0.088,0.277-0.23,0.31c-0.649,0.158-1.533,0.382-1.601,0.406    c-1.001,0.365-1.505,1.907-1.332,3.063c0.108,0.729,0.479,1.165,1.015,1.193l0.146,0.004c0.422,0,0.896-0.102,1.332-0.286    c0.228-0.078,0.443-0.115,0.65-0.115c0.93,0,1.53,0.714,1.714,1.422c0.222,0.86-0.104,1.677-0.832,2.081    c-0.174,0.077-0.522,0.218-1.001,0.349C33.641,34.269,33.04,34.354,32.472,34.354z"
   fill="url(#SVGID_6_)" />
		<linearGradient
   y2="23.8931"
   x2="36.0581"
   y1="23.8931"
   x1="17.1265"
   gradientUnits="userSpaceOnUse"
   id="SVGID_7_">
			<stop
   id="stop60"
   style="stop-color:#E43689"
   offset="0" />
			<stop
   id="stop62"
   style="stop-color:#E30266"
   offset="1" />
		</linearGradient>
		<path
   id="path64"
   d="M32.472,34.254c-2.305,0-4.111-1.487-4.716-3.883c-0.599-2.372,0.141-5.52,2.7-6.981    c-0.146-1.112-0.925-5.807-3.8-6.239c-0.274-0.041-0.541-0.06-0.8-0.06c-3.3,0-5.413,3.137-5.502,3.271    c-0.441,0.415-0.935,0.625-1.439,0.625c-0.648,0-1.27-0.354-1.583-0.9c-0.282-0.496-0.273-1.069,0.024-1.575    c0.063-0.102,0.29-0.446,0.685-0.924c2.136-2.577,4.94-4.055,7.695-4.055c3.418,0,6.155,2.232,7.511,6.124    c0.734,2.112,0.943,4.23,1.05,6.023c0.006,0.098-0.059,0.185-0.153,0.206c-0.584,0.143-1.541,0.383-1.613,0.41    c-1.046,0.382-1.574,1.978-1.396,3.172c0.116,0.781,0.521,1.247,1.108,1.278l0.147,0.004c0.437,0,0.926-0.104,1.374-0.294    c0.213-0.072,0.416-0.107,0.611-0.107c0.876,0,1.443,0.677,1.617,1.348c0.21,0.814-0.098,1.587-0.784,1.969    c-0.109,0.048-0.464,0.198-0.979,0.339C33.622,34.17,33.03,34.254,32.472,34.254z"
   fill="url(#SVGID_7_)" />
		<linearGradient
   y2="23.8931"
   x2="35.9585"
   y1="23.8931"
   x1="17.2266"
   gradientUnits="userSpaceOnUse"
   id="SVGID_8_">
			<stop
   id="stop67"
   style="stop-color:#E43689"
   offset="0" />
			<stop
   id="stop69"
   style="stop-color:#E30266"
   offset="1" />
		</linearGradient>
		<path
   id="path71"
   d="M32.472,34.154c-2.257,0-4.026-1.459-4.619-3.808c-0.596-2.363,0.146-5.479,2.711-6.903    c-0.141-1.136-0.909-5.943-3.893-6.392c-0.279-0.042-0.551-0.061-0.814-0.061c-3.348,0-5.495,3.179-5.585,3.314    c-0.414,0.386-0.878,0.581-1.356,0.581c-0.613,0-1.2-0.334-1.496-0.851c-0.265-0.464-0.256-1.001,0.023-1.475    c0.011-0.017,0.236-0.379,0.676-0.911c2.116-2.554,4.893-4.019,7.618-4.019c3.373,0,6.076,2.208,7.416,6.058    c0.731,2.102,0.938,4.21,1.045,5.996c0.003,0.048-0.029,0.092-0.076,0.103c-0.508,0.124-1.542,0.383-1.626,0.414    c-1.091,0.398-1.644,2.049-1.459,3.28c0.124,0.833,0.562,1.329,1.202,1.363l0.149,0.004c0.453,0,0.956-0.107,1.416-0.302    c0.199-0.067,0.39-0.1,0.572-0.1c0.823,0,1.356,0.64,1.521,1.273c0.198,0.769-0.091,1.497-0.736,1.855    c-0.022,0.01-0.386,0.175-0.956,0.33C33.604,34.071,33.021,34.154,32.472,34.154z"
   fill="url(#SVGID_8_)" />
		<linearGradient
   y2="23.8926"
   x2="35.8569"
   y1="23.8926"
   x1="17.3262"
   gradientUnits="userSpaceOnUse"
   id="SVGID_9_">
			<stop
   id="stop74"
   style="stop-color:#E43689"
   offset="0" />
			<stop
   id="stop76"
   style="stop-color:#E30266"
   offset="1" />
		</linearGradient>
		<path
   id="path78"
   d="M26.686,16.953c-3.83-0.574-6.301,3.001-6.497,3.297c-1.508,1.392-3.509-0.199-2.66-1.638    c0,0,0.227-0.365,0.667-0.898c4.615-5.569,12.197-5.648,14.862,2.009c0.68,1.953,0.917,3.907,1.04,5.969    c-0.389,0.095-1.539,0.38-1.638,0.417c-1.834,0.67-2.223,4.731-0.227,4.837c0.544,0.028,1.117-0.098,1.609-0.306    c1.83-0.612,2.769,2.019,1.269,2.85c0,0-0.364,0.167-0.934,0.321c-6.868,1.874-8.534-7.603-3.507-10.312    C30.416,21.323,29.413,17.362,26.686,16.953z"
   fill="url(#SVGID_9_)" />
	</g>
	<linearGradient
   y2="5.684342e-14"
   x2="24.9995"
   y1="56.3398"
   x1="24.9995"
   gradientUnits="userSpaceOnUse"
   id="SVGID_10_">
		<stop
   id="stop81"
   style="stop-color:#DAD8D1"
   offset="0" />
		<stop
   id="stop83"
   style="stop-color:#E6E4DF"
   offset="0.0386" />
		<stop
   id="stop85"
   style="stop-color:#F8F8F6"
   offset="0.116" />
		<stop
   id="stop87"
   style="stop-color:#FFFFFF"
   offset="0.1651" />
	</linearGradient>
	<path
   id="path89"
   d="M14.306,44.46c-0.26-0.62-0.49-1.28-0.71-2.07c-0.15-0.56-0.27-1.08-0.4-1.62l-0.02-0.1   c-0.22-0.95-0.41-1.72-0.68-2.4c-0.48-1.21-1.221-2.41-2.261-3.67c-5.38-6.54-6.529-14.38-3.17-21.51   C10.706,5.38,18.956,0,27.136,0c7.1,0,15.4,4.45,17.38,16.939c0.271,1.7,0.3,2.91,0.3,3.131c0.011,0.029,0.011,0.069,0.011,0.1   c0,3.15-1.83,5.78-4.5,6.91c-0.03,0.02-0.061,0.029-0.091,0.05c-0.029,0.01-0.069,0.02-0.109,0.03   c-0.03,0.02-0.061,0.029-0.09,0.04c0.02,0.02,0.05,0.05,0.06,0.08c0.03,0.02,0.05,0.05,0.07,0.079   c0.029,0.021,0.05,0.051,0.069,0.08c0.631,0.811,1.101,1.761,1.37,2.811c0.511,1.979,0.21,4.01-0.75,5.68   c-0.02,0.03-0.029,0.07-0.069,0.101c-0.011,0.04-0.03,0.069-0.061,0.109c-0.01,0.03-0.03,0.07-0.06,0.101   c0.02,0.04,0.029,0.08,0.05,0.119c0.02,0.03,0.03,0.07,0.05,0.11c0.021,0.04,0.04,0.08,0.05,0.13c0.69,1.71,0.761,3.66,0.051,5.521   c-0.141,0.41-0.4,1.08-0.811,1.88c0,5.798,0,12.34,0,12.34s-23.614,0-25.72,0L14.306,44.46"
   fill="url(#SVGID_10_)" />
	<g
   id="g91">
		<linearGradient
   y2="25.9536"
   x2="39.1201"
   y1="25.9536"
   x1="10.874"
   gradientUnits="userSpaceOnUse"
   id="SVGID_11_">
			<stop
   id="stop94"
   style="stop-color:#B0C808"
   offset="0" />
			<stop
   id="stop96"
   style="stop-color:#8ABA1B"
   offset="1" />
		</linearGradient>
		<path
   id="path98"
   d="M26.964,46.203c-0.699,0-1.424-0.067-2.153-0.202c-2.799-0.521-4.369-1.641-5.251-3.743    c-0.161-0.382-0.311-0.825-0.471-1.394c-0.12-0.455-0.23-0.922-0.345-1.401l-0.024-0.101c-0.262-1.129-0.513-2.147-0.929-3.195    c-0.699-1.766-1.731-3.465-3.157-5.195c-3.977-4.829-4.832-10.317-2.409-15.454c2.685-5.687,8.954-9.813,14.908-9.813    c6.244,0,10.527,4.422,11.751,12.132c0.219,1.377,0.236,2.326,0.236,2.335c0,1.341-0.959,1.816-1.78,1.816    c-0.936-0.032-1.938-0.595-1.938-1.753C35.394,19.795,35.092,9.42,26.756,9.42c-0.234,0-0.475,0.009-0.721,0.025    c-4.521,0.31-8.436,3.066-10.215,7.196c-1.757,4.079-1.128,8.553,1.685,11.967c3.02,3.668,4.065,6.482,5.037,10.703    c0.457,1.995,0.595,2.597,2.948,3.029c0.457,0.085,0.917,0.129,1.366,0.129c2.488,0,4.392-1.265,5.093-3.382    c0.518-1.348,1.375-1.548,1.84-1.548c0.247,0,0.491,0.053,0.725,0.159c0.848,0.381,1.448,1.418,0.985,2.494    c0.005,0.016-0.173,0.541-0.503,1.18C33.382,44.487,30.529,46.202,26.964,46.203L26.964,46.203z"
   fill="url(#SVGID_11_)" />
		<linearGradient
   y2="23.8931"
   x2="36.1582"
   y1="23.8931"
   x1="17.0269"
   gradientUnits="userSpaceOnUse"
   id="SVGID_12_">
			<stop
   id="stop101"
   style="stop-color:#B0C808"
   offset="0" />
			<stop
   id="stop103"
   style="stop-color:#8ABA1B"
   offset="1" />
		</linearGradient>
		<path
   id="path105"
   d="M32.472,34.354c-2.353,0-4.196-1.517-4.812-3.958c-0.602-2.381,0.133-5.558,2.688-7.059    c-0.149-1.089-0.94-5.672-3.706-6.088c-0.27-0.04-0.531-0.059-0.785-0.059c-3.239,0-5.331,3.095-5.419,3.227    c-0.468,0.443-0.989,0.669-1.522,0.669c-0.684,0-1.339-0.373-1.67-0.95c-0.3-0.528-0.291-1.139,0.025-1.676    c0.043-0.068,0.271-0.425,0.693-0.937c2.154-2.601,4.987-4.091,7.772-4.091c3.463,0,6.234,2.256,7.605,6.19    c0.739,2.128,0.948,4.253,1.055,6.051c0.009,0.146-0.088,0.277-0.23,0.31c-0.649,0.158-1.533,0.382-1.601,0.406    c-1.001,0.365-1.505,1.907-1.332,3.063c0.108,0.729,0.479,1.165,1.015,1.193l0.146,0.004c0.422,0,0.896-0.102,1.332-0.286    c0.228-0.078,0.443-0.115,0.65-0.115c0.93,0,1.53,0.714,1.714,1.422c0.222,0.86-0.104,1.677-0.832,2.081    c-0.174,0.077-0.522,0.218-1.001,0.349C33.641,34.269,33.04,34.354,32.472,34.354z"
   fill="url(#SVGID_12_)" />
	</g>
	<linearGradient
   y2="44.46"
   x2="14.3057"
   y1="44.46"
   x1="14.3057"
   gradientUnits="userSpaceOnUse"
   id="SVGID_13_">
		<stop
   id="stop108"
   style="stop-color:#DAD8D1"
   offset="0" />
		<stop
   id="stop110"
   style="stop-color:#E6E4DF"
   offset="0.0386" />
		<stop
   id="stop112"
   style="stop-color:#F8F8F6"
   offset="0.116" />
		<stop
   id="stop114"
   style="stop-color:#FFFFFF"
   offset="0.1651" />
	</linearGradient>
	<path
   id="path116"
   d="M14.306,44.46"
   fill="url(#SVGID_13_)" />
	<linearGradient
   y2="42.1201"
   x2="40.4609"
   y1="44"
   x1="40.4609"
   gradientUnits="userSpaceOnUse"
   id="SVGID_14_">
		<stop
   id="stop119"
   style="stop-color:#DAD8D1"
   offset="0" />
		<stop
   id="stop121"
   style="stop-color:#E6E4DF"
   offset="0.0386" />
		<stop
   id="stop123"
   style="stop-color:#F8F8F6"
   offset="0.116" />
		<stop
   id="stop125"
   style="stop-color:#FFFFFF"
   offset="0.1651" />
	</linearGradient>
	<path
   id="path127"
   d="M40.866,42.12c-0.141,0.41-0.4,1.08-0.811,1.88"
   fill="url(#SVGID_14_)" />
</g></g>
</g>
</svg>