<?xml version="1.0" encoding="UTF-8" standalone="no"?>
<svg
   xmlns="http://www.w3.org/2000/svg"
   xmlns:oryx="http://www.b3mn.org/oryx"
   width="40"
   height="40"
   version="1.0">
  <defs></defs>
  <oryx:magnets>

	<oryx:magnet oryx:cx="30" oryx:cy="25" oryx:default="yes" />
  </oryx:magnets>

  <oryx:docker oryx:cx="30" oryx:cy="25" />
  <g pointer-events="fill">

<g
   id="g21">
	<g
   id="g23">
		<defs
   id="defs25">
			<filter
   id="Adobe_OpacityMaskFilter"
   filterUnits="userSpaceOnUse"
   x="0"
   y="28"
   width="60"
   height="27.379">
				<feFlood
   style="flood-color:white;flood-opacity:1"
   result="back"
   id="feFlood28" />
				<feBlend
   in="SourceGraphic"
   in2="back"
   mode="normal"
   id="feBlend30" />
			</filter>
		</defs>
		<mask
   maskUnits="userSpaceOnUse"
   x="0"
   y="28"
   width="60"
   height="27.379"
   id="SVGID_1_">
			<g
   filter="url(#Adobe_OpacityMaskFilter)"
   id="g33">
				<defs
   id="defs35">
					<filter
   id="Adobe_OpacityMaskFilter_1_"
   filterUnits="userSpaceOnUse"
   x="0"
   y="28"
   width="60"
   height="27.379">
						<feFlood
   style="flood-color:white;flood-opacity:1"
   result="back"
   id="feFlood38" />
						<feBlend
   in="SourceGraphic"
   in2="back"
   mode="normal"
   id="feBlend40" />
					</filter>
				</defs>
				<mask
   maskUnits="userSpaceOnUse"
   x="0"
   y="28"
   width="60"
   height="27.379"
   id="mask42">
					<g
   filter="url(#Adobe_OpacityMaskFilter_1_)"
   id="g44">
					</g>
				</mask>
				<linearGradient
   id="SVGID_2_"
   gradientUnits="userSpaceOnUse"
   x1="30"
   y1="55.3794"
   x2="30"
   y2="28.0005">
					<stop
   offset="0"
   style="stop-color:#FFFFFF"
   id="stop47" />
					<stop
   offset="0.0731"
   style="stop-color:#F3F3F3"
   id="stop49" />
					<stop
   offset="0.2038"
   style="stop-color:#D5D5D5"
   id="stop51" />
					<stop
   offset="0.3771"
   style="stop-color:#A3A3A3"
   id="stop53" />
					<stop
   offset="0.5864"
   style="stop-color:#5D5D5D"
   id="stop55" />
					<stop
   offset="0.8241"
   style="stop-color:#060606"
   id="stop57" />
					<stop
   offset="0.8396"
   style="stop-color:#000000"
   id="stop59" />
				</linearGradient>
				<path
   mask="url(#SVGID_1_)"
   fill="url(#SVGID_2_)"
   d="M60,40.725C60,33.708,46.935,28,30.002,28C13.066,28,0,33.708,0,40.725      c0,3.471,3.373,5.999,8.824,8.297l2.843,6.357H48.52l2.656-6.356C56.628,46.724,60,44.196,60,40.725z"
   id="path61" />
			</g>
		</mask>
		<linearGradient
   id="SVGID_3_"
   gradientUnits="userSpaceOnUse"
   x1="30"
   y1="55.3794"
   x2="30"
   y2="28.0005">
			<stop
   offset="0"
   style="stop-color:#888787"
   id="stop64" />
			<stop
   offset="0.7607"
   style="stop-color:#888787;stop-opacity:0"
   id="stop66" />
		</linearGradient>
		<path
   fill="url(#SVGID_3_)"
   d="M60,40.725C60,33.708,46.935,28,30.002,28C13.066,28,0,33.708,0,40.725    c0,3.471,3.373,5.999,8.824,8.297l2.843,6.357H48.52l2.656-6.356C56.628,46.724,60,44.196,60,40.725z"
   id="path68" />
		<linearGradient
   id="SVGID_4_"
   gradientUnits="userSpaceOnUse"
   x1="30.001"
   y1="56.0894"
   x2="30.001"
   y2="-0.0894">
			<stop
   offset="0"
   style="stop-color:#DAD8D1"
   id="stop71" />
			<stop
   offset="0.0386"
   style="stop-color:#E6E4DF"
   id="stop73" />
			<stop
   offset="0.116"
   style="stop-color:#F8F8F6"
   id="stop75" />
			<stop
   offset="0.1651"
   style="stop-color:#FFFFFF"
   id="stop77" />
		</linearGradient>
		<path
   fill="url(#SVGID_4_)"
   d="M56.112,26.023c0-14.398-11.714-26.112-26.11-26.112C15.603-0.089,3.89,11.625,3.89,26.023    c0,7.12,2.867,13.578,7.503,18.293v11.773h37.215V44.317C53.245,39.601,56.112,33.143,56.112,26.023z"
   id="path79" />
	</g>
	
		<linearGradient
   id="SVGID_5_"
   gradientUnits="userSpaceOnUse"
   x1="-102.5659"
   y1="609.8525"
   x2="-102.5659"
   y2="652.0961"
   gradientTransform="matrix(0.7071 0.7071 -0.7071 0.7071 548.5869 -347.8652)">
		<stop
   offset="0"
   style="stop-color:#E53780"
   id="stop82" />
		<stop
   offset="1"
   style="stop-color:#E30466"
   id="stop84" />
	</linearGradient>
	<path
   fill="url(#SVGID_5_)"
   d="M30,5.673c-11.045,0-20,8.954-20,20.001c0,11.045,8.955,20,20,20s20-8.955,20-20   C50,14.627,41.045,5.673,30,5.673z M30,42.474c-9.279,0-16.801-7.522-16.801-16.8c0-9.279,7.521-16.801,16.801-16.801   s16.802,7.521,16.802,16.801C46.802,34.952,39.279,42.474,30,42.474z M40.589,15.032c1.363,1.362,1.363,3.573,0,4.937   L24.241,36.316c-1.363,1.363-3.574,1.363-4.937,0l0,0c-1.363-1.363-1.363-3.573,0-4.937l16.348-16.348   C37.016,13.668,39.226,13.668,40.589,15.032L40.589,15.032z M40.59,36.316c-1.362,1.363-3.573,1.363-4.937,0L19.306,19.968   c-1.363-1.363-1.363-3.574,0-4.937l0,0c1.363-1.363,3.573-1.363,4.937,0L40.59,31.379C41.953,32.743,41.953,34.953,40.59,36.316   L40.59,36.316z"
   id="path86" />
</g>
</g>
</svg>