<?xml version="1.0" encoding="UTF-8" standalone="no"?>
<svg
   xmlns="http://www.w3.org/2000/svg"
   xmlns:oryx="http://www.b3mn.org/oryx"
   width="40"
   height="40"
   version="1.0">
  <defs></defs>
  <oryx:magnets>

	<oryx:magnet oryx:cx="30" oryx:cy="25" oryx:default="yes" />
  </oryx:magnets>

  <oryx:docker oryx:cx="30" oryx:cy="25" />
  <g pointer-events="fill">


<g
   id="g7">
	<g
   id="g9">
		<g
   id="g11">
			<linearGradient
   id="SVGID_1_"
   gradientUnits="userSpaceOnUse"
   x1="30"
   y1="57.4663"
   x2="30"
   y2="21.033">
				<stop
   offset="0"
   style="stop-color:#888787"
   id="stop14" />
				<stop
   offset="0.681"
   style="stop-color:#888787;stop-opacity:0"
   id="stop16" />
			</linearGradient>
			<path
   fill="url(#SVGID_1_)"
   d="M16.003,55.711c0,0-2.044-2.232-3.758-5.292C5.266,49.783,0,47.034,0,43.75V32.615     c0-3.755,6.877-6.81,15.33-6.81h29.338c8.454,0,15.332,3.055,15.332,6.81V43.75c0,3.406-5.662,6.236-13.025,6.731     c-1.466,2.779-3.366,5.229-3.366,5.229H16.003z"
   id="path18" />
		</g>
	</g>
	<g
   id="g20">
		<g
   id="g22">
			<linearGradient
   id="SVGID_2_"
   gradientUnits="userSpaceOnUse"
   x1="30"
   y1="59.3506"
   x2="30"
   y2="-9.0117">
				<stop
   offset="0"
   style="stop-color:#DAD8D1"
   id="stop25" />
				<stop
   offset="0.0386"
   style="stop-color:#E6E4DF"
   id="stop27" />
				<stop
   offset="0.116"
   style="stop-color:#F8F8F6"
   id="stop29" />
				<stop
   offset="0.1651"
   style="stop-color:#FFFFFF"
   id="stop31" />
			</linearGradient>
			<path
   fill="url(#SVGID_2_)"
   d="M15.235,56.057c0,0-0.023-6.848-0.031-9.93C9.388,44.934,5,39.775,5,33.611V12.72     C5,5.675,10.73-0.057,17.775-0.057h24.448C49.269-0.057,55,5.675,55,12.72v20.892c0,6.392-4.719,11.702-10.854,12.632     c0.027,2.249,0.12,9.813,0.12,9.813H15.235z"
   id="path33" />
		</g>
	</g>
	<g
   id="g35">
		<g
   id="g37">
			<linearGradient
   id="SVGID_3_"
   gradientUnits="userSpaceOnUse"
   x1="29.9995"
   y1="4.1572"
   x2="29.9995"
   y2="45.6064">
				<stop
   offset="0"
   style="stop-color:#B0C808"
   id="stop40" />
				<stop
   offset="1"
   style="stop-color:#8ABA1B"
   id="stop42" />
			</linearGradient>
			<path
   fill="url(#SVGID_3_)"
   d="M42.224,6.154H17.775c-3.626,0-6.565,2.938-6.565,6.565v20.892c0,3.626,2.939,6.565,6.565,6.565     h24.448c3.626,0,6.565-2.939,6.565-6.565V12.72C48.789,9.093,45.85,6.154,42.224,6.154z M45.975,32.673     c0,2.591-2.1,4.689-4.688,4.689H18.714c-2.59,0-4.689-2.099-4.689-4.689V13.657c0-2.589,2.1-4.689,4.689-4.689h22.572     c2.589,0,4.688,2.101,4.688,4.689V32.673z M26.25,29.859h7.503v-3.752H26.25V29.859z M35.596,34.549h7.505v-3.751h-7.505V34.549z      M35.596,29.859h7.505v-3.752h-7.505V29.859z M35.596,25.17h7.505v-3.751h-7.505V25.17z M35.596,20.48h7.505v-3.752h-7.505V20.48     z M35.596,15.791h7.505v-3.752h-7.505V15.791z M26.217,34.549h7.504v-3.751h-7.504V34.549z M16.837,34.549h7.505v-3.751h-7.505     V34.549z M16.837,29.859h7.505v-3.752h-7.505V29.859z M16.837,25.17h7.505v-3.751h-7.505V25.17z M16.837,20.48h7.505v-3.752     h-7.505V20.48z"
   id="path44" />
		</g>
	</g>
</g>
</g>
</svg>