<?xml version="1.0" encoding="UTF-8" standalone="no"?>
<svg
   xmlns="http://www.w3.org/2000/svg"
   xmlns:oryx="http://www.b3mn.org/oryx"
   width="40"
   height="40"
   version="1.0">
  <defs></defs>
  <oryx:magnets>

	<oryx:magnet oryx:cx="30" oryx:cy="25" oryx:default="yes" />
  </oryx:magnets>

  <oryx:docker oryx:cx="30" oryx:cy="25" />
  <g pointer-events="fill">
<g
   id="Capa_2_1_"
   display="none">
	<g
   display="inline"
   id="g4">
		<g
   id="g6">
			<g
   id="g8">
				
					<radialGradient
   id="XMLID_3_"
   cx="3871.4062"
   cy="-4526.8975"
   r="96.3858"
   gradientTransform="matrix(0.223 0 0 -0.2812 -832.6203 -1245.3533)"
   gradientUnits="userSpaceOnUse">
					<stop
   offset="0"
   style="stop-color:#CCE7F4"
   id="stop11" />
					<stop
   offset="0.9693"
   style="stop-color:#CCE7F4"
   id="stop13" />
				</radialGradient>
				<rect
   id="XMLID_1_"
   x="-1.981"
   y="-1.782"
   fill="url(#XMLID_3_)"
   width="65.37"
   height="58.784" />
			</g>
		</g>
	</g>
</g>

<g
   id="g67">
	<g
   id="g69">
		<defs
   id="defs71">
			<filter
   id="Adobe_OpacityMaskFilter"
   filterUnits="userSpaceOnUse"
   x="0"
   y="28.001"
   width="60"
   height="27.378">
				<feFlood
   style="flood-color:white;flood-opacity:1"
   result="back"
   id="feFlood74" />
				<feBlend
   in="SourceGraphic"
   in2="back"
   mode="normal"
   id="feBlend76" />
			</filter>
		</defs>
		<mask
   maskUnits="userSpaceOnUse"
   x="0"
   y="28.001"
   width="60"
   height="27.378"
   id="SVGID_1_">
			<g
   filter="url(#Adobe_OpacityMaskFilter)"
   id="g79">
				<defs
   id="defs81">
					<filter
   id="Adobe_OpacityMaskFilter_1_"
   filterUnits="userSpaceOnUse"
   x="0"
   y="28.001"
   width="60"
   height="27.378">
						<feFlood
   style="flood-color:white;flood-opacity:1"
   result="back"
   id="feFlood84" />
						<feBlend
   in="SourceGraphic"
   in2="back"
   mode="normal"
   id="feBlend86" />
					</filter>
				</defs>
				<mask
   maskUnits="userSpaceOnUse"
   x="0"
   y="28.001"
   width="60"
   height="27.378"
   id="mask88">
					<g
   filter="url(#Adobe_OpacityMaskFilter_1_)"
   id="g90">
					</g>
				</mask>
				<linearGradient
   id="SVGID_2_"
   gradientUnits="userSpaceOnUse"
   x1="30.0005"
   y1="55.3789"
   x2="30.0005"
   y2="28.0015">
					<stop
   offset="0"
   style="stop-color:#FFFFFF"
   id="stop93" />
					<stop
   offset="0.0731"
   style="stop-color:#F3F3F3"
   id="stop95" />
					<stop
   offset="0.2038"
   style="stop-color:#D5D5D5"
   id="stop97" />
					<stop
   offset="0.3771"
   style="stop-color:#A3A3A3"
   id="stop99" />
					<stop
   offset="0.5864"
   style="stop-color:#5D5D5D"
   id="stop101" />
					<stop
   offset="0.8241"
   style="stop-color:#060606"
   id="stop103" />
					<stop
   offset="0.8396"
   style="stop-color:#000000"
   id="stop105" />
				</linearGradient>
				<path
   mask="url(#SVGID_1_)"
   fill="url(#SVGID_2_)"
   d="M60,40.727c0-7.018-13.065-12.726-29.998-12.726      C13.066,28.001,0,33.709,0,40.727c0,3.469,3.373,5.998,8.824,8.297l2.843,6.355H48.52l2.656-6.355      C56.628,46.725,60,44.195,60,40.727z"
   id="path107" />
			</g>
		</mask>
		<linearGradient
   id="SVGID_3_"
   gradientUnits="userSpaceOnUse"
   x1="30.0005"
   y1="55.3789"
   x2="30.0005"
   y2="28.0015">
			<stop
   offset="0"
   style="stop-color:#868686"
   id="stop110" />
			<stop
   offset="0.7607"
   style="stop-color:#868686;stop-opacity:0"
   id="stop112" />
		</linearGradient>
		<path
   fill="url(#SVGID_3_)"
   d="M60,40.727c0-7.018-13.065-12.726-29.998-12.726C13.066,28.001,0,33.709,0,40.727    c0,3.469,3.373,5.998,8.824,8.297l2.843,6.355H48.52l2.656-6.355C56.628,46.725,60,44.195,60,40.727z"
   id="path114" />
		<linearGradient
   id="SVGID_4_"
   gradientUnits="userSpaceOnUse"
   x1="30.0015"
   y1="56.0898"
   x2="30.0015"
   y2="-0.0874">
			<stop
   offset="0"
   style="stop-color:#D9D7D0"
   id="stop117" />
			<stop
   offset="0.0428"
   style="stop-color:#E6E5E0"
   id="stop119" />
			<stop
   offset="0.1176"
   style="stop-color:#F8F8F7"
   id="stop121" />
			<stop
   offset="0.1651"
   style="stop-color:#FFFFFF"
   id="stop123" />
		</linearGradient>
		<path
   fill="url(#SVGID_4_)"
   d="M56.112,26.023c0-14.398-11.714-26.111-26.11-26.111C15.603-0.088,3.89,11.625,3.89,26.023    c0,7.119,2.867,13.578,7.503,18.293V56.09h37.215V44.318C53.245,39.602,56.112,33.143,56.112,26.023z"
   id="path125" />
	</g>
	<linearGradient
   id="SVGID_5_"
   gradientUnits="userSpaceOnUse"
   x1="10"
   y1="25.6758"
   x2="50"
   y2="25.6758">
		<stop
   offset="0"
   style="stop-color:#E5337F"
   id="stop128" />
		<stop
   offset="1"
   style="stop-color:#E30066"
   id="stop130" />
	</linearGradient>
	<path
   fill="url(#SVGID_5_)"
   d="M30,5.676c-11.04,0-20,8.949-20,20c0,7.959,4.66,14.84,11.4,18.06c0.029,0.011,0.05,0.021,0.08,0.04   c2.58,1.221,5.47,1.9,8.52,1.9c11.05,0,20-8.961,20-20C50,14.625,41.05,5.676,30,5.676z M38.4,11.125   c3.189,1.84,5.72,4.7,7.13,8.141c-0.04,0.66-0.11,1.32-0.22,1.96c-2.37-1.091-4.9-1.78-7.49-2.03   C37.17,16.485,37.38,13.695,38.4,11.125z M29.16,25.275c0.11-1.08,0.16-2.15,0.13-3.21c0.95-0.28,1.94-0.49,2.94-0.64   c1.33-0.19,2.659-0.271,3.97-0.211c1.16,3.33,3.38,6.11,6.35,7.98c-1.449,2.62-3.39,4.95-5.68,6.859   c-3.49,0.061-6.99-0.629-10.3-2.039C27.95,31.325,28.83,28.375,29.16,25.275z M24.65,33.105c-2.17-1.13-4.13-2.561-5.86-4.24   c2.28-2.699,5.15-4.77,8.38-6.07c-0.01,0.75-0.05,1.51-0.13,2.26C26.75,27.916,25.93,30.635,24.65,33.105z M38.57,21.436   c2.189,0.311,4.31,0.97,6.31,1.939c-0.35,1.351-0.8,2.66-1.37,3.91C41.311,25.855,39.61,23.825,38.57,21.436z M30,8.875   c2.3,0,4.5,0.461,6.5,1.311c-1.17,2.82-1.479,5.88-0.88,8.88c-1.23-0.011-2.46,0.069-3.7,0.25c-0.95,0.14-1.87,0.33-2.78,0.58   c-0.399-3.69-1.64-7.229-3.64-10.399C26.93,9.086,28.44,8.875,30,8.875z M23.43,10.205c2.07,3.12,3.311,6.66,3.65,10.35   c-3.77,1.381-7.12,3.691-9.75,6.771c-1.46-1.659-2.7-3.51-3.68-5.53C14.89,16.565,18.57,12.275,23.43,10.205z M20.05,39.205   c-4.16-3.05-6.85-7.979-6.85-13.529c0-0.11,0-0.221,0.01-0.32c2.55,4.05,6.11,7.34,10.38,9.59   C22.601,36.506,21.41,37.936,20.05,39.205z M21.9,40.396c1.39-1.37,2.6-2.88,3.62-4.511c0.04,0.021,0.09,0.041,0.13,0.061   c2.71,1.16,5.54,1.87,8.399,2.13c-2.899,1.8-6.22,2.99-9.77,3.4C23.46,41.176,22.66,40.815,21.9,40.396z M30,42.476   c-0.13,0-0.27,0-0.399-0.011c2.93-0.959,5.64-2.42,8.01-4.289c1.38-0.051,2.76-0.211,4.12-0.48C38.7,40.655,34.57,42.476,30,42.476   z M44.01,34.936c-1.239,0.39-2.489,0.67-3.75,0.85c3.04-3.109,5.301-6.949,6.5-11.24c0-0.049,0-0.1-0.01-0.14   c0.021,0.011,0.03,0.021,0.04,0.03c0,0.04-0.01,0.08-0.03,0.109c0.03,0.371,0.04,0.75,0.04,1.131   C46.8,29.096,45.78,32.285,44.01,34.936z"
   id="path132" />
</g>
</g>
</svg>