<?xml version="1.0" encoding="UTF-8" standalone="no"?>
<svg
   xmlns="http://www.w3.org/2000/svg"
   xmlns:oryx="http://www.b3mn.org/oryx"
   width="40"
   height="40"
   version="1.0">
  <defs></defs>
  <oryx:magnets>

	<oryx:magnet oryx:cx="30" oryx:cy="25" oryx:default="yes" />
  </oryx:magnets>

  <oryx:docker oryx:cx="30" oryx:cy="25" />
  <g pointer-events="fill">
<g
   id="Capa_2_1_"
   display="none">
	<g
   display="inline"
   id="g4">
		<g
   id="g6">
			<g
   id="g8">
				
					<radialGradient
   id="XMLID_3_"
   cx="3871.4062"
   cy="-4526.8975"
   r="96.3858"
   gradientTransform="matrix(0.223 0 0 -0.2812 -832.6203 -1245.3533)"
   gradientUnits="userSpaceOnUse">
					<stop
   offset="0"
   style="stop-color:#CCE7F4"
   id="stop11" />
					<stop
   offset="0.9693"
   style="stop-color:#CCE7F4"
   id="stop13" />
				</radialGradient>
				<rect
   id="XMLID_1_"
   x="-1.981"
   y="-1.782"
   fill="url(#XMLID_3_)"
   width="65.37"
   height="58.784" />
			</g>
		</g>
	</g>
</g>

<g
   id="g54">
	<g
   id="g56">
		<g
   id="g58">
			<linearGradient
   id="SVGID_1_"
   gradientUnits="userSpaceOnUse"
   x1="39.9785"
   y1="55.6719"
   x2="39.9785"
   y2="21.5269">
				<stop
   offset="0"
   style="stop-color:#868686"
   id="stop61" />
				<stop
   offset="0.6994"
   style="stop-color:#868686;stop-opacity:0"
   id="stop63" />
			</linearGradient>
			<path
   fill="url(#SVGID_1_)"
   d="M79.979,37.812c0,0.8-0.406,1.952-2.37,3.042l-8.81,4.863c-1.47,0.812-3.356,1.261-5.32,1.261     c0,0,0,0-0.011,0c-0.362,0-0.725-0.012-1.076-0.048c-0.582,0.415-1.201,0.813-1.854,1.194c-0.68,2.872-1.92,7.548-1.92,7.548     H21.841c0,0-1-3.551-2.156-7.249c-1.109-0.613-2.127-1.276-3.042-1.985h-0.153c-1.964,0-3.851-0.441-5.32-1.254l-8.81-4.869     c-1.964-1.085-2.381-2.236-2.381-3.012c0-0.801,0.417-1.953,2.37-3.038l8.82-4.868c1.47-0.813,3.356-1.262,5.32-1.262     c0.044,0,0.099,0,0.143,0.006c5.178-4.001,13.648-6.614,23.215-6.614c9.983,0,18.782,2.843,23.873,7.148     c1.876,0.029,3.676,0.472,5.079,1.254l8.81,4.863C79.572,35.884,79.979,37.035,79.979,37.812z"
   id="path65" />
		</g>
	</g>
	<g
   id="g67">
		<g
   id="g69">
			<linearGradient
   id="SVGID_2_"
   gradientUnits="userSpaceOnUse"
   x1="39.9785"
   y1="56.1611"
   x2="39.9785"
   y2="-0.1587">
				<stop
   offset="0"
   style="stop-color:#D9D7D0"
   id="stop72" />
				<stop
   offset="0.0428"
   style="stop-color:#E6E5E0"
   id="stop74" />
				<stop
   offset="0.1176"
   style="stop-color:#F8F8F7"
   id="stop76" />
				<stop
   offset="0.1651"
   style="stop-color:#FFFFFF"
   id="stop78" />
			</linearGradient>
			<path
   fill="url(#SVGID_2_)"
   d="M76.438,26.701c0,1.32-0.37,3.22-2.16,5.02l-8.03,8.021c-1.34,1.34-3.06,2.08-4.85,2.08     c0,0,0,0-0.01,0c-0.33,0-0.66-0.021-0.98-0.08c-0.53,0.685-1.095,1.342-1.69,1.97c-0.101,4.632-0.101,12.45-0.101,12.45H21.402     c0,0,0-5.41,0.078-11.957c-1.011-1.012-1.938-2.106-2.772-3.273h-0.14c-1.79,0-3.51-0.729-4.85-2.069l-8.03-8.03     c-1.79-1.79-2.17-3.69-2.17-4.97c0-1.32,0.38-3.221,2.16-5.01l8.04-8.03c1.34-1.34,3.06-2.08,4.85-2.08c0.04,0,0.09,0,0.13,0.01     c4.72-6.6,12.44-10.91,21.16-10.91c9.1,0,17.12,4.69,21.76,11.79c1.71,0.05,3.351,0.78,4.63,2.07l8.03,8.02     C76.068,23.521,76.438,25.421,76.438,26.701z"
   id="path80" />
		</g>
	</g>
	<g
   id="g82">
		<g
   id="g84">
			<linearGradient
   id="SVGID_3_"
   gradientUnits="userSpaceOnUse"
   x1="39.7334"
   y1="7.374"
   x2="39.7334"
   y2="49.0377">
				<stop
   offset="0"
   style="stop-color:#E5337F"
   id="stop87" />
				<stop
   offset="1"
   style="stop-color:#E30066"
   id="stop89" />
			</linearGradient>
			<path
   fill="url(#SVGID_3_)"
   d="M39.732,5.839c-11.045,0-19.999,8.955-19.999,19.999c0,11.045,8.954,19.999,19.999,19.999     s20.001-8.954,20.001-19.999C59.733,14.794,50.777,5.839,39.732,5.839z M32.396,10.743c-1,1.552-1.847,3.406-2.49,5.495h-3.949     C27.591,13.896,29.808,12.004,32.396,10.743z M24.956,17.838h4.511c-0.543,2.22-0.866,4.647-0.923,7.2h-5.57     C23.096,22.442,23.786,19.995,24.956,17.838z M24.956,33.839c-1.17-2.158-1.86-4.604-1.982-7.2h5.57     c0.057,2.552,0.38,4.979,0.923,7.2H24.956z M25.957,35.438h3.948c0.644,2.089,1.49,3.944,2.49,5.495     C29.809,39.673,27.592,37.779,25.957,35.438z M38.934,42.598c-1.313-0.062-2.587-0.268-3.805-0.613     c-1.473-1.546-2.712-3.809-3.588-6.547h7.393V42.598z M38.934,33.839h-7.848c-0.555-2.193-0.885-4.629-0.942-7.2h8.79V33.839z      M38.934,25.038h-8.79c0.058-2.572,0.388-5.007,0.942-7.2h7.848V25.038z M38.934,16.238h-7.393     c0.876-2.738,2.115-5.001,3.588-6.545c1.218-0.348,2.491-0.553,3.805-0.615V16.238z M54.509,17.838     c1.17,2.157,1.861,4.604,1.983,7.2h-5.571c-0.057-2.553-0.38-4.98-0.924-7.2H54.509z M53.509,16.238h-3.95     c-0.642-2.089-1.488-3.943-2.488-5.495C49.656,12.004,51.874,13.896,53.509,16.238z M40.533,9.078     c1.313,0.062,2.586,0.268,3.804,0.615c1.473,1.544,2.71,3.807,3.587,6.545h-7.391V9.078z M40.533,17.838h7.847     c0.553,2.193,0.885,4.628,0.942,7.2h-8.789V17.838z M40.533,26.639h8.789c-0.058,2.571-0.39,5.007-0.942,7.2h-7.847V26.639z      M40.533,42.598v-7.16h7.391c-0.877,2.738-2.114,5.001-3.587,6.547C43.119,42.33,41.847,42.536,40.533,42.598z M47.07,40.933     c1-1.551,1.847-3.406,2.488-5.495h3.95C51.874,37.779,49.656,39.673,47.07,40.933z M54.509,33.839h-4.512     c0.544-2.221,0.867-4.648,0.924-7.2h5.571C56.37,29.234,55.679,31.681,54.509,33.839z"
   id="path91" />
		</g>
		
			<linearGradient
   id="SVGID_4_"
   gradientUnits="userSpaceOnUse"
   x1="1254.9746"
   y1="-887.7725"
   x2="1254.9746"
   y2="-874.3132"
   gradientTransform="matrix(0 -1 1 0 895.7437 1280.8135)">
			<stop
   offset="0"
   style="stop-color:#E5337F"
   id="stop94" />
			<stop
   offset="1"
   style="stop-color:#E30066"
   id="stop96" />
		</linearGradient>
		<path
   fill="url(#SVGID_4_)"
   d="M18.15,31.651l-5.79-5.789l-0.069-0.023l0.069-0.023l5.837-5.837c0,0,0.729-0.675,0.729-1.094    v-1.46c0-0.729-0.547-0.911-1.095-0.364l-2.554,2.554l-0.729,0.729l-1.46,1.459l-0.729,0.729l-2.553,2.553    c-0.273,0.274-0.41,0.503-0.41,0.73v0.047c0,0.228,0.137,0.456,0.41,0.729l8.024,8.025c0.548,0.547,1.095,0.364,1.095-0.365    v-1.506C18.927,32.746,18.933,32.45,18.15,31.651z"
   id="path98" />
		
			<linearGradient
   id="SVGID_5_"
   gradientUnits="userSpaceOnUse"
   x1="1254.0908"
   y1="1189.3633"
   x2="1254.0908"
   y2="1202.8225"
   gradientTransform="matrix(0 -1 -1 0 1261.1084 1280.8135)">
			<stop
   offset="0"
   style="stop-color:#E5337F"
   id="stop101" />
			<stop
   offset="1"
   style="stop-color:#E30066"
   id="stop103" />
		</linearGradient>
		<path
   fill="url(#SVGID_5_)"
   d="M60.789,33.63v1.506c0,0.729,0.547,0.912,1.095,0.365l8.024-8.025    c0.273-0.273,0.41-0.502,0.41-0.729v-0.047c0-0.228-0.137-0.456-0.41-0.73l-2.553-2.553l-0.729-0.729l-1.46-1.459l-0.729-0.729    l-2.554-2.554c-0.548-0.547-1.095-0.365-1.095,0.364v1.46c0,0.419,0.729,1.094,0.729,1.094l5.837,5.837l0.069,0.023l-0.069,0.023    l-5.79,5.789C60.783,33.334,60.789,33.63,60.789,33.63z"
   id="path105" />
		<g
   id="g107">
			<path
   fill="#FFFFFF"
   d="M38.489,38.554c-0.886,0-1.771-0.356-2.367-0.953l-9.311-8.996c-0.962-0.719-1.494-1.687-1.501-2.73     c-0.008-1.06,0.521-2.049,1.491-2.791l9.345-9.029c0.575-0.577,1.456-0.929,2.344-0.929c1.781,0,3.073,1.339,3.073,3.185v1.763     h9.466c1.894,0,3.434,1.54,3.434,3.433v8.6c0,1.893-1.54,3.433-3.434,3.433h-9.466v1.832c0,1.21-0.522,1.957-0.961,2.371     C40.043,38.266,39.293,38.554,38.489,38.554z"
   id="path109" />
			
				<linearGradient
   id="SVGID_6_"
   gradientUnits="userSpaceOnUse"
   x1="1197.8633"
   y1="-848.1978"
   x2="1197.8633"
   y2="-819.7804"
   gradientTransform="matrix(0 -1 1 0 875.5088 1223.7021)">
				<stop
   offset="0"
   style="stop-color:#E5337F"
   id="stop112" />
				<stop
   offset="1"
   style="stop-color:#E30066"
   id="stop114" />
			</linearGradient>
			<path
   fill="url(#SVGID_6_)"
   d="M39.563,35.369v-3.832h11.466c0.791,0,1.434-0.641,1.434-1.433v-8.6     c0-0.791-0.643-1.433-1.434-1.433H39.563V16.31c0-1.434-1.468-1.378-2.026-0.818l-9.439,9.121c-1.005,0.715-1.094,1.7,0,2.454     l9.439,9.121C38.096,36.747,39.563,36.802,39.563,35.369z"
   id="path116" />
		</g>
	</g>
</g>
</g>
</svg>