<?xml version="1.0" encoding="UTF-8" standalone="no"?>
<svg
   xmlns="http://www.w3.org/2000/svg"
   xmlns:oryx="http://www.b3mn.org/oryx"
   width="40"
   height="40"
   version="1.0">
  <defs></defs>
  <oryx:magnets>

	<oryx:magnet oryx:cx="30" oryx:cy="25" oryx:default="yes" />
  </oryx:magnets>

  <oryx:docker oryx:cx="30" oryx:cy="25" />
  <g pointer-events="fill">
<g
   id="Capa_2_1_"
   display="none">
	<g
   display="inline"
   id="g4">
		<g
   id="g6">
			<g
   id="g8">
				
					<radialGradient
   id="XMLID_3_"
   cx="3871.4062"
   cy="-4526.8975"
   r="96.3858"
   gradientTransform="matrix(0.223 0 0 -0.2812 -832.6203 -1245.3533)"
   gradientUnits="userSpaceOnUse">
					<stop
   offset="0"
   style="stop-color:#CCE7F4"
   id="stop11" />
					<stop
   offset="0.9693"
   style="stop-color:#CCE7F4"
   id="stop13" />
				</radialGradient>
				<rect
   id="XMLID_1_"
   x="-1.981"
   y="-1.782"
   fill="url(#XMLID_3_)"
   width="65.37"
   height="58.784" />
			</g>
		</g>
	</g>
</g>

<g
   id="g40">
	<g
   id="g42">
		<g
   id="g44">
			<linearGradient
   id="SVGID_1_"
   gradientUnits="userSpaceOnUse"
   x1="30.1226"
   y1="57.4678"
   x2="30.1226"
   y2="21.0357">
				<stop
   offset="0"
   style="stop-color:#868686"
   id="stop47" />
				<stop
   offset="0.681"
   style="stop-color:#868686;stop-opacity:0"
   id="stop49" />
			</linearGradient>
			<path
   fill="url(#SVGID_1_)"
   d="M16.125,55.712c0,0-2.044-2.232-3.758-5.291c-6.979-0.637-12.245-3.385-12.245-6.67V32.616     c0-3.754,6.877-6.809,15.33-6.809H44.79c8.454,0,15.332,3.055,15.332,6.809v11.135c0,3.406-5.662,6.236-13.025,6.732     c-1.466,2.779-3.366,5.229-3.366,5.229H16.125z"
   id="path51" />
		</g>
	</g>
	<g
   id="g53">
		<g
   id="g55">
			<linearGradient
   id="SVGID_2_"
   gradientUnits="userSpaceOnUse"
   x1="30.1226"
   y1="59.3516"
   x2="30.1226"
   y2="-9.0095">
				<stop
   offset="0"
   style="stop-color:#D9D7D0"
   id="stop58" />
				<stop
   offset="0.0428"
   style="stop-color:#E6E5E0"
   id="stop60" />
				<stop
   offset="0.1176"
   style="stop-color:#F8F8F7"
   id="stop62" />
				<stop
   offset="0.1651"
   style="stop-color:#FFFFFF"
   id="stop64" />
			</linearGradient>
			<path
   fill="url(#SVGID_2_)"
   d="M15.357,56.058c0,0-0.023-6.848-0.031-9.93C9.51,44.935,5.122,39.776,5.122,33.612V12.721     c0-7.045,5.73-12.776,12.775-12.776h24.448c7.045,0,12.776,5.731,12.776,12.776v20.891c0,6.393-4.719,11.703-10.854,12.633     c0.027,2.248,0.12,9.812,0.12,9.812H15.357z"
   id="path66" />
		</g>
	</g>
	<g
   id="g68">
		<linearGradient
   id="SVGID_3_"
   gradientUnits="userSpaceOnUse"
   x1="30.1226"
   y1="3.3574"
   x2="30.1226"
   y2="45.4969">
			<stop
   offset="0"
   style="stop-color:#AFC700"
   id="stop71" />
			<stop
   offset="1"
   style="stop-color:#89BA17"
   id="stop73" />
		</linearGradient>
		<path
   fill="url(#SVGID_3_)"
   d="M43.3,6.155H16.945c-3.045,0-5.513,2.469-5.513,5.514v22.84c0,3.045,2.468,5.514,5.513,5.514H43.3    c3.046,0,5.513-2.469,5.513-5.514v-22.84C48.812,8.624,46.346,6.155,43.3,6.155z M43.693,7.731c0.652,0,1.182,0.529,1.182,1.181    c0,0.653-0.529,1.182-1.182,1.182s-1.181-0.528-1.181-1.182C42.513,8.26,43.041,7.731,43.693,7.731z M39.756,7.731    c0.652,0,1.181,0.529,1.181,1.181c0,0.653-0.528,1.182-1.181,1.182s-1.182-0.528-1.182-1.182    C38.574,8.26,39.104,7.731,39.756,7.731z M35.817,7.731c0.652,0,1.181,0.529,1.181,1.181c0,0.653-0.528,1.182-1.181,1.182    s-1.181-0.528-1.181-1.182C34.637,8.26,35.165,7.731,35.817,7.731z M46.45,33.722c0,2.176-1.763,3.938-3.938,3.938H17.733    c-2.175,0-3.938-1.762-3.938-3.938V15.606c0-2.175,1.764-3.938,3.938-3.938h24.779c2.175,0,3.938,1.763,3.938,3.938V33.722z     M41.346,23.588l-14.685-4.895l4.896,14.686l1.764-5.294l6.12,6.123l2.692-2.693l-6.141-6.14L41.346,23.588z"
   id="path75" />
	</g>
</g>
</g>
</svg>