<?xml version="1.0" encoding="UTF-8" standalone="no"?>
<svg
   xmlns="http://www.w3.org/2000/svg"
   xmlns:oryx="http://www.b3mn.org/oryx"
   width="40"
   height="40"
   version="1.0">
  <defs></defs>
  <oryx:magnets>

	<oryx:magnet oryx:cx="30" oryx:cy="25" oryx:default="yes" />
  </oryx:magnets>

  <oryx:docker oryx:cx="30" oryx:cy="25" />
  <g pointer-events="fill">
<g
   id="Capa_2_1_"
   display="none">
	<g
   display="inline"
   id="g4">
		<g
   id="g6">
			<g
   id="g8">
				
					<radialGradient
   id="XMLID_3_"
   cx="3871.4062"
   cy="-4526.8975"
   r="96.3858"
   gradientTransform="matrix(0.223 0 0 -0.2812 -832.6203 -1245.3533)"
   gradientUnits="userSpaceOnUse">
					<stop
   offset="0"
   style="stop-color:#CCE7F4"
   id="stop11" />
					<stop
   offset="0.9693"
   style="stop-color:#CCE7F4"
   id="stop13" />
				</radialGradient>
				<rect
   id="XMLID_1_"
   x="-1.981"
   y="-1.782"
   fill="url(#XMLID_3_)"
   width="65.37"
   height="58.784" />
			</g>
		</g>
	</g>
</g>
<g
   id="g16">
	<g
   id="g18">
		<g
   id="g20">
			<linearGradient
   id="SVGID_1_"
   gradientUnits="userSpaceOnUse"
   x1="30.1226"
   y1="57.4688"
   x2="30.1226"
   y2="21.036">
				<stop
   offset="0"
   style="stop-color:#868686"
   id="stop23" />
				<stop
   offset="0.681"
   style="stop-color:#868686;stop-opacity:0"
   id="stop25" />
			</linearGradient>
			<path
   fill="url(#SVGID_1_)"
   d="M16.125,55.713c0,0-2.044-2.234-3.758-5.293c-6.979-0.635-12.245-3.385-12.245-6.67V32.615     c0-3.753,6.877-6.808,15.33-6.808H44.79c8.455,0,15.332,3.055,15.332,6.808V43.75c0,3.406-5.662,6.236-13.025,6.732     c-1.465,2.779-3.365,5.23-3.365,5.23H16.125z"
   id="path27" />
		</g>
	</g>
	<g
   id="g29">
		<g
   id="g31">
			<linearGradient
   id="SVGID_2_"
   gradientUnits="userSpaceOnUse"
   x1="30.1226"
   y1="59.3506"
   x2="30.1226"
   y2="-9.0087">
				<stop
   offset="0"
   style="stop-color:#D9D7D0"
   id="stop34" />
				<stop
   offset="0.0428"
   style="stop-color:#E6E5E0"
   id="stop36" />
				<stop
   offset="0.1176"
   style="stop-color:#F8F8F7"
   id="stop38" />
				<stop
   offset="0.1651"
   style="stop-color:#FFFFFF"
   id="stop40" />
			</linearGradient>
			<path
   fill="url(#SVGID_2_)"
   d="M15.357,56.057c0,0-0.023-6.846-0.031-9.93C9.51,44.936,5.122,39.775,5.122,33.613V12.722     c0-7.045,5.73-12.776,12.775-12.776h24.449c7.045,0,12.775,5.731,12.775,12.776v20.892c0,6.391-4.719,11.701-10.854,12.631     c0.027,2.248,0.119,9.812,0.119,9.812H15.357z"
   id="path42" />
		</g>
	</g>
	<g
   id="g44">
		<linearGradient
   id="SVGID_3_"
   gradientUnits="userSpaceOnUse"
   x1="30.1226"
   y1="3.3584"
   x2="30.1226"
   y2="45.496">
			<stop
   offset="0"
   style="stop-color:#E5337F"
   id="stop47" />
			<stop
   offset="1"
   style="stop-color:#E30066"
   id="stop49" />
		</linearGradient>
		<path
   fill="url(#SVGID_3_)"
   d="M43.3,6.155H16.945c-3.045,0-5.513,2.469-5.513,5.514v22.839c0,3.047,2.468,5.514,5.513,5.514H43.3    c3.047,0,5.514-2.467,5.514-5.514V11.669C48.813,8.624,46.347,6.155,43.3,6.155z M43.694,7.73c0.652,0,1.182,0.529,1.182,1.182    s-0.529,1.182-1.182,1.182s-1.182-0.529-1.182-1.182S43.042,7.73,43.694,7.73z M39.757,7.73c0.652,0,1.18,0.529,1.18,1.182    s-0.527,1.182-1.18,1.182s-1.182-0.529-1.182-1.182S39.104,7.73,39.757,7.73z M35.817,7.73c0.652,0,1.182,0.529,1.182,1.182    s-0.529,1.182-1.182,1.182s-1.18-0.529-1.18-1.182S35.165,7.73,35.817,7.73z M46.45,33.721c0,2.176-1.762,3.939-3.938,3.939    H17.733c-2.175,0-3.938-1.764-3.938-3.939V15.606c0-2.175,1.764-3.938,3.938-3.938h24.779c2.176,0,3.938,1.763,3.938,3.938V33.721    z M41.347,23.589l-14.686-4.895l4.896,14.685l1.764-5.293l6.119,6.121l2.693-2.691l-6.141-6.141L41.347,23.589z"
   id="path51" />
	</g>
</g>

</g>
</svg>