<?xml version="1.0" encoding="UTF-8" standalone="no"?>
<svg
   xmlns="http://www.w3.org/2000/svg"
   xmlns:oryx="http://www.b3mn.org/oryx"
   width="40"
   height="40"
   version="1.0">
  <defs></defs>
  <oryx:magnets>

	<oryx:magnet oryx:cx="30" oryx:cy="25" oryx:default="yes" />
  </oryx:magnets>

  <oryx:docker oryx:cx="30" oryx:cy="25" />
  <g pointer-events="fill">
<g
   id="Capa_2_1_"
   display="none">
	<g
   display="inline"
   id="g4">
		<g
   id="g6">
			<g
   id="g8">
				
					<radialGradient
   id="XMLID_3_"
   cx="3871.4062"
   cy="-4526.8975"
   r="96.3858"
   gradientTransform="matrix(0.223 0 0 -0.2812 -832.6203 -1245.3533)"
   gradientUnits="userSpaceOnUse">
					<stop
   offset="0"
   style="stop-color:#CCE7F4"
   id="stop11" />
					<stop
   offset="0.9693"
   style="stop-color:#CCE7F4"
   id="stop13" />
				</radialGradient>
				<rect
   id="XMLID_1_"
   x="-1.981"
   y="-1.782"
   fill="url(#XMLID_3_)"
   width="65.37"
   height="58.784" />
			</g>
		</g>
	</g>
</g>

<g
   id="g34">
	<g
   id="g36">
		<defs
   id="defs38">
			<filter
   id="Adobe_OpacityMaskFilter"
   filterUnits="userSpaceOnUse"
   x="0.122"
   y="28.002"
   width="60"
   height="27.378">
				<feFlood
   style="flood-color:white;flood-opacity:1"
   result="back"
   id="feFlood41" />
				<feBlend
   in="SourceGraphic"
   in2="back"
   mode="normal"
   id="feBlend43" />
			</filter>
		</defs>
		<mask
   maskUnits="userSpaceOnUse"
   x="0.122"
   y="28.002"
   width="60"
   height="27.378"
   id="SVGID_1_">
			<g
   filter="url(#Adobe_OpacityMaskFilter)"
   id="g46">
				<defs
   id="defs48">
					<filter
   id="Adobe_OpacityMaskFilter_1_"
   filterUnits="userSpaceOnUse"
   x="0.122"
   y="28.002"
   width="60"
   height="27.378">
						<feFlood
   style="flood-color:white;flood-opacity:1"
   result="back"
   id="feFlood51" />
						<feBlend
   in="SourceGraphic"
   in2="back"
   mode="normal"
   id="feBlend53" />
					</filter>
				</defs>
				<mask
   maskUnits="userSpaceOnUse"
   x="0.122"
   y="28.002"
   width="60"
   height="27.378"
   id="mask55">
					<g
   filter="url(#Adobe_OpacityMaskFilter_1_)"
   id="g57">
					</g>
				</mask>
				<linearGradient
   id="SVGID_2_"
   gradientUnits="userSpaceOnUse"
   x1="30.1226"
   y1="55.3799"
   x2="30.1226"
   y2="28.0024">
					<stop
   offset="0"
   style="stop-color:#FFFFFF"
   id="stop60" />
					<stop
   offset="0.0731"
   style="stop-color:#F3F3F3"
   id="stop62" />
					<stop
   offset="0.2038"
   style="stop-color:#D5D5D5"
   id="stop64" />
					<stop
   offset="0.3771"
   style="stop-color:#A3A3A3"
   id="stop66" />
					<stop
   offset="0.5864"
   style="stop-color:#5D5D5D"
   id="stop68" />
					<stop
   offset="0.8241"
   style="stop-color:#060606"
   id="stop70" />
					<stop
   offset="0.8396"
   style="stop-color:#000000"
   id="stop72" />
				</linearGradient>
				<path
   mask="url(#SVGID_1_)"
   fill="url(#SVGID_2_)"
   d="M60.122,40.727c0-7.018-13.065-12.725-29.998-12.725      c-16.936,0-30.002,5.707-30.002,12.725c0,3.47,3.373,5.998,8.824,8.297l2.843,6.356h36.853l2.656-6.356      C56.75,46.725,60.122,44.196,60.122,40.727z"
   id="path74" />
			</g>
		</mask>
		<linearGradient
   id="SVGID_3_"
   gradientUnits="userSpaceOnUse"
   x1="30.1226"
   y1="55.3799"
   x2="30.1226"
   y2="28.0024">
			<stop
   offset="0"
   style="stop-color:#868686"
   id="stop77" />
			<stop
   offset="0.7607"
   style="stop-color:#868686;stop-opacity:0"
   id="stop79" />
		</linearGradient>
		<path
   fill="url(#SVGID_3_)"
   d="M60.122,40.727c0-7.018-13.065-12.725-29.998-12.725c-16.936,0-30.002,5.707-30.002,12.725    c0,3.47,3.373,5.998,8.824,8.297l2.843,6.356h36.853l2.656-6.356C56.75,46.725,60.122,44.196,60.122,40.727z"
   id="path81" />
		<linearGradient
   id="SVGID_4_"
   gradientUnits="userSpaceOnUse"
   x1="30.1235"
   y1="56.0898"
   x2="30.1235"
   y2="-0.0874">
			<stop
   offset="0"
   style="stop-color:#D9D7D0"
   id="stop84" />
			<stop
   offset="0.0428"
   style="stop-color:#E6E5E0"
   id="stop86" />
			<stop
   offset="0.1176"
   style="stop-color:#F8F8F7"
   id="stop88" />
			<stop
   offset="0.1651"
   style="stop-color:#FFFFFF"
   id="stop90" />
		</linearGradient>
		<path
   fill="url(#SVGID_4_)"
   d="M56.234,26.023c0-14.398-11.714-26.111-26.11-26.111c-14.399,0-26.112,11.713-26.112,26.111    c0,7.12,2.867,13.578,7.503,18.293V56.09h37.215V44.318C53.367,39.602,56.234,33.144,56.234,26.023z"
   id="path92" />
	</g>
	<linearGradient
   id="SVGID_5_"
   gradientUnits="userSpaceOnUse"
   x1="30.1216"
   y1="4.6924"
   x2="30.1216"
   y2="46.9386">
		<stop
   offset="0"
   style="stop-color:#E5337F"
   id="stop95" />
		<stop
   offset="1"
   style="stop-color:#E30066"
   id="stop97" />
	</linearGradient>
	<path
   fill="url(#SVGID_5_)"
   d="M30.122,5.674c-11.045,0-20,8.955-20,20.001s8.955,20.001,20,20.001s20-8.955,20-20.001   S41.167,5.674,30.122,5.674z M30.122,42.475c-9.279,0-16.801-7.521-16.801-16.8s7.521-16.8,16.801-16.8s16.802,7.521,16.802,16.8   S39.401,42.475,30.122,42.475z"
   id="path99" />
	<g
   id="g101">
		<linearGradient
   id="SVGID_6_"
   gradientUnits="userSpaceOnUse"
   x1="17.835"
   y1="19.8555"
   x2="38.3955"
   y2="19.8555">
			<stop
   offset="0"
   style="stop-color:#E5337F"
   id="stop104" />
			<stop
   offset="1"
   style="stop-color:#E30066"
   id="stop106" />
		</linearGradient>
		<path
   fill="url(#SVGID_6_)"
   d="M17.835,18.185l1.498-1.169c1.257,1.678,2.242,2.516,2.958,2.516c0.275,0,0.546-0.096,0.811-0.288    c0.422-0.871,1.014-1.306,1.774-1.306c0.55,0,1.007,0.229,1.369,0.687c0.361,0.459,0.542,1.027,0.542,1.706    c0,0.632-0.24,1.185-0.722,1.657c-0.481,0.472-1.037,0.708-1.671,0.708c-1.164,0-2.225-0.272-3.184-0.819    C20.253,21.331,19.128,20.1,17.835,18.185z M35.92,17.593c0.688,0,1.272,0.24,1.754,0.722c0.48,0.482,0.722,1.066,0.722,1.754    c0,0.688-0.241,1.272-0.722,1.753c-0.481,0.481-1.066,0.722-1.754,0.722s-1.273-0.24-1.761-0.722    c-0.486-0.48-0.729-1.064-0.729-1.753c0-0.688,0.243-1.271,0.729-1.754C34.646,17.833,35.232,17.593,35.92,17.593z"
   id="path108" />
	</g>
	<g
   id="g110">
		<linearGradient
   id="SVGID_7_"
   gradientUnits="userSpaceOnUse"
   x1="16.7207"
   y1="33.0049"
   x2="43.5254"
   y2="33.0049">
			<stop
   offset="0"
   style="stop-color:#E5337F"
   id="stop113" />
			<stop
   offset="1"
   style="stop-color:#E30066"
   id="stop115" />
		</linearGradient>
		<path
   fill="url(#SVGID_7_)"
   d="M16.721,29.67h2.324c2.018,1.815,5.878,2.723,11.58,2.723c4.795,0,8.462-0.907,11.002-2.723h1.898    c-0.944,1.881-2.689,3.462-5.233,4.744c-2.545,1.285-5.091,1.927-7.64,1.927c-2.979,0-5.681-0.572-8.101-1.714    C20.132,33.488,18.188,31.834,16.721,29.67z"
   id="path117" />
	</g>
	<linearGradient
   id="SVGID_8_"
   gradientUnits="userSpaceOnUse"
   x1="26.8247"
   y1="19.855"
   x2="32.1006"
   y2="19.855">
		<stop
   offset="0"
   style="stop-color:#E30066"
   id="stop120" />
		<stop
   offset="1"
   style="stop-color:#E53389"
   id="stop122" />
	</linearGradient>
	<path
   fill="url(#SVGID_8_)"
   d="M30.682,28.689c-0.682,0-1.282-0.493-1.396-1.188l-2.441-14.835   c-0.127-0.772,0.396-1.502,1.168-1.629c0.774-0.121,1.502,0.396,1.629,1.168l2.441,14.835c0.127,0.772-0.396,1.502-1.168,1.629   C30.836,28.683,30.759,28.689,30.682,28.689z"
   id="path124" />
	<linearGradient
   id="SVGID_9_"
   gradientUnits="userSpaceOnUse"
   x1="29.3853"
   y1="26.5186"
   x2="41.1328"
   y2="26.5186">
		<stop
   offset="0"
   style="stop-color:#E5337F"
   id="stop127" />
		<stop
   offset="1"
   style="stop-color:#E30066"
   id="stop129" />
	</linearGradient>
	<path
   fill="url(#SVGID_9_)"
   d="M30.801,28.67c-0.682,0-1.282-0.493-1.396-1.188c-0.127-0.772,0.396-1.502,1.168-1.629l8.913-1.467   c0.774-0.127,1.502,0.396,1.629,1.168c0.127,0.772-0.396,1.502-1.168,1.629l-8.913,1.467C30.955,28.663,30.878,28.67,30.801,28.67z   "
   id="path131" />
</g>  </g>

</svg>