<?xml version="1.0" encoding="UTF-8" standalone="no"?>
<svg
   xmlns="http://www.w3.org/2000/svg"
   xmlns:oryx="http://www.b3mn.org/oryx"
   width="40"
   height="40"
   version="1.0">
  <defs></defs>
  <oryx:magnets>

	<oryx:magnet oryx:cx="30" oryx:cy="25" oryx:default="yes" />
  </oryx:magnets>

  <oryx:docker oryx:cx="30" oryx:cy="25" />
  <g pointer-events="fill">
<g
   id="Capa_2_1_"
   display="none">
	<g
   display="inline"
   id="g4">
		<g
   id="g6">
			<g
   id="g8">
				
					<radialGradient
   id="XMLID_3_"
   cx="3871.4062"
   cy="-4526.8975"
   r="96.3858"
   gradientTransform="matrix(0.223 0 0 -0.2812 -832.6203 -1245.3533)"
   gradientUnits="userSpaceOnUse">
					<stop
   offset="0"
   style="stop-color:#CCE7F4"
   id="stop11" />
					<stop
   offset="0.9693"
   style="stop-color:#CCE7F4"
   id="stop13" />
				</radialGradient>
				<rect
   id="XMLID_1_"
   x="-1.981"
   y="-1.782"
   fill="url(#XMLID_3_)"
   width="65.37"
   height="58.784" />
			</g>
		</g>
	</g>
</g>

<g
   id="g34">
	<g
   id="g36">
		<g
   id="g38">
			<g
   id="g40">
				<g
   id="g42">
					<linearGradient
   id="SVGID_1_"
   gradientUnits="userSpaceOnUse"
   x1="32.2656"
   y1="43.251"
   x2="32.2656"
   y2="43.1143">
						<stop
   offset="0"
   style="stop-color:#868686"
   id="stop45" />
						<stop
   offset="0.454"
   style="stop-color:#868686;stop-opacity:0"
   id="stop47" />
					</linearGradient>
					<path
   fill="url(#SVGID_1_)"
   d="M32.501,43.124c-0.152,0.047-0.305,0.09-0.47,0.127c0.129-0.043,0.246-0.09,0.364-0.137       C32.43,43.12,32.466,43.12,32.501,43.124z"
   id="path49" />
					<linearGradient
   id="SVGID_2_"
   gradientUnits="userSpaceOnUse"
   x1="30.1221"
   y1="55.6475"
   x2="30.1221"
   y2="25.4277">
						<stop
   offset="0"
   style="stop-color:#868686"
   id="stop52" />
						<stop
   offset="0.454"
   style="stop-color:#868686;stop-opacity:0"
   id="stop54" />
					</linearGradient>
					<path
   fill="url(#SVGID_2_)"
   d="M58.198,48.278c-1.656,0.779-3.691,1.434-5.959,1.932c-1.799,2.594-3.81,5.438-3.81,5.438       l-36.659-0.166c0,0-3.207-2.973-4.067-4.016c-2.499-0.143-4.677-0.873-5.643-1.941C1.496,48.899-3.2,43.313,4.466,39.433       c2.43-1.236,5.506-1.967,8.746-2.092c0.739-0.705,1.35-1.227,1.396-1.264c0.457-0.385,1.069-0.719,1.797-0.984       c0.305-0.162,0.634-0.312,0.997-0.453l18.044-6.902c0.13-0.053,0.271-0.1,0.411-0.146c0.105-0.051,0.223-0.098,0.34-0.146       l2.677-1.021c1.69-0.646,3.827-0.996,6.035-0.996c2.699,0,5.258,0.521,7.02,1.43l3.839,1.982       c3.334,1.715,2.899,4.312-0.951,5.795l-2.7,1.027c-0.105,0.041-0.224,0.082-0.34,0.113c-0.13,0.064-0.271,0.121-0.411,0.178       l-18.009,6.891c-0.07,0.027-0.129,0.053-0.2,0.074c-0.175,0.062-0.434,0.145-0.621,0.197c-0.012,0.006-0.023,0.006-0.035,0.01       c-0.035-0.004-0.071-0.004-0.105-0.01c-0.118,0.047-0.235,0.094-0.364,0.137c0.165-0.037,0.317-0.08,0.47-0.127       c0.363,0.027,0.716,0.059,1.068,0.084l1.442,0.109c3.123,0.252,6.011,0.486,8.7,0.518h0.34c2.138,0,4.192-0.188,6.269-0.584       c0.892-0.168,1.833-0.25,2.76-0.25c2.242,0,4.425,0.479,5.776,1.34C60.769,45.556,60.487,47.204,58.198,48.278z"
   id="path56" />
				</g>
			</g>
		</g>
		<g
   id="g58">
			<g
   id="g60">
				<g
   id="g62">
					<linearGradient
   id="SVGID_3_"
   gradientUnits="userSpaceOnUse"
   x1="31.9082"
   y1="33.0889"
   x2="31.9082"
   y2="32.835">
						<stop
   offset="0"
   style="stop-color:#D9D7D0"
   id="stop65" />
						<stop
   offset="0.0428"
   style="stop-color:#E6E5E0"
   id="stop67" />
						<stop
   offset="0.1176"
   style="stop-color:#F8F8F7"
   id="stop69" />
						<stop
   offset="0.1651"
   style="stop-color:#FFFFFF"
   id="stop71" />
					</linearGradient>
					<path
   fill="url(#SVGID_3_)"
   d="M32.104,32.854c-0.127,0.088-0.254,0.166-0.392,0.234c0.107-0.078,0.205-0.166,0.304-0.254       C32.045,32.845,32.075,32.845,32.104,32.854z"
   id="path73" />
					<linearGradient
   id="SVGID_4_"
   gradientUnits="userSpaceOnUse"
   x1="30.1226"
   y1="56.3408"
   x2="30.1226"
   y2="-0.3379">
						<stop
   offset="0"
   style="stop-color:#D9D7D0"
   id="stop76" />
						<stop
   offset="0.0428"
   style="stop-color:#E6E5E0"
   id="stop78" />
						<stop
   offset="0.1176"
   style="stop-color:#F8F8F7"
   id="stop80" />
						<stop
   offset="0.1651"
   style="stop-color:#FFFFFF"
   id="stop82" />
					</linearGradient>
					<path
   fill="url(#SVGID_4_)"
   d="M53.519,42.519c-1.38,1.463-3.076,2.689-4.966,3.623c0.164,4.943,0.159,10.199,0.159,10.199       L11.497,56.03c0,0-0.008-5.676-0.057-7.533c-2.082-0.266-3.897-1.635-4.702-3.641c-0.471-1.172-4.384-11.65,2.005-18.929       c2.024-2.317,4.588-3.688,7.288-3.922c0.616-1.321,1.125-2.299,1.164-2.367c0.381-0.725,0.891-1.351,1.497-1.85       c0.254-0.303,0.528-0.587,0.831-0.852L34.56,3.995c0.108-0.098,0.226-0.186,0.343-0.273c0.088-0.099,0.186-0.187,0.283-0.274       l2.23-1.917c1.409-1.213,3.189-1.868,5.029-1.868c2.25,0,4.382,0.979,5.85,2.68l3.199,3.718       c2.778,3.218,2.416,8.091-0.793,10.868l-2.25,1.928c-0.088,0.078-0.187,0.156-0.283,0.215       c-0.108,0.118-0.226,0.226-0.343,0.333L32.818,32.325c-0.059,0.049-0.107,0.098-0.167,0.137       c-0.146,0.119-0.361,0.273-0.518,0.373c-0.01,0.01-0.02,0.01-0.029,0.02c-0.029-0.01-0.06-0.01-0.088-0.02       c-0.099,0.088-0.196,0.176-0.304,0.254c0.138-0.068,0.265-0.146,0.392-0.234c0.303,0.049,0.597,0.107,0.891,0.156l1.202,0.205       c2.603,0.469,5.009,0.91,7.25,0.969h0.283c1.781,0,3.493-0.352,5.224-1.096c0.743-0.312,1.527-0.469,2.3-0.469       c1.868,0,3.688,0.898,4.813,2.514C55.661,37.413,55.427,40.505,53.519,42.519z"
   id="path84" />
				</g>
			</g>
		</g>
		<g
   id="g86">
			<g
   id="g88">
				<g
   id="g90">
					
						<linearGradient
   id="SVGID_5_"
   gradientUnits="userSpaceOnUse"
   x1="36.6357"
   y1="122.3623"
   x2="57.417"
   y2="122.3623"
   gradientTransform="matrix(0.9972 0.0744 -0.0744 0.9972 -4.1525 -106.7269)">
						<stop
   offset="0"
   style="stop-color:#AFC700"
   id="stop93" />
						<stop
   offset="1"
   style="stop-color:#89BA17"
   id="stop95" />
					</linearGradient>
					<path
   fill="url(#SVGID_5_)"
   d="M23.227,22.034c-0.103,0.089-0.192,0.185-0.271,0.289c0.473,0.263,1.721,1.06,3.461,2.958       c1.699,1.857,2.253,3.033,2.421,3.494c0.041-0.027,0.082-0.051,0.121-0.082l15.346-13.216l-5.732-6.658L23.227,22.034z"
   id="path97" />
					
						<linearGradient
   id="SVGID_6_"
   gradientUnits="userSpaceOnUse"
   x1="51.8047"
   y1="113.2158"
   x2="60.6943"
   y2="113.2158"
   gradientTransform="matrix(0.9972 0.0744 -0.0744 0.9972 -4.1525 -106.7269)">
						<stop
   offset="0"
   style="stop-color:#AFC700"
   id="stop100" />
						<stop
   offset="1"
   style="stop-color:#89BA17"
   id="stop102" />
					</linearGradient>
					<path
   fill="url(#SVGID_6_)"
   d="M41.499,6.298l-2.283,1.965l5.733,6.657l2.283-1.964c0.781-0.676,0.87-1.868,0.195-2.652       l-3.278-3.807C43.476,5.714,42.282,5.626,41.499,6.298z"
   id="path104" />
				</g>
				<g
   id="g106">
					
						<linearGradient
   id="SVGID_7_"
   gradientUnits="userSpaceOnUse"
   x1="33.9121"
   y1="131.6338"
   x2="42.166"
   y2="131.6338"
   gradientTransform="matrix(0.9972 0.0744 -0.0744 0.9972 -4.1525 -106.7269)">
						<stop
   offset="0"
   style="stop-color:#AFC700"
   id="stop109" />
						<stop
   offset="1"
   style="stop-color:#89BA17"
   id="stop111" />
					</linearGradient>
					<path
   fill="url(#SVGID_7_)"
   d="M25.655,25.888c-2.091-2.277-3.426-2.859-3.426-2.859s-1.452,2.793-2.449,5.271       c0.682,0.464,1.833,1.449,2.647,3.162c2.552-0.812,5.551-2.107,5.551-2.107S27.744,28.167,25.655,25.888z"
   id="path113" />
				</g>
				
					<linearGradient
   id="SVGID_8_"
   gradientUnits="userSpaceOnUse"
   x1="25.3623"
   y1="141.1924"
   x2="36.6357"
   y2="141.1924"
   gradientTransform="matrix(0.9972 0.0744 -0.0744 0.9972 -4.1525 -106.7269)">
					<stop
   offset="0"
   style="stop-color:#AFC700"
   id="stop116" />
					<stop
   offset="1"
   style="stop-color:#89BA17"
   id="stop118" />
				</linearGradient>
				<path
   fill="url(#SVGID_8_)"
   d="M20.317,30.437c2.688,2.852,2.104,7.576-1.158,8.854c-3.263,1.277-6.163,0.162-7.365,4.527      c0,0-3.31-8.273,0.981-13.164C15.392,27.67,18.345,28.347,20.317,30.437z"
   id="path120" />
			</g>
			<linearGradient
   id="SVGID_9_"
   gradientUnits="userSpaceOnUse"
   x1="16.4771"
   y1="41.6279"
   x2="49.6787"
   y2="41.6279">
				<stop
   offset="0"
   style="stop-color:#AFC700"
   id="stop123" />
				<stop
   offset="1"
   style="stop-color:#89BA17"
   id="stop125" />
			</linearGradient>
			<path
   fill="url(#SVGID_9_)"
   d="M16.477,43.759c1.97-2.211,4.873-3.576,7.893-4.062c1.516-0.268,3.077-0.27,4.609-0.09     c1.532,0.215,2.867,0.482,4.29,0.729c2.798,0.504,5.537,0.994,8.263,1.07c2.724,0.064,5.436-0.441,8.147-1.598     c-2.023,2.143-4.994,3.459-8.02,3.805c-3.035,0.391-6.038,0.021-8.895-0.488c-1.411-0.256-2.891-0.588-4.197-0.867     c-1.312-0.252-2.646-0.373-3.997-0.367C21.875,41.942,19.124,42.521,16.477,43.759z"
   id="path127" />
		</g>
	</g>
</g>
</g>
</svg>